<svg xmlns="http://www.w3.org/2000/svg" viewBox="0 0 377.01 82.77"><defs><style>.cls-1{fill:#fff}</style></defs><title>ganoffmedia_logo_box_white</title><g id="Layer_2" data-name="Layer 2"><g id="boxed_white" data-name="boxed white"><path class="cls-1" d="M176.64 6.69a.9.9 0 0 0 .24-.53c-.43.43-.65.73-.65.88a1 1 0 0 0 .41-.35zM159.49 52.56c-.12-.55-.22-.85-.29-.88s-.16.08-.24.24a.5.5 0 0 0 .12.71c.11.11.25.09.41-.07zM131.13 38a13.2 13.2 0 0 1-1.42-2.83q-.18-.53-.44-1.71a10.06 10.06 0 0 0-.5-1.71 2 2 0 0 1-.88.35 1.87 1.87 0 0 1-.5-.15c-.26-.1-.42-.13-.5-.09a7.2 7.2 0 0 0-1.18 1.42 25.93 25.93 0 0 0-1.47 2.59A14.19 14.19 0 0 0 122.7 43q.23 4.19 2.36 6a5.62 5.62 0 0 0 5.9 1.42q.18.18.91-.5t1-1a14 14 0 0 0 1.59-2.59 22 22 0 0 0 1.65-6.07q-2.98.8-4.98-2.26zM124.82 31.57q.24-.71-.06-.94c0 .35-.1.53-.18.53-.12.24-.04.37.24.41zM138.08 45.49l-.18-.18c.01.16.1.22.18.18zM160 54.33a2.4 2.4 0 0 1-.18.47q.96 0 .18-.47zM153.65 5.81q.18.18.41-.15a1 1 0 0 0 .24-.5.94.94 0 0 0-.5.27c-.22.17-.27.3-.15.38zM154 6.69a.9.9 0 0 0 .24-.53c-.43.43-.65.73-.65.88a1 1 0 0 0 .41-.35zM176.29 5.81q.18.18.41-.15a1 1 0 0 0 .24-.5.94.94 0 0 0-.5.27c-.22.17-.27.3-.15.38zM138 44.81c-.08-.06-.14 0-.18 0a.53.53 0 0 1 .06.24q.12.24.47.06a2.14 2.14 0 0 1-.12-.29.21.21 0 0 1-.23-.01zM109.37 48q.29.06.35 0l-.24-.18zM111.73 44.37h.48a.32.32 0 0 0-.35-.24c-.09.06-.13.12-.13.24z"/><path class="cls-1" d="M109.72 45.25q.18 0 .53.35a1.09 1.09 0 0 0 .06-.59.36.36 0 0 0-.09-.18.39.39 0 0 1-.09-.24q.47.35.47.53a2.13 2.13 0 0 1 .47-.53.28.28 0 0 1 0 .41.57.57 0 0 1-.41.18q.41.88.56.91t.27-.27a1.77 1.77 0 0 0-.41-.06 2 2 0 0 1 .71-.35.47.47 0 0 1 .29-.06.46.46 0 0 0 .32-.09.28.28 0 0 0 .09-.21A1.44 1.44 0 0 1 112 45a2.26 2.26 0 0 0 .47-.18 1.9 1.9 0 0 0-1-.29.69.69 0 0 1 .12-.18l.12-.12.12-.12.12-.12s0-.12-.12-.24a.17.17 0 0 1-.06-.12q.41-.24-.06-.53a.57.57 0 0 0-.27-.12.43.43 0 0 0-.24.12.45.45 0 0 1-.21.12c0-.08-.08-.18-.24-.29a.51.51 0 0 1-.24-.41 1.12 1.12 0 0 1 .27-.65 4.05 4.05 0 0 0 .32-.47.27.27 0 0 1-.29-.18 2.89 2.89 0 0 1-.44.27q-.09 0-.38-.21s-.06 0-.06-.12-.06-.14-.18-.18-.09.06-.15.18l-.09.18-.06.06a.1.1 0 0 0 0 .12 1 1 0 0 1 .06.21 1.32 1.32 0 0 1 0 .21l-.09.18-.06.12-.09.18q-.18.41.24.41a.41.41 0 0 0 .27-.15c.1-.1.19-.13.27-.09a3.6 3.6 0 0 0 .12.83v.29c.2 0 .27 0 .24.24a.7.7 0 0 1-.47-.47 1.18 1.18 0 0 0-.32.24s0 .13.06.27.11.27.15.38a1.15 1.15 0 0 1 0 .35h-.21a.72.72 0 0 0-.24-.09.47.47 0 0 0-.29.06.38.38 0 0 0-.12.47.21.21 0 0 0 .21.12.6.6 0 0 1 .27.06 1.41 1.41 0 0 0 .12.53q.18-.12.06-.35c-.08-.16-.1-.26-.06-.29.08-.24.22-.27.41-.12a.17.17 0 0 1-.06.12zM112.47 46.22a.36.36 0 0 0 .09.15.72.72 0 0 0-.62-.12 1.55 1.55 0 0 1-.62 0q.35.77.77.59s.08 0 .12-.12.09-.12.15-.12a.49.49 0 0 1 .21.06c.12 0 .2 0 .24-.18l.15.15.15.15h-.36a.92.92 0 0 0-.12.15c0 .06-.12.07-.24 0a.34.34 0 0 0 .06.24.28.28 0 0 0 .21.06.51.51 0 0 1 .21 0 .25.25 0 0 0 .12 0q.35.06.24.35a.58.58 0 0 1 .29 0s.08.11.12.27l.35-.18-.32-.18-.32-.18c.27-.12.33-.18.18-.18-.32-.08-.47-.16-.47-.24s.16-.09.35 0 .33.05.41 0a1.41 1.41 0 0 0-.35-.24 1.36 1.36 0 0 1-.29-.18v-.35a1.42 1.42 0 0 0-.71-.12.46.46 0 0 0 0 .22zM128.33 31a1.22 1.22 0 0 0 .15.35c.08.14.16.21.24.21h.35l-.26-.27s0-.11.09-.27c-.08 0-.19-.06-.32-.29s-.26-.31-.38-.24a.44.44 0 0 0 .06.18 2.94 2.94 0 0 1 .07.33zM116.5 49.29a.45.45 0 0 0-.24 0h-.24a1.07 1.07 0 0 1-.44-.24c-.14-.12-.25-.16-.33-.12a.9.9 0 0 1 .12-.35.39.39 0 0 0-.24.09c-.08.06-.14.08-.18.06a.3.3 0 0 1-.12-.15q.65-.06 0-.29a.24.24 0 0 1-.18-.06.62.62 0 0 1-.24.53.44.44 0 0 1-.18-.06 1.09 1.09 0 0 0-.29-.09h-.24c0 .08 0 .15.15.21a.9.9 0 0 0 .29.09h.21l.24.09a.1.1 0 0 0 0 .12.09.09 0 0 0 .09.06q.18.06.12-.18a.65.65 0 0 0 .29.06h.29a1.05 1.05 0 0 1 .15.24.28.28 0 0 0 .27.18q-.3.24.12.41a1.14 1.14 0 0 1 .77-.41.71.71 0 0 0-.19-.19zM126.88 29.27a1.82 1.82 0 0 0 .88.65 1 1 0 0 0-.18-.59.16.16 0 0 1-.24-.12c0-.16-.12-.18-.24-.06a1.48 1.48 0 0 1-.71-.83q-.35.06-.18.24zM113.88 52.3a4 4 0 0 0-.5-.29c-.2-.1-.29-.17-.29-.21l-.12-.09a.09.09 0 0 1-.06-.09.19.19 0 0 1 0-.21.2.2 0 0 0 0-.21q-.12-.12-.44 0c-.22.06-.34 0-.38-.15a1 1 0 0 0 .24.06.94.94 0 0 0-.35-.47 1 1 0 0 1-.35-.41.66.66 0 0 0 .41.15.53.53 0 0 1 .41.21v.18a.73.73 0 0 0 .35.18.46.46 0 0 0 .41-.18h-.32a.36.36 0 0 1-.21-.09c-.08-.06-.06-.17.06-.33q-.41-.06-1.3-1.12a.24.24 0 0 1-.18.06q-.35.12-.06.41-.65.12-.71.24a1.46 1.46 0 0 1 .29.18 1.84 1.84 0 0 1 0 .24.46.46 0 0 1-.09.24 2.49 2.49 0 0 0 .41.06.39.39 0 0 1 .09.15c0 .06 0 .09.09.09a.54.54 0 0 0 .27-.09.52.52 0 0 1 .27-.09.49.49 0 0 0-.18.32.36.36 0 0 0 .12.26 2 2 0 0 0 .24.21 1.53 1.53 0 0 0 .32.18l.29.15a2.57 2.57 0 0 1 .29.27 1 1 0 0 0 .38.27 1.07 1.07 0 0 0 .24.09l.26.06h.27s-.05-.13-.17-.23zM110.25 48.55q-.47.06-.18.29c.2.2.37.18.53-.06a2.59 2.59 0 0 0-.35-.23zM156.57 50.09q-.15-.41-.21-.53t-.12-.62c0-.26-.08-.46-.12-.62a2.07 2.07 0 0 0-.29-.59 2.54 2.54 0 0 1-.29-.53.29.29 0 0 1 .06-.15.11.11 0 0 0 0-.15 2.61 2.61 0 0 0-.35-.83q-.71-1.36-1.36-2.42a1.05 1.05 0 0 0-.12-.29 1.39 1.39 0 0 0-.24-.35.34.34 0 0 0-.24-.12.8.8 0 0 0-.44.38 1.06 1.06 0 0 0-.21.5l.18.35a1.16 1.16 0 0 1-.12.27 1 1 0 0 1-.12.15q-.24.53-.41 1.06a2.56 2.56 0 0 0-.09.56 2.62 2.62 0 0 1-.09.56 3.9 3.9 0 0 0-.18.5c-.08.26-.14.46-.18.62q-.18.94-.29 2t-.18 1.8q-.06.74-.09 2.06t0 1.8v8.82a11.53 11.53 0 0 0 0 1.68 11.74 11.74 0 0 0 .12 1.47.53.53 0 0 0 .09.27.51.51 0 0 1 .09.21 2.47 2.47 0 0 1 0 .32 2.31 2.31 0 0 0 0 .32 3.85 3.85 0 0 0 .09.74 3.93 3.93 0 0 1 .09.74 2.3 2.3 0 0 0 0 .5 2 2 0 0 1 .06.24.45.45 0 0 0 .12.24.28.28 0 0 0 .21.09.66.66 0 0 0 .06-.29v-.25a.45.45 0 0 1 .06-.18 1.68 1.68 0 0 1 .12-.21.52.52 0 0 1 .15-.15l.21-.12a2.26 2.26 0 0 1 .71-.18 3.94 3.94 0 0 0 .65-.12l.53-.71a.31.31 0 0 0 0-.26.23.23 0 0 1 .06-.27.61.61 0 0 1 .21-.12c.1 0 .15-.08.15-.12a1.28 1.28 0 0 0 .38-.5 3.57 3.57 0 0 0 .24-.8 5.49 5.49 0 0 1 .15-.65.4.4 0 0 1-.18.09c-.08 0-.12 0-.12.09a1.17 1.17 0 0 1 .18-.82 2 2 0 0 0 .53-.89s.18-1 .53-3q.06-.3.24-1.33t.2-1.45a10.8 10.8 0 0 0 .15-1.24q.06-.8.12-1.44a29.39 29.39 0 0 0-.47-5.48c-.07-.16-.13-.38-.23-.65zM154 68.89q-.35-.41-.35-.56c0-.1.14-.27.41-.5a1.45 1.45 0 0 1-.06 1.06zM185.31 41.83a2.6 2.6 0 0 0-1.18.12 3.3 3.3 0 0 0 1.18-.12zM175.76 70.6a1.31 1.31 0 0 0 .06.27 1.31 1.31 0 0 1 .06.32s-.08 0-.12.12-.15.15-.09.21.16 0 .29-.09a4.22 4.22 0 0 0 .41-.41c.14-.16.23-.24.27-.24a.41.41 0 0 0-.41-.15 1.17 1.17 0 0 1-.47-.03zM179.21 50.09q-.15-.41-.21-.53t-.12-.62c0-.26-.08-.46-.12-.62a2.07 2.07 0 0 0-.29-.59 2.55 2.55 0 0 1-.29-.53.29.29 0 0 1 .06-.15.11.11 0 0 0 0-.15 2.61 2.61 0 0 0-.35-.83q-.71-1.36-1.36-2.42a1.05 1.05 0 0 0-.12-.29 1.39 1.39 0 0 0-.24-.35.34.34 0 0 0-.24-.12.8.8 0 0 0-.44.38 1.06 1.06 0 0 0-.21.5l.18.35a1.16 1.16 0 0 1-.12.27 1 1 0 0 1-.12.15q-.24.53-.41 1.06a2.56 2.56 0 0 0-.09.56 2.61 2.61 0 0 1-.09.56 3.9 3.9 0 0 0-.18.5c-.08.26-.14.46-.18.62q-.18.94-.29 2t-.18 1.8q-.06.74-.09 2.06t0 1.8v8.82a11.52 11.52 0 0 0 0 1.68 11.75 11.75 0 0 0 .12 1.47.53.53 0 0 0 .09.27.51.51 0 0 1 .08.26 2.48 2.48 0 0 1 0 .32 2.3 2.3 0 0 0 0 .32 3.86 3.86 0 0 0 .09.74 3.93 3.93 0 0 1 .09.74 2.3 2.3 0 0 0 0 .5 2 2 0 0 1 .06.24.45.45 0 0 0 .12.24.28.28 0 0 0 .21.09.66.66 0 0 0 .06-.29v-.3a.44.44 0 0 1 .06-.18 1.69 1.69 0 0 1 .12-.21.52.52 0 0 1 .15-.15l.21-.12a2.26 2.26 0 0 1 .71-.18 3.94 3.94 0 0 0 .65-.12L177 69a.31.31 0 0 0 0-.26.23.23 0 0 1 .06-.27.61.61 0 0 1 .21-.12c.1 0 .15-.08.15-.12a1.28 1.28 0 0 0 .38-.5 3.56 3.56 0 0 0 .24-.8 5.49 5.49 0 0 1 .15-.65.4.4 0 0 1-.18.09c-.08 0-.12 0-.12.09a1.17 1.17 0 0 1 .18-.82 2 2 0 0 0 .53-.89s.18-1 .53-3q.06-.3.24-1.33t.27-1.47a10.78 10.78 0 0 0 .15-1.24q.06-.8.12-1.44a29.39 29.39 0 0 0-.47-5.48c-.07-.21-.13-.43-.23-.7zm-2.56 18.81q-.35-.41-.35-.56c0-.1.14-.27.41-.5a1.45 1.45 0 0 1-.07 1.05zM174.93 72.64a.38.38 0 0 0 .47-.21l-.83-.18a.47.47 0 0 0 .36.39zM175.17 71.55a.33.33 0 0 0-.12-.15s-.12 0-.24.15l-.24.24a.66.66 0 0 0-.12.18q.06.24.59-.18c.13-.09.17-.16.13-.24zM176.11 21.43a35.66 35.66 0 0 0 1.18-5 3.74 3.74 0 0 1 .06-.59 3.78 3.78 0 0 1 .12-.59 1.58 1.58 0 0 1 .12-.5 1.62 1.62 0 0 0 .12-.5v-.45a3.91 3.91 0 0 1 0-.5 1.65 1.65 0 0 1 .12-.44.65.65 0 0 1 .32-.32c-.16-.12-.22-.22-.18-.29v-.18a2.53 2.53 0 0 1 .18-.59 1 1 0 0 1 .15-.38l.21-.38a1.88 1.88 0 0 0-.24-.65q-.59 1.53-.65 1.71a3.1 3.1 0 0 0-.15.38 3.3 3.3 0 0 1-.15.38 1.77 1.77 0 0 0 0 .29.49.49 0 0 1 0 .29 1.09 1.09 0 0 1-.21.56 1.09 1.09 0 0 0-.21.56q-.06 1-.12 1.47l-.18.56a2.13 2.13 0 0 0-.12.56q-.06.3-.18 1.59a4.4 4.4 0 0 0-.06.83V20s-.06.29-.18.74-.06.69.05.69zM260 16s.06.07.18.15.18.14.18.18a1.9 1.9 0 0 1 .21-.41.79.79 0 0 0 .15-.35q-.53-.24-.71 0a.23.23 0 0 0-.06.27.84.84 0 0 1 .05.16zM254.68 28.06q-.44.09-.5.32l.71.24a1.05 1.05 0 0 1 .21-.27 1.09 1.09 0 0 0 .21-.27.87.87 0 0 0-.63-.02zM255.24 35.23a.34.34 0 0 0 .29-.21 6.47 6.47 0 0 0 .35-.91 1 1 0 0 0-.26.09l-.35.15a.37.37 0 0 0-.21.18v.35c0 .23.06.35.18.35zM251.94 32.34a.74.74 0 0 0-.29.18l-.06.06a.27.27 0 0 0-.06.29l.12.24a2.11 2.11 0 0 1 .29-.21 2 2 0 0 0 .32-.24 1.91 1.91 0 0 0 .21-.27 1.49 1.49 0 0 0 .18-.35l-.32.15zM158 56a1.14 1.14 0 0 0 0 1 1.14 1.14 0 0 0 0-1zM152.29 72.64a.38.38 0 0 0 .47-.21l-.83-.18a.47.47 0 0 0 .36.39zM152.53 71.55a.33.33 0 0 0-.12-.15s-.12 0-.24.15l-.24.24a.66.66 0 0 0-.12.18q.06.24.59-.18c.13-.09.17-.16.13-.24zM153.47 21.43a35.67 35.67 0 0 0 1.18-5 3.74 3.74 0 0 1 .06-.59 3.79 3.79 0 0 1 .12-.59 1.58 1.58 0 0 1 .12-.5 1.62 1.62 0 0 0 .12-.5v-.45a3.93 3.93 0 0 1 0-.5 1.66 1.66 0 0 1 .12-.44.65.65 0 0 1 .32-.32c-.16-.12-.22-.22-.18-.29v-.18a2.53 2.53 0 0 1 .18-.59 1 1 0 0 1 .15-.38l.21-.38a1.87 1.87 0 0 0-.24-.65q-.59 1.53-.65 1.71a3.1 3.1 0 0 0-.15.38 3.3 3.3 0 0 1-.15.38 1.78 1.78 0 0 0 0 .29.49.49 0 0 1 0 .29 1.09 1.09 0 0 1-.21.56 1.09 1.09 0 0 0-.21.56q-.06 1-.12 1.47l-.18.56a2.12 2.12 0 0 0-.12.56q-.06.3-.18 1.59a4.4 4.4 0 0 0-.06.83V20s-.06.29-.18.74-.07.69.05.69zM180.59 56a1.14 1.14 0 0 0 .06 1.06 1.14 1.14 0 0 0-.06-1.06zM153.12 70.6a1.31 1.31 0 0 0 .06.27 1.3 1.3 0 0 1 .06.32s-.08 0-.12.12-.15.15-.09.21.16 0 .29-.09a4.23 4.23 0 0 0 .41-.41c.14-.16.23-.24.27-.24a.41.41 0 0 0-.41-.15 1.17 1.17 0 0 1-.47-.03zM182.66 54.33a2.4 2.4 0 0 1-.18.47q.94 0 .18-.47zM97.81 31.93a4.56 4.56 0 0 0-.44.77c-.06.16-.17.51-.32 1.06s-.47 1.73-.83 3.42L96 38q-.15.59-.21.94a6.78 6.78 0 0 1-.18.68 3.79 3.79 0 0 0-.18.85q0 .59.35.18l.06-.47q.12-.35.29-1t.29-1a2.32 2.32 0 0 0 .24-.65 1.44 1.44 0 0 1 .24-.59q.06-.23.53-1.42.35-1 .47-1.3c.16-.51.16-.77 0-.77q.18-.59.35-1.36a1 1 0 0 0 .15-.29l.15-.41q.06-.18 0-.24a1.83 1.83 0 0 0-.74.78zM289.73 30.16a1.38 1.38 0 0 0 .24-.35 1 1 0 0 0-.29-.71 1.14 1.14 0 0 0 .05 1.06zM162.67 41.83a2.6 2.6 0 0 0-1.18.12 3.3 3.3 0 0 0 1.18-.12zM182.13 52.56c-.12-.55-.22-.85-.29-.88s-.16.08-.24.24a.5.5 0 0 0 .12.71c.11.11.28.09.41-.07zM66.8 51a.45.45 0 0 0-.09.24.3.3 0 0 1-.15.24h-.18c-.12 0-.18 0-.18.12a1 1 0 0 1 .06.24.69.69 0 0 0 .29-.09.72.72 0 0 1 .24-.09.23.23 0 0 0 .18-.24.48.48 0 0 0 0-.29C67 51 66.92 51 66.8 51zM68 50.14c0 .08.12.18.35.29.02-.23-.1-.32-.35-.29zM66.45 52.62c.27.2.39.18.35-.06-.08-.08-.14-.11-.18-.09a.87.87 0 0 0-.17.15zM66.39 52.15a.24.24 0 0 1-.12-.29 7.7 7.7 0 0 0-.94.41 1.48 1.48 0 0 0 1.06-.12zM69.66 47.9q0-.24-.27 0t-.09.27a.29.29 0 0 0 .27.15.59.59 0 0 0 .09-.42zM68.75 51.38a.27.27 0 0 0 0-.27.36.36 0 0 0-.21-.18.25.25 0 0 0-.24.09.49.49 0 0 0 .27.21c.11.06.18.11.18.15zM69.34 52.15c.12.12.22.14.29.06a.67.67 0 0 1-.24-.47q-.29.06-.05.41zM69.69 51a.86.86 0 0 0-.53-.06 3.18 3.18 0 0 0 .21.32h.21a.24.24 0 0 1 .12.24q.52-.23-.01-.5z"/><path class="cls-1" d="M69.39 51.56c0 .08.08.12.12.12a.32.32 0 0 0-.35-.24 1 1 0 0 0-.53.29.35.35 0 0 0 .29.18s.1 0 .18-.12.14-.12.18-.12.04-.07.11-.11zM68.22 48.73s-.1-.12-.29-.24c.07.28.13.36.29.24zM45.69 8.4a1 1 0 0 0-.06.32.31.31 0 0 1 0 .18l-.23.1a.84.84 0 0 0 .59.29 1.41 1.41 0 0 0 .82-.29l.12-.15a.44.44 0 0 1 .18-.15h.24a.45.45 0 0 0 .24-.09s.06 0 .06-.12v-.15a.9.9 0 0 0 .27-.24.91.91 0 0 1 .27-.24 1.28 1.28 0 0 1-.32-.12l-.41-.21a.47.47 0 0 1-.21-.27 1.86 1.86 0 0 0-.18.41 1.86 1.86 0 0 0 .18.41 1.85 1.85 0 0 1-.56-.08.77.77 0 0 0-.59 0 .55.55 0 0 0-.41.4zM66.39 49.56a.51.51 0 0 0 .35.18c-.08-.2-.2-.26-.35-.18zM48.11 6.19l.29.15a.92.92 0 0 1-.06-.53.67.67 0 0 1 .35-.24q-.24-.47-.65-.29t-.17.72a1 1 0 0 0 .24.19zM50.29 5.86a1 1 0 0 0 .47-.18q-.18-.24-.88-.18c.12.25.29.36.41.36zM45 7.69a.61.61 0 0 1 .24-.12 1.34 1.34 0 0 0 .53-.24s.07 0 .09-.15a.44.44 0 0 1 .21-.27q-.24-.29-.71.12l-.21.24a.91.91 0 0 1-.27.24.4.4 0 0 1-.21.09.41.41 0 0 0-.21.09l.24.18zM45.16 67.39a1.37 1.37 0 0 0 0 .62 4.52 4.52 0 0 1 .09.47 1 1 0 0 0 .41-.56.44.44 0 0 0-.18-.56q-.26-.18-.32.03zM136.55 49.5q.06-.12 0-.12a.2.2 0 0 0-.11 0 .11.11 0 0 0 .11.12zM41.45 11.82c0-.12.1-.1.18.06q.06-.35.56-.5t.56-.32q-.35-.29-.94.12-.77.59-.53 1 .11-.06.17-.36zM43.51 70a.62.62 0 0 0 .06.77 1.63 1.63 0 0 0 .59-.77q-.47-.28-.65 0zM76.12 47.55l.24.18c.08 0 .08-.08 0-.12a.54.54 0 0 0-.24-.06zM77.71 34.23a17.65 17.65 0 0 0-1.77 1.65q-.65.59-.65.29a3.21 3.21 0 0 1 .47-.5 2.25 2.25 0 0 0 .41-.44q-.53-.12-1.53 1L73.23 38a5.3 5.3 0 0 0-.59.77q-.35.53-.53.77a.69.69 0 0 1-.12.18.37.37 0 0 0-.09.18.79.79 0 0 0 0 .18c-.08.16-.19.34-.32.56s-.23.36-.27.44a19.52 19.52 0 0 0-1.71 3.77 2.07 2.07 0 0 1-.09.35.33.33 0 0 1-.12.12l-.15.12s0 .18.06.41a.92.92 0 0 1 0 .47.71.71 0 0 1-.09.24.72.72 0 0 0-.09.24.46.46 0 0 0 0 .15.51.51 0 0 1 0 .15.19.19 0 0 1-.12.18c0 .08 0 .16.12.24a1.14 1.14 0 0 0 .94.24 1.33 1.33 0 0 0 .5-.15 1.35 1.35 0 0 1 .5-.15h.3a.24.24 0 0 0 .18-.06l.15-.15.15-.15a1 1 0 0 1 .83 0 .5.5 0 0 1 .12-.32 1.05 1.05 0 0 1 .35-.27 3.33 3.33 0 0 1 .41-.18l.47-.15.35-.09a.72.72 0 0 0-.18-.12 3.27 3.27 0 0 1 .38-.27 2.94 2.94 0 0 0 .41-.29 3.41 3.41 0 0 1 .38-.29 3.3 3.3 0 0 0 .41-.32l.32-.32a2.64 2.64 0 0 0 .32-.38l.24-.38a1.75 1.75 0 0 0 .18-.44l.12-.47v-.5-.62a6.2 6.2 0 0 0 .24-1.12q.12-1.59.24-2.42a11.08 11.08 0 0 1 .22-1.15q.12-.88.18-1.36a2.83 2.83 0 0 1 .09-.56q.09-.38.15-.56.11-.59-.36-.29zM72 50.14a.3.3 0 0 0-.15-.06h-.75a2.94 2.94 0 0 0-1.24.83q.77.18.94 0a.34.34 0 0 0 .12-.24.24.24 0 0 0 .18.06.38.38 0 0 0 .24-.35q.77 0 .88-.29a.19.19 0 0 1-.22.05zM87.7 47.52a.62.62 0 0 0 .09-.32l-.35.35c.11.08.2.07.26-.03zM87.61 47.85q.29.24.41-.12a.69.69 0 0 0-.21.06.67.67 0 0 1-.2.06zM87 48.14q.18.24.59-.18a1.39 1.39 0 0 0-.59.18zM88.86 46.43v.05zM88.62 46.49l-.29.12c.11.08.21.04.29-.12zM88.76 47.23v-.28a1 1 0 0 0-.32.38.53.53 0 0 0 .32-.1zM88.71 48.08v-.15c-.02.07-.02.14 0 .15zM87.5 50.79a1 1 0 0 0 .24-.06c-.05-.11-.13-.09-.24.06zM74 49.61s0 .12.18.24c.08-.12.11-.2.09-.24s-.12-.03-.27 0zM73.76 48.41h-.24l-.06.06h.12q.41.06.35 0s-.05-.04-.17-.06zM70.4 48a.17.17 0 0 0-.12-.24c-.12 0-.17.08-.15.12a2.06 2.06 0 0 1 .09.29q.12.03.18-.17zM74.58 48.38c-.12-.08-.26 0-.41.29a.23.23 0 0 0 .35-.12.46.46 0 0 0 .06-.17zM75.23 48.05a.86.86 0 0 0-.06.32.25.25 0 0 0 .21-.15c.06-.1.07-.17 0-.21s-.11-.01-.15.04zM75.82 48.14a.26.26 0 0 0 .06-.35c-.16.11-.18.21-.06.35zM88.2 47.61l.35-.12c-.07-.16-.19-.12-.35.12zM74.64 48.38a.77.77 0 0 0 0 .18.83.83 0 0 1 0 .18c.27-.12.41-.2.41-.24s-.05-.12-.41-.12zM74.67 49.08a.64.64 0 0 0-.27.24.62.62 0 0 0 .53 0v-.18c0-.08-.12-.14-.26-.06zM347.69 48.38a.77.77 0 0 0 0 .18.89.89 0 0 1 0 .18c.27-.12.41-.2.41-.24s-.1-.12-.41-.12zM342.44 51.56c0 .08.08.12.12.12a.32.32 0 0 0-.35-.24 1 1 0 0 0-.53.29.35.35 0 0 0 .29.18s.1 0 .18-.12.14-.12.18-.12.03-.07.11-.11zM341.79 51.38a.27.27 0 0 0 0-.27.36.36 0 0 0-.21-.18.25.25 0 0 0-.24.09.49.49 0 0 0 .26.21c.12.06.19.11.19.15z"/><path class="cls-1" d="M342.38 52.15c.12.12.22.14.29.06a.67.67 0 0 1-.24-.47q-.28.06-.05.41zM342.74 51a.86.86 0 0 0-.53-.06 3.09 3.09 0 0 0 .21.32h.21a.24.24 0 0 1 .12.24q.52-.23-.01-.5zM341 50.14c0 .08.12.18.35.29.07-.23-.05-.32-.35-.29zM341.26 48.73s-.1-.12-.29-.24c.03.28.13.36.29.24zM343.44 48a.17.17 0 0 0-.12-.24c-.12 0-.17.08-.15.12a1.93 1.93 0 0 1 .09.29c.08.03.14-.03.18-.17zM342.62 48.32a.59.59 0 0 0 .09-.41q0-.24-.27 0t-.09.27a.29.29 0 0 0 .27.14zM347 49.61s0 .12.18.24c.08-.12.11-.2.09-.24s-.07-.03-.27 0zM346.8 48.41h-.24l-.06.06h.12q.41.06.35 0s-.05-.04-.17-.06zM345.06 50.14a.29.29 0 0 0-.15-.06h-.77a2.94 2.94 0 0 0-1.24.83c.51.12.83.12.94 0a.34.34 0 0 0 .12-.24.24.24 0 0 0 .18.06.38.38 0 0 0 .24-.35q.77 0 .88-.29a.19.19 0 0 1-.2.05zM339.85 51a.45.45 0 0 0-.09.24.3.3 0 0 1-.15.24h-.18c-.12 0-.18 0-.18.12a1 1 0 0 1 .06.24.7.7 0 0 0 .29-.09.72.72 0 0 1 .24-.09.23.23 0 0 0 .18-.24.48.48 0 0 0 0-.29C340 51 340 51 339.85 51zM325.7 45.37l.06-.12a4 4 0 0 0 .12-.47.25.25 0 0 0 0-.24.41.41 0 0 0-.18 0 1.4 1.4 0 0 0-.24.21h-.12a.07.07 0 0 0-.12 0q-.18.06 0 .35a.46.46 0 0 0-.18.06v.12h.29zM347.63 48.38c-.12-.08-.26 0-.41.29a.26.26 0 0 0 .21 0 .27.27 0 0 0 .15-.15.46.46 0 0 0 .05-.14zM326.23 45.66c0-.16-.08-.35-.12-.59q-.36.36.12.59zM325.46 44a.17.17 0 0 0 .06-.12l-.06-.06a.05.05 0 0 0-.06-.06l-.06.12s.04.12.12.12zM325.49 45.6v.06c0 .06.08.06.12.18l.18-.06-.18-.18zM324.52 47.37q-.24.12-.06.35a.72.72 0 0 0 .18.29l.12-.47a.19.19 0 0 0-.06-.24s-.11 0-.18.07zM324.75 43.84h-.18l.24-.12a.57.57 0 0 0 .12-.29c0-.08-.08-.14-.24-.18s-.14.06-.18.18 0 .28-.06.59h.53c.02-.02-.07-.14-.23-.18zM325.75 48a1.25 1.25 0 0 1 0 .21 1.31 1.31 0 0 0 0 .27q.25-.4 0-.48zM339.43 52.15a.24.24 0 0 1-.12-.29 7.64 7.64 0 0 0-.94.41 1.48 1.48 0 0 0 1.06-.12zM339.49 52.62c.27.2.39.18.35-.06-.08-.08-.14-.11-.18-.09a.87.87 0 0 0-.17.15zM339.43 49.56a.51.51 0 0 0 .35.18q-.11-.3-.35-.18zM326.23 47.67h-.06a2.81 2.81 0 0 0-.17.33h.36s-.07 0-.09-.09a.46.46 0 0 1-.04-.24zM328.17 50.73l.29-.18c-.19-.03-.29.03-.29.18zM348.28 48.05a.86.86 0 0 0-.06.32.25.25 0 0 0 .21-.15c.06-.1.07-.17 0-.21s-.11-.01-.15.04zM362 46.61c.06 0 .09-.08.09-.12a.17.17 0 0 1-.12-.06h-.12a1.71 1.71 0 0 0 .06.29s.09-.07.09-.11zM361.81 47.23c.1-.06.17 0 .21.09.08-.16.1-.26.06-.29a.17.17 0 0 0 .12-.06c-.08-.12-.19-.13-.32 0a1 1 0 0 0-.32.38.53.53 0 0 0 .25-.12zM362.49 46.55c0-.12-.1-.12-.18 0s-.08.12 0 .24c0-.04.06-.12.18-.24zM363.34 45.58a.28.28 0 0 0 .21.09c0-.08-.06-.16-.18-.24s-.09.09-.03.15zM361.66 46.49l-.29.12c.11.08.21.04.29-.12zM363.14 45.9c-.12-.08-.2 0-.24.09a.45.45 0 0 0 0 .32c.24-.23.31-.37.24-.41z"/><path class="cls-1" d="M6.67 0L0 82.77 377 74l-6.33-72.33zm315.78 18.72a4.14 4.14 0 0 1 1.36-2.54 7.76 7.76 0 0 1 2.77-1.65 3.16 3.16 0 0 1 1.71-.12 2.87 2.87 0 0 1 .65.29 3.82 3.82 0 0 1 .47.29.93.93 0 0 1 .47.35.44.44 0 0 0 .12.21.46.46 0 0 1 .12.21.87.87 0 0 1-.18.59c-.24.35-.32.63-.24.83l.29.59a3.05 3.05 0 0 1 .29.83 3.32 3.32 0 0 1-.29 2.18.2.2 0 0 1-.15.06.17.17 0 0 0-.12 0s0 .06.06.12a.24.24 0 0 1 .09.15.4.4 0 0 1-.53.24q.41-.24.12-.35h-.35a.31.31 0 0 0-.26.27.5.5 0 0 1-.44.41 1.07 1.07 0 0 0-.29.09.9.9 0 0 0-.27.24.91.91 0 0 1-.26.24 1.21 1.21 0 0 1-.47.24.05.05 0 0 1-.06.06q-.18.06-.24 0a1 1 0 0 0-.12-.15 1 1 0 0 0-1-.18 3.6 3.6 0 0 1-.56.12 3.82 3.82 0 0 0-.56.12 4.08 4.08 0 0 0-.41.27.56.56 0 0 1-.53.12q-.24-.09-.77-1.21a4.83 4.83 0 0 1-.42-2.92zm-2.95-9.38l-.06.06h-.12zm-58.31 2.89l.47.41a1.17 1.17 0 0 0-.77.59.72.72 0 0 0-.18-.12l-.18-.18zm-203 30.16a1 1 0 0 0-.09.27 2.48 2.48 0 0 0 .06.47 1.52 1.52 0 0 1 0 .59 19.62 19.62 0 0 1-.47 2.12q-1 4-1.12 4.36c0 .12-.1.34-.18.68a6 6 0 0 1-.24.8 8.68 8.68 0 0 0-.77 1.95 2.42 2.42 0 0 1-.35.88s-.06.39-.18 1.06c-.08.27-.18.65-.29 1.12a8.81 8.81 0 0 1-.29 1 8.6 8.6 0 0 1-.59 1.95 12.66 12.66 0 0 0-.94 2.18v.35a1.34 1.34 0 0 1-.09.41 1 1 0 0 1-.15.44 2.65 2.65 0 0 0-.21.44 3.06 3.06 0 0 1-.24.59 2.39 2.39 0 0 1-.24.41l-.21.62a5.57 5.57 0 0 1-.27.68q-.47.77-.53.83a1.19 1.19 0 0 1-.15.32l-.21.38c0 .12-.11.28-.21.5s-.18.37-.24.47a3.74 3.74 0 0 0-.24.53q-.15.38-.21.56-.77 1.42-1.95 4.28t-1.84 4.17a24.53 24.53 0 0 1-2.36 4.13c-.39.47-.65.69-.77.65a.36.36 0 0 1-.24-.44 1.3 1.3 0 0 1 .24-.56 1.49 1.49 0 0 1 .32-.35 1 1 0 0 0 .32-.47s.09-.06.15-.18a2.39 2.39 0 0 0 .12-.27.36.36 0 0 0 0-.24.68.68 0 0 1-.06-.21.57.57 0 0 1 .18-.41c.12-.12.2-.18.24-.18q.12-.29-.06-.35a.65.65 0 0 1-.24-.12 1 1 0 0 1 .09-.27c.06-.14.13-.29.21-.44a1 1 0 0 0 .11-.29 4.14 4.14 0 0 0 .09-.65 3.88 3.88 0 0 1 .09-.65 2.25 2.25 0 0 0 .06-.83.05.05 0 0 0 .06-.06c.08-.12 0-.22-.12-.29s-.24-.24-.12-.35l.12-.12a5 5 0 0 1 .06-.53 6.41 6.41 0 0 1 .12-.65 1.71 1.71 0 0 1 .09-.41 1.72 1.72 0 0 0 .09-.41 1.36 1.36 0 0 0-.12-.41q.23-.06.47-1.06a1 1 0 0 1-.06-.29.71.71 0 0 0 .12-.27 1.83 1.83 0 0 1 .12-.32 2.16 2.16 0 0 0 0-.71c.2 0 .31 0 .35-.18s0-.24-.24-.47a8.5 8.5 0 0 0-.65 1.59 3.22 3.22 0 0 1-.41 1.59.24.24 0 0 0-.06.18c-.08.16-.16.2-.24.12s-.11-.15-.09-.21a1.27 1.27 0 0 1 .12-.24.52.52 0 0 0 .09-.21.23.23 0 0 0-.24-.18c-.08 0-.14 0-.18-.12a.66.66 0 0 0 .12-.24q.06-.41-.12-.41c-.08 0-.14.08-.18.24a.63.63 0 0 0 0 .35.65.65 0 0 1 0 .35.61.61 0 0 1-.12.24.63.63 0 0 0-.12.35.44.44 0 0 0 .12.26.45.45 0 0 1 .12.21 1.63 1.63 0 0 1-.29.65 2.66 2.66 0 0 0-.29.53q-.3.94-.41 1.42-.18.06-.18-.35v-.41-1.71l.18-.35.18-.35c0-.2.09-.51.15-.94s.11-.75.15-.94a2.9 2.9 0 0 1 .15-.47 2.1 2.1 0 0 0 .15-.65 2.52 2.52 0 0 0 0-.32 2.34 2.34 0 0 1 0-.32 8.46 8.46 0 0 1 .24-.85 3.13 3.13 0 0 0 .18-.8 1.53 1.53 0 0 1 .06-.47.28.28 0 0 0 0-.41.72.72 0 0 1-.01-.27.71.71 0 0 0 .09-.24 6.74 6.74 0 0 0 .12-.8 6.25 6.25 0 0 1 .12-.8 3.23 3.23 0 0 0 .18-.62c0-.22.08-.46.12-.74a6.41 6.41 0 0 1 .12-.65q.12-.77.5-2.27t.5-1.86q.12-.47 1.06-3.36a1.07 1.07 0 0 0 .06-.77.59.59 0 0 0-.47-.47c-.12 0-.16 0-.12.24a.27.27 0 0 1-.29-.06l-.53.53q-.41.41-.53.41a.35.35 0 0 1-.35-.06.89.89 0 0 0-.12.15l-.12.15a6 6 0 0 1-.47.41 1.67 1.67 0 0 1-.41.24q.24.47.21.53a1.83 1.83 0 0 1-.32.29c-.2.16-.29.27-.29.35a.27.27 0 0 0 .09.24.44.44 0 0 1 .15.18c0 .2 0 .3-.12.32a.54.54 0 0 1-.29 0 .38.38 0 0 0-.29 0q-.18.18-.18.27a.51.51 0 0 0 .15.26.36.36 0 0 1 .09.35.79.79 0 0 0-.71-.24 1.85 1.85 0 0 1-.41.12.65.65 0 0 1-.24-.24.44.44 0 0 0-.24.15 1.59 1.59 0 0 0-.12.5 1.73 1.73 0 0 0 .06.41.44.44 0 0 0-.18.06.48.48 0 0 1-.18.06 3.27 3.27 0 0 0-.71.32 2.65 2.65 0 0 1-.83.33h-.64a3.35 3.35 0 0 0-.35.29.67.67 0 0 1-.47.06q-.18.06-.88.41-.12.12-.18.06l-.06.12v.3a.29.29 0 0 1-.35.18 3 3 0 0 0-.5.06 1.79 1.79 0 0 0-.44.12l-.8.12c-.33 0-.6.08-.8.12a1.43 1.43 0 0 1-.44.06 1.4 1.4 0 0 0-.44.06c-.2 0-.31.11-.35.21a.82.82 0 0 0 0 .44l-.77-.12a.7.7 0 0 0-.24.09c-.12.06-.2.08-.24.06l-.21-.12a.53.53 0 0 0-.21-.09c-.08 0-.13 0-.15.06a.1.1 0 0 1-.09.06h-.41a1 1 0 0 0-.62.26 1 1 0 0 1-.62.27 11.25 11.25 0 0 1-1.65-.24 13.28 13.28 0 0 0-1.59-.29 4.2 4.2 0 0 1-1.95-.35l-1.36-.71-.71-.35a3.9 3.9 0 0 0-.47-.12l-.47-.12a11.86 11.86 0 0 1-1.59-1l-.65-.48-.83-.65A9.64 9.64 0 0 1 16 56.92a5.59 5.59 0 0 0-.35-.59 1.31 1.31 0 0 1-.24-.41 1.23 1.23 0 0 0-.24-.41 6.37 6.37 0 0 1-.77-3.3 5.78 5.78 0 0 1 .46-2.21q.47-1.36.53-1.65a2.61 2.61 0 0 1 .47-1l.59-.65a2 2 0 0 1 .8.06c.37.08.56.18.56.29s0 0-.06.09-.12.11-.12.15a2.29 2.29 0 0 1 0 .27.49.49 0 0 1-.09.27.59.59 0 0 1-.12.24l-.21.32c-.06.1-.07.17 0 .21s.12 0 .24 0a.33.33 0 0 1 .29 0 .37.37 0 0 1 .18.21q.06.15.41.15a.53.53 0 0 0-.18.59q-.35-.18-.35.06a.72.72 0 0 0 .35.71.25.25 0 0 0 .24 0q-.12.06.35-.53.3-.18.18-1.12a1.43 1.43 0 0 0 .08-.97 7.47 7.47 0 0 1-.09-.8s.12-.39.35-1.06a1.69 1.69 0 0 0-.15-.83 1.57 1.57 0 0 1-.15-.77 17.39 17.39 0 0 1 .83-2.54 23.85 23.85 0 0 0 1.12-2.95 1.32 1.32 0 0 1 .83-.8 1.78 1.78 0 0 0 .88-.68c0-.12.1-.27.18-.47a1.28 1.28 0 0 1 .24-.41 3.53 3.53 0 0 0 .18-.53h.24a.29.29 0 0 1 .06-.15.29.29 0 0 0 .06-.15 3.19 3.19 0 0 0 .15-.38 1.83 1.83 0 0 1 .21-.44l.35-.5.35-.5a2.19 2.19 0 0 0 .12-.53 2.13 2.13 0 0 1 .12-.53l.24-.35.3-.18q.41-.06.53.53c0-.12 0-.19.06-.21a.21.21 0 0 1 .18 0 .29.29 0 0 0 .29-.06 1.85 1.85 0 0 1-.18-.41.46.46 0 0 1 .06-.18.21.21 0 0 0 0-.18.2.2 0 0 0-.12-.09.36.36 0 0 1-.15-.09.73.73 0 0 1 .18-.41s0-.1.15-.18a.53.53 0 0 0 .18-.21.77.77 0 0 0 0-.24v-.21a.94.94 0 0 1 .29-.38 1.3 1.3 0 0 0 .29-.32 7.76 7.76 0 0 0 .35-1.06.68.68 0 0 0 .12-.27 1.9 1.9 0 0 1 .12-.32l.23-.06q.41-.59-.06-.77a1.6 1.6 0 0 0-.88 0 2.25 2.25 0 0 1-.09.65c-.06.2-.17.24-.32.12s0-.41.41-.77a.48.48 0 0 1 .06-.27 1.38 1.38 0 0 1 .18-.21l.18-.18a6.21 6.21 0 0 0 .32-.59 2.33 2.33 0 0 1 .32-.53 1.81 1.81 0 0 1 .38-.25 1.76 1.76 0 0 0 .38-.27 2.29 2.29 0 0 0 .32-.62 3.66 3.66 0 0 0 .21-.56 1.05 1.05 0 0 0 .15-.35 1 1 0 0 1 .21-.41 2.11 2.11 0 0 0 .47-.94 1.25 1.25 0 0 1 .12-.65.68.68 0 0 1 .27-.12c.14 0 .21-.08.21-.12a2.49 2.49 0 0 0 .12-.41q.06-.12.41-.71a3.47 3.47 0 0 1 .41-.47l.41-.41q.12-.18.35-.59a2.89 2.89 0 0 1 .41-.59l.38-.38a5.83 5.83 0 0 0 .47-.53 2.32 2.32 0 0 0 .32-.56 6.51 6.51 0 0 1 1.06-1.65s.09-.15.27-.32a3.15 3.15 0 0 1 .44-.38 6.3 6.3 0 0 0 1-.71 6.28 6.28 0 0 0 .59-.8 2.67 2.67 0 0 1 .71-.8 2.67 2.67 0 0 0 .65-.53c0-.2 0-.29.06-.29a2.88 2.88 0 0 1 .59-.53q.65-.65 1.83-2L43 6.34a1.82 1.82 0 0 1 .42-.34l.58-.22a1.58 1.58 0 0 0 .44-.27s.1 0 .18-.12.14-.12.18-.12a.94.94 0 0 1 .2-.14l.34-.13a3.87 3.87 0 0 1 1-.41l.47-.06s.1 0 .18-.12.14-.12.18-.12a4.12 4.12 0 0 1 1.06-.18.53.53 0 0 1 .24.06.52.52 0 0 0 .24.06q.23 0 .27-.06a.46.46 0 0 1 .07-.17 3.44 3.44 0 0 1 1.24-.65 1.56 1.56 0 0 1 .88.24.47.47 0 0 1 .18.06.65.65 0 0 1 .24.12h.12q.18-.06.18.24a8 8 0 0 0 1.11.32.47.47 0 0 1 .18.06.45.45 0 0 0 .18.06 3.48 3.48 0 0 0 .59-.12q1-.35 1.65 1a8.29 8.29 0 0 1 .77 2.86 6.64 6.64 0 0 1 0 1.39q-.09.74-.18 1.12t-.35 1.36q-.27 1-.32 1.15-.18.59-.77 2.12a7.81 7.81 0 0 1-.41.94l-.21.59a6.19 6.19 0 0 1-.27.65l-.41.85a4.94 4.94 0 0 1-.53.91 1.25 1.25 0 0 1-.24.29 1.24 1.24 0 0 0-.24.29.57.57 0 0 0-.09.29.58.58 0 0 1-.09.29 1.54 1.54 0 0 1-.35.65q-.18.35-2.54 4.19-1.53 2.42-3 4.3a9.25 9.25 0 0 0-.8 1q-.5.68-.91 1.21a4.72 4.72 0 0 1-.88.88q-2.48 2.24-4.19 1.95a2.13 2.13 0 0 1-1.68-1.47 3.68 3.68 0 0 1 .09-2.51q.06-.23.29-1.53.06-.23.21-.71l.21-.65a6.77 6.77 0 0 0 .12-.68 3.69 3.69 0 0 1 .12-.62 13.89 13.89 0 0 1 .53-1.53 24.16 24.16 0 0 1 2.24-4.3q1.77-2.71 2.95-4.3.24-.35 1.42-1.83a11.38 11.38 0 0 0 .77-1.12 4.13 4.13 0 0 1 .41-.59l.29-.18a.5.5 0 0 0 .06-.41.65.65 0 0 0 .09-.32 1.2 1.2 0 0 1 .09-.38.74.74 0 0 1 .21-.24l.21-.18q.65-.94.47-1.24-.12-.12-.47.24a20.51 20.51 0 0 0-1.86 2.06q-1.15 1.42-1.5 1.83Q43 16 41.62 17.24l-1.71 1.47A24.32 24.32 0 0 0 38 20.55q-2.3 2.42-3.66 4.07c0 .08-.26.38-.65.91s-.71.93-.94 1.21q-.18.18-.83.74a6 6 0 0 0-.94 1 38.22 38.22 0 0 1-2.89 3.66q-.65.77-3.13 4.6a28.75 28.75 0 0 0-1.62 2.59 15.19 15.19 0 0 0-1.09 2.48q-.53 1.36-.77 1.89-.41 1.06-.71 2.06a13.63 13.63 0 0 0-.77 5.45 1.35 1.35 0 0 0 .41.77 2.68 2.68 0 0 1 .29.38 2.64 2.64 0 0 0 .29.38q.41.41 1.65 1.47a6.55 6.55 0 0 0 .88.41l.24.18a.58.58 0 0 0 .29.12.31.31 0 0 0 .27 0 .71.71 0 0 1 .27-.06l.27.15a.86.86 0 0 1 .27.27 1.73 1.73 0 0 0 .18.24l.35.15a1.23 1.23 0 0 0 .29.09 2.74 2.74 0 0 0 .94.24 6.7 6.7 0 0 1 .83.12 9 9 0 0 0 2.42.29q1.71-.06 2.24-.12a4.14 4.14 0 0 0 .88-.12.69.69 0 0 0 .21-.06.64.64 0 0 0 .21-.12h.35a.07.07 0 0 0 .12 0v-.24a4.56 4.56 0 0 1 1-.32 6.9 6.9 0 0 0 .94-.27 5.69 5.69 0 0 1 .85-.38q.68-.27 1-.44 1.12-.71 3.54-2t3.6-2l1.77-1.12a6.18 6.18 0 0 0 .8-.38 4.39 4.39 0 0 0 1-.68 2.27 2.27 0 0 0-.65-.15 3.34 3.34 0 0 0-.62 0l-.68.09a4.78 4.78 0 0 1-.59.06 1.72 1.72 0 0 0-.59.12c-.08 0-.18.07-.29.21a1.08 1.08 0 0 1-.29.27.37.37 0 0 1-.18.09h-.15a.6.6 0 0 1 0-.24s-.06-.07-.06-.09-.08 0-.24-.09a6.66 6.66 0 0 0-1.74.15 9.67 9.67 0 0 1-1.5.21h-1.51a2.83 2.83 0 0 1-1.3-.41 1.42 1.42 0 0 0 .38-.09.4.4 0 0 0 0-.21.14.14 0 0 0-.12-.15c-.08 0-.12 0-.12-.09a2.14 2.14 0 0 1-.12-.29 2.44 2.44 0 0 0-.09-.24.12.12 0 0 0-.12-.06.58.58 0 0 0-.27.12.63.63 0 0 1 0-.21.28.28 0 0 1 .2-.16.29.29 0 0 0 .12-.15l.12-.35a1.83 1.83 0 0 1 .21-.44.89.89 0 0 1 .29-.35s.09 0 .15.12.11 0 .15-.12l-.18-.47a1.25 1.25 0 0 1 .06-.65 1.91 1.91 0 0 1 .35-.56 2.75 2.75 0 0 1 .44-.41 3.48 3.48 0 0 1 .62-.32 5.7 5.7 0 0 1 .62-.24l.68-.18a1.81 1.81 0 0 0 .53-.18 5.65 5.65 0 0 0 .85-.15 4.56 4.56 0 0 0 1-.32 4.89 4.89 0 0 1 .65-.24 2.05 2.05 0 0 0 .65-.12 19.25 19.25 0 0 1 2.18-.32l1.89-.21a2.49 2.49 0 0 1 .68-.09 2.78 2.78 0 0 0 .85-.15 1.07 1.07 0 0 0 .32-.18l.38-.24a8.45 8.45 0 0 0 1.12-.65l.85-.77a5.85 5.85 0 0 1 .8-.56 1.73 1.73 0 0 1 1-.29 2.07 2.07 0 0 1 1 .38 2.57 2.57 0 0 1 .65.65 7.09 7.09 0 0 1 .24.88l.18.18a1.23 1.23 0 0 1 .09.24.36.36 0 0 0 .09.18 5.73 5.73 0 0 1 .35 1l.24.12a.89.89 0 0 1-.06.35zM43.92 73a1.15 1.15 0 0 1-.15.47 1.13 1.13 0 0 0-.15.47c-.19-.39-.09-.7.3-.94zm91.15-21.23c.24-.2.39-.27.47-.24q-.23.27-.46.21zm6.72-20q-.47 1.47-.65 2.18a4 4 0 0 0-.06.91v.91a7.14 7.14 0 0 1-.09.85c-.06.41-.11.7-.15.85a.66.66 0 0 1 .06.29v.29c-.08.08-.14.12-.18.12s0 .22 0 .41v.47a6.34 6.34 0 0 1-.71 1.95.62.62 0 0 1 .12.24 3.8 3.8 0 0 1-.06.38c0 .22-.08.32-.12.32a10.12 10.12 0 0 1-.35 1.71 21.11 21.11 0 0 1-1 2.83q-.06.18-.41 1t-.59 1.33a12.44 12.44 0 0 1-2.06 2.54c-.08-.24 0-.55.35-.94a2.37 2.37 0 0 0 .35-.29c.08-.08 0-.18-.18-.29a.17.17 0 0 0-.12-.06l.36-.34.14-.13c.27-.26.41-.46.41-.62a.38.38 0 0 1-.41-.18q.77.06.88-.47a.28.28 0 0 1 .06-.15.29.29 0 0 0 .06-.15s0-.08-.12-.12-.1-.12-.06-.24a.71.71 0 0 1-.35 0c-.12 0-.16-.11-.12-.27a.58.58 0 0 0 .26.06.29.29 0 0 1 .21.06q.18.06.35.41.18-.35.15-.44a1.17 1.17 0 0 0-.32-.32l.18-.18.18-.18a.24.24 0 0 1-.12-.29c.08-.16.13-.24.15-.24s.09.06.21.18a.18.18 0 0 1 .15-.21c.1 0 .13-.13.09-.32q.29 0 .32-.06s0-.14-.15-.29a.15.15 0 0 1 .24 0 1.79 1.79 0 0 1 .21-.62.81.81 0 0 0 .09-.68.38.38 0 0 0 .12-.59q.18-.06.32-.53a2.7 2.7 0 0 0 .15-.77q-.18 0-.68.88a8.65 8.65 0 0 0-.68 1.41.24.24 0 0 0 .29-.12q.12-.18.29.12a.4.4 0 0 0-.29.12c0 .08 0 .14-.12.18a.18.18 0 0 1 .12.06.16.16 0 0 0 .12.06.92.92 0 0 1-.18.24 1.12 1.12 0 0 1-.47.65 1.59 1.59 0 0 1-.35-.12q-.29-.12-.41.06a.4.4 0 0 0-.09.21 1 1 0 0 1-.06.21.34.34 0 0 1-.12.12.44.44 0 0 0-.15.18 16.46 16.46 0 0 1-1.77 2.54 1.79 1.79 0 0 0 .53.18.29.29 0 0 1-.06.15l-.12.15c-.24-.16-.36-.23-.38-.21s-.11.17-.26.44a.65.65 0 0 0-.12.18c-.2.2-.18.39.06.59a.85.85 0 0 0-1 .47 1.18 1.18 0 0 0-.35.41.83.83 0 0 1-.06.35s0 .09-.12.15a.73.73 0 0 0-.18.18.28.28 0 0 0-.06.15l-.53-.12c0 .12-.12.29-.35.53s-.45.32-.53.24q.06.41-1.41.83a7.72 7.72 0 0 1-2.36.35 3.7 3.7 0 0 0-1.06.06.5.5 0 0 0-.21.09.51.51 0 0 1-.21.09.94.94 0 0 1-.12-.15.28.28 0 0 1-.06-.15l-.24.12a6.42 6.42 0 0 0-.65.06l-.35.18a1.13 1.13 0 0 1-.35-.09 1.25 1.25 0 0 0-.44-.09.37.37 0 0 0-.32.18A1.3 1.3 0 0 0 123 54a.28.28 0 0 1-.15-.06.38.38 0 0 0-.21-.06.12.12 0 0 0-.06.18v.18q-.35-.47-.53-.24l.77.47q-.18.18-1.83-.94a12.88 12.88 0 0 1-1.89-1.41q-.24-.29-.83-.91l-.14-.15h-.33c0 .16 0 .24-.12.24l-.29.06-.12.12a.34.34 0 0 1-.24.06.36.36 0 0 1 .09.41.45.45 0 0 1-.32.29h-.29a1.54 1.54 0 0 1-.38-.09h-.21q.41.18.18.35a.19.19 0 0 1-.21 0 .3.3 0 0 0-.15-.06.86.86 0 0 0-.35.12.31.31 0 0 0 0 .3.39.39 0 0 1 .09.24c.08-.08.15-.06.21.06a.91.91 0 0 1 .09.41c.08-.16.15-.2.21-.12a.57.57 0 0 0 .21.18.34.34 0 0 1 .41.18 3.41 3.41 0 0 1-1.36.29 5.8 5.8 0 0 1-1.41-.53 12.79 12.79 0 0 1-1.59-.94 9.25 9.25 0 0 0-.94-.62q-.65-.38-.88-.56a18 18 0 0 1-1.95-1.59 9.77 9.77 0 0 1-2.77-4.42q-.06-.18-.53-2.42t-.18-2.48a.39.39 0 0 1-.18-.27 2.81 2.81 0 0 1-.09-.47 2.31 2.31 0 0 1 0-.53 5.11 5.11 0 0 0 0-.56v-.35a19.48 19.48 0 0 1 0-2.3q.29-1.47.35-1.95a5.66 5.66 0 0 1 .06-1.06 3.16 3.16 0 0 0 .12-1 .2.2 0 0 0-.15-.06c-.06 0-.13 0-.21.15a1.36 1.36 0 0 1-.24.24 1.63 1.63 0 0 0-.27.27l-.24.29-.32.41a23.42 23.42 0 0 0-1.42 1.95q-1.42 2.12-2.48 4.07-.59 1.12-.94 1.65a4.3 4.3 0 0 0-.47.77 2 2 0 0 1-.09.35 3.34 3.34 0 0 1-.21.53q-.12.3-.32.85a4.2 4.2 0 0 1-.32.74 4.38 4.38 0 0 1-.24.74 5.69 5.69 0 0 0-.24.68q-.35.94-1.36 3.48a5.42 5.42 0 0 0-.29 1.47 5.37 5.37 0 0 1-.35 1.89Q94.57 54 92 54.21a4.21 4.21 0 0 1-2.09-.21 2.88 2.88 0 0 1-1.47-1.3 2.86 2.86 0 0 1 0-1.65.68.68 0 0 0 .12-.18.47.47 0 0 0 .06-.18l-.11.09a21.32 21.32 0 0 1-2 1.3 3.78 3.78 0 0 1-2.24.71l-.27-.17a1 1 0 0 0-.27-.06h-.32a1.6 1.6 0 0 1-1.12-.06 3.33 3.33 0 0 1-1.65-1.06 7.36 7.36 0 0 1-1.18-2.36l-.18-.68-.18-.68a3.87 3.87 0 0 1-.24-1.3 2.74 2.74 0 0 0-1 .41c-.08.16-.14.24-.18.24l-.18.15a.36.36 0 0 1-.18.09 2.22 2.22 0 0 0-.21.24l-.18.24-.15.18-.71.53c.12.08.12.18 0 .29s-.11 0-.21 0a.74.74 0 0 0-.27-.06 5.45 5.45 0 0 0-.35.53.86.86 0 0 1-.41.29 3 3 0 0 0-.47.44 1.38 1.38 0 0 0-.29.38c-.24.2-.33.32-.29.35s.18.14.53.29q-.18.06-.83.35a4.69 4.69 0 0 0-.94.53q-.35.29-.94.85a5.74 5.74 0 0 1-.71.62.91.91 0 0 0-.65-.27 6.75 6.75 0 0 0-.8.15 1.69 1.69 0 0 1-.74.06v.94c0 .12-.19 0-.21-.06a.49.49 0 0 1 0-.21.29.29 0 0 0-.06-.21q-.06-.3-.47-.3a4.89 4.89 0 0 0-1.53.12.38.38 0 0 0 .24.18.78.78 0 0 1-.77.06 1.62 1.62 0 0 1-.24-.18.07.07 0 0 1 0-.12l.24-.18a.28.28 0 0 0-.21-.21.77.77 0 0 0-.35 0l-.27.06s0-.07.09-.09.09 0 .09-.09 0-.18-.18-.29a2.83 2.83 0 0 1-.71-.53 1.4 1.4 0 0 1-.06-.44.92.92 0 0 0-.06-.38A2 2 0 0 0 64 51a4 4 0 0 0-.27-.35.65.65 0 0 1 .59.24.47.47 0 0 0 0 .15.19.19 0 0 0 .09.12.6.6 0 0 0 .24 0 .92.92 0 0 0-.12.15.28.28 0 0 0-.06.15 3.39 3.39 0 0 0 1.18.18 5.13 5.13 0 0 0-.35-.65q-.12-.12-.77-.06c0-.16-.14-.33-.41-.53l-.29-.21a.33.33 0 0 0-.15 0 .2.2 0 0 1-.15-.06.63.63 0 0 1-.24-.27l-.18-.32a.36.36 0 0 1-.18-.09.74.74 0 0 1-.18-.18.36.36 0 0 1-.06-.21c-.12 0-.17.11-.15.21a.28.28 0 0 1-.09.27c-.12-.12-.18-.2-.18-.24a1 1 0 0 0-.06.24.44.44 0 0 1-.18-.47h-.29a2.57 2.57 0 0 0 .18-.47c-.35.08-.55.06-.59-.06a.25.25 0 0 1 .18.06 6.87 6.87 0 0 1-.35-.83 2.22 2.22 0 0 1-.09-.47v-.41a.32.32 0 0 1 .24.35.68.68 0 0 0 .21-.06.69.69 0 0 0 .24-.15l.12-.12v-.15l-.12-.24a.45.45 0 0 1-.06-.18l-.29-.59-.12-.18a.1.1 0 0 0-.12 0 .09.09 0 0 1-.12 0q-.12-.06 0-.18a.74.74 0 0 0 .06-.47 1.41 1.41 0 0 0-.06-.27.55.55 0 0 1 0-.29c0-.06.09-.09.21-.09a1.11 1.11 0 0 1-.06-.35c.12 0 .2.08.24.24a.42.42 0 0 0 .18.29.2.2 0 0 0 .27 0 .25.25 0 0 0 .15-.21.42.42 0 0 0-.29-.41.24.24 0 0 0-.18-.06h-.18a.16.16 0 0 1 0-.21l.21-.18q.12-.09.12-.15a.4.4 0 0 0-.12-.38.59.59 0 0 1-.18-.32l.41-.77a1.27 1.27 0 0 0 .18-.35.3.3 0 0 0-.06-.15.28.28 0 0 1-.06-.15.88.88 0 0 1 .18-.29.63.63 0 0 0 0-.53q.35-.06.47-.65a.8.8 0 0 1 0-.18l.06-.24a1 1 0 0 0 0-.24l.15-.15a.8.8 0 0 0 .15-.21 1.9 1.9 0 0 1 .12-.47 2.26 2.26 0 0 1 .24-.53 4.28 4.28 0 0 1 .65-1.18A46.36 46.36 0 0 1 67.27 32a24.14 24.14 0 0 1 1.89-1.77q1.53-1.24 2-1.59a13.58 13.58 0 0 1 4.66-1.95 13 13 0 0 1 3.07 0 8.92 8.92 0 0 0 1.53 0 3.2 3.2 0 0 0 .71-.12l.71-.18a3.57 3.57 0 0 1 1.56.35 5.35 5.35 0 0 1 1.15.71q.41.35 1.18 1.06a2.78 2.78 0 0 1 .41.53 4.07 4.07 0 0 1 .32.71 5.8 5.8 0 0 0 .27.65 3.75 3.75 0 0 0 .47.88.38.38 0 0 0 .38 0 .29.29 0 0 0 .21-.27.54.54 0 0 1 .18.56 1.86 1.86 0 0 1-.24.68l-.59.53-.53.59a.34.34 0 0 0-.5 0 .86.86 0 0 0-.32.56 9.94 9.94 0 0 0-.27 1.06c-.1.47-.17.79-.21.94l-.59 2.12a12.41 12.41 0 0 0-.53 2l-.06.88a8 8 0 0 0-.06 1 13 13 0 0 1-.07 2.14 18.43 18.43 0 0 0 .24 4.24 12.84 12.84 0 0 0 3.83-3.54l1.14-1.52a3.05 3.05 0 0 0 0-.37q.06-.41.18-1.06a7.76 7.76 0 0 1 .18-.83q0-.29.06-2.42a14.84 14.84 0 0 0 0-2 4.38 4.38 0 0 1 .24-1.83l.94-2a17.37 17.37 0 0 0 .83-3.18 8.27 8.27 0 0 1 .24-1.27q.18-.68.41-1.5t.35-1.3a3 3 0 0 1 .06-.44c0-.22.08-.39.12-.53a2.55 2.55 0 0 1 .18-.44 3.73 3.73 0 0 1 .24-.41 1.7 1.7 0 0 1 1.95-.24.47.47 0 0 1 .18.06.73.73 0 0 1 .18.12.74.74 0 0 1 .27.06.71.71 0 0 0 .27.06 1.76 1.76 0 0 1 .47.29 1.16 1.16 0 0 0 .35.24 5.7 5.7 0 0 1 1.3 1.53 3.1 3.1 0 0 1 .41 1.77 1.58 1.58 0 0 1 0 .68c-.06.41-.05.62 0 .62a1.67 1.67 0 0 0 .24.18.88.88 0 0 1 .24.21.25.25 0 0 1 0 .21.53.53 0 0 0 0 .29 3.43 3.43 0 0 0 .32-.53 3.85 3.85 0 0 0 .27-.77 3.78 3.78 0 0 1 .18-.59q.59-1.71.77-2.06a6.27 6.27 0 0 0 .32-.59q.21-.41.35-.65l.35-.59a5.35 5.35 0 0 1 .44-.65 6.41 6.41 0 0 1 .47-.53 3 3 0 0 1 2.43-.89 5.91 5.91 0 0 1 2.42.74 8.69 8.69 0 0 1 2 1.62 4.71 4.71 0 0 1 .91 1.5 5.35 5.35 0 0 1 .35 1.71V31q.06.71.12 2.62t.15 3.24a21.17 21.17 0 0 0 .32 2.56q.65 3.24.77 3.66a8.17 8.17 0 0 0 .77 1.77.71.71 0 0 0 .15.27l.3.44q.15.24.32.47a3.51 3.51 0 0 0 .32.38c.1.1.17.13.21.09s0 .1.12.18a2.41 2.41 0 0 0 .32.27.71.71 0 0 0 .26.15 3.2 3.2 0 0 0 .41.32l.47.32.25.18a11.38 11.38 0 0 1-.73-4.55 15 15 0 0 1 .82-4.42q1.3-3.65 1.42-3.89a31.93 31.93 0 0 1 2.55-4.79 13 13 0 0 1 3.66-4.13 7.74 7.74 0 0 1 5-1.42 8.14 8.14 0 0 1 .94.18 8.62 8.62 0 0 1 1.06.35 5.48 5.48 0 0 0 .88.29 2.67 2.67 0 0 0 1.47.06 6.94 6.94 0 0 1 1.47-.06l.53.24a1.78 1.78 0 0 0 .59.18 8.39 8.39 0 0 1 1.36.59l.8.38a7.45 7.45 0 0 1 .91.5 3 3 0 0 1 .65.59 3.25 3.25 0 0 0 .27-.65 11.92 11.92 0 0 1 .5-1.21q.29-.62.62-1.27a4.34 4.34 0 0 1 .62-1c.2-.22.37-.27.53-.15q-.3.35-.35.44a2.43 2.43 0 0 0-.15.27c-.06.12 0 .2 0 .24s.16.12.24 0c.24.08.27.2.12.35.24.79.27 1.26.12 1.42a.45.45 0 0 1 .38.5 3 3 0 0 0 0 .74.25.25 0 0 0 .15.21.48.48 0 0 1 .21.27c0 .08-.08.51-.24 1.3a16.26 16.26 0 0 1-.54 2.27zm-5.9 16.92c0-.12.08-.18.12-.18h.3c-.07.2-.21.28-.41.16zm.47-.77c0-.12 0-.27.24-.47a.16.16 0 0 0 .24.12.46.46 0 0 1-.18.41c-.08 0-.14 0-.18-.18-.07.1-.11.14-.11.1zm25.24 2.36a1.32 1.32 0 0 1 .12.83q-.52-.49-.11-.85zm.24 2.06a5.18 5.18 0 0 0 .24.77q-.53-.19-.24-.78zm22.4-2.06a1.32 1.32 0 0 1 .12.83q-.52-.49-.11-.85zm.24 2.06a5.18 5.18 0 0 0 .24.77q-.53-.19-.23-.78zm9.2-13.74a1.13 1.13 0 0 1-.29.21 1 1 0 0 0-.24.15c0 .08 0 .11.15.09a.23.23 0 0 1 .21 0q.12.18-.06.53s-.26.37-.65 1a5.61 5.61 0 0 1-2.18 1.65 10 10 0 0 1-3 .94 1.7 1.7 0 0 0-.41.09l-.53.15a.72.72 0 0 1-.41 0 .7.7 0 0 1-.24-.09.72.72 0 0 0-.24-.09 1.65 1.65 0 0 0-.35.06l-.29.06q-.59 0-1.62-.06l-1.36-.06a.58.58 0 0 0-.47.18.56.56 0 0 0-.12.44 2.54 2.54 0 0 0 .12.53c.06.18.14.38.24.62s.17.41.21.53V46a1 1 0 0 0 .21.27c.1.1.15.17.15.21a.5.5 0 0 1 0 .47.29.29 0 0 1-.21.06h-.21c-.12.08-.16.14-.12.18a.24.24 0 0 1 .06.18 1.29 1.29 0 0 0 .06.41 1.31 1.31 0 0 0 .53.71.28.28 0 0 1 .06-.15.3.3 0 0 0 .06-.15 3.27 3.27 0 0 1 .53 1.65q.06.18.18.62a6.48 6.48 0 0 1 .15.65 2 2 0 0 1 0 .56.71.71 0 0 1-.32-.53 1.16 1.16 0 0 0-.21-.53 1.93 1.93 0 0 1-.3-.88q.06-.41-.06-.53l-.47-.06a2 2 0 0 1-.21-.29 2.16 2.16 0 0 0-.21-.29 1.1 1.1 0 0 1-.12.38 1.14 1.14 0 0 0-.12.44 1 1 0 0 0 .06.29c0 .08 0 .18-.12.29l-.29.18a.66.66 0 0 1-.29.06h-.29a9.18 9.18 0 0 0-.83.65.68.68 0 0 1 .29.53v.3a1.7 1.7 0 0 0 .09.41 3 3 0 0 0 .15.41 2.63 2.63 0 0 1-.06.47 2.5 2.5 0 0 0-.06.47v.32a3.25 3.25 0 0 0 0 .47 1.05 1.05 0 0 0 .09.32c.08.24.19.33.32.29s.25-.18.33-.41a.9.9 0 0 0-.41-1.12 2.05 2.05 0 0 0 .41-.47.45.45 0 0 0-.12-.27l-.18-.21a1.36 1.36 0 0 1 .41-.71l-.32-.35-.33-.35a3.24 3.24 0 0 0 .65-.29.44.44 0 0 0 .18-.15c0-.06.12 0 .24.09a.38.38 0 0 1 .09.18.34.34 0 0 0 .06.15.82.82 0 0 0 .32 0 .94.94 0 0 1 .12.59 4.84 4.84 0 0 0 .18 1 2 2 0 0 0 .24.44 1.09 1.09 0 0 1 .18.32 1.08 1.08 0 0 1 .12.29h-.24a.91.91 0 0 1-.41-.09.68.68 0 0 0-.27-.09.75.75 0 0 0-.32.18 1 1 0 0 0 .59.41 3.51 3.51 0 0 0 .53.18 5.26 5.26 0 0 1 1.12.71q.06.12-.26.29a3.6 3.6 0 0 1-.74.29l-.59.18a1 1 0 0 1-.26-.09c-.14-.06-.24-.07-.29 0s-.09.14-.09.29.27.35.83.24.85 0 .88.29c0 .16 0 .26-.09.29l-.24.12a.75.75 0 0 0-.26.18s-.07 0-.09.15a.18.18 0 0 1-.21.15 1.18 1.18 0 0 1-.4-.25v.88a.65.65 0 0 1 .26-.12 2 2 0 0 0 .32-.12 1 1 0 0 1 .27-.09.4.4 0 0 1 .26 0 .24.24 0 0 1 .12.24 1.05 1.05 0 0 1-.06.77 1.21 1.21 0 0 1-.47.59c.24 0 .27.16.12.35a.46.46 0 0 1 .18.06c.24.08.39 0 .47-.12s.1-.13.06-.26 0-.23.06-.27c.2-.2.29-.1.29.29a.84.84 0 0 1 .06.35v.12q0 .29-.88.88t-.88.88c0 .2 0 .47-.06.83a3.57 3.57 0 0 0 .06.53 1.19 1.19 0 0 1 0 .53 3.61 3.61 0 0 1-.18.77 2 2 0 0 0-.12.88l-.24 1.95a14.28 14.28 0 0 1-.88 2.77 18 18 0 0 1-1.12 2.21 11.41 11.41 0 0 1-.94 1.39l-.29.35c-.08 0-.08.08 0 .24s.08.27 0 .35l-.35.26a3.31 3.31 0 0 0-.41.32.37.37 0 0 0-.09.18.38.38 0 0 1-.06.15l-.32.15H177a.17.17 0 0 0-.18 0 .61.61 0 0 0-.24.12.62.62 0 0 1-.24.12.91.91 0 0 1-.53.06c-.12 0-.26 0-.41.24a.44.44 0 0 0-.29-.21 1 1 0 0 0-.41 0 1.65 1.65 0 0 1-.35.06 2 2 0 0 1-.35-.09 1.86 1.86 0 0 0-.53-.09 2.14 2.14 0 0 0-.71.15 1.53 1.53 0 0 1-.65.12 1 1 0 0 1-.53-.32 10.47 10.47 0 0 1-1.41-2.18l-.53-1.24a5.06 5.06 0 0 1-.41-1.12q-.12-.47-.35-1.12a.63.63 0 0 0-.15-.32 2.7 2.7 0 0 1-.21-.32v-.65a2.16 2.16 0 0 1-.09-.44 1.27 1.27 0 0 0-.09-.38c0-.16-.09-.4-.15-.74s-.11-.6-.15-.8a42.78 42.78 0 0 1-.94-6.25 38.94 38.94 0 0 1 .53-6.9q.29-2.12.41-3.18a10.45 10.45 0 0 0 .29-1.06 2.17 2.17 0 0 0 .18-.65.6.6 0 0 0 0-.38q-.06-.09-.35-.15H168a4.22 4.22 0 0 1-2.18-1.18 2.29 2.29 0 0 1-.53-.94q-.06-.35.53-.94l1.77-1.95c.11-.11.25-.23.38-.34a10 10 0 0 1-3 .93 1.7 1.7 0 0 0-.41.09l-.53.15a.72.72 0 0 1-.41 0 .7.7 0 0 1-.24-.09.72.72 0 0 0-.24-.09 1.65 1.65 0 0 0-.35.06l-.29.06q-.59 0-1.62-.06l-1.36-.06a.58.58 0 0 0-.47.18.56.56 0 0 0-.12.44 2.54 2.54 0 0 0 .12.53c.06.18.14.38.24.62s.17.41.21.53V46a1 1 0 0 0 .21.27c.1.1.15.17.15.21a.5.5 0 0 1 0 .47.29.29 0 0 1-.21.06h-.21c-.12.08-.16.14-.12.18a.24.24 0 0 1 .06.18 1.29 1.29 0 0 0 .06.41 1.31 1.31 0 0 0 .53.71.28.28 0 0 1 .06-.15.3.3 0 0 0 .06-.15 3.27 3.27 0 0 1 .53 1.65q.06.18.18.62a6.5 6.5 0 0 1 .15.65 2 2 0 0 1 0 .56.71.71 0 0 1-.32-.53 1.16 1.16 0 0 0-.21-.53 1.93 1.93 0 0 1-.29-.88q.06-.41-.06-.53l-.47-.06a2 2 0 0 1-.21-.29 2.16 2.16 0 0 0-.21-.29 1.1 1.1 0 0 1-.12.38 1.14 1.14 0 0 0-.12.44 1 1 0 0 0 .06.29c0 .08 0 .18-.12.29l-.29.18a.66.66 0 0 1-.29.06h-.3a9.19 9.19 0 0 0-.83.65.68.68 0 0 1 .29.53v.3a1.7 1.7 0 0 0 .09.41 3 3 0 0 0 .15.41 2.63 2.63 0 0 1-.06.47 2.5 2.5 0 0 0-.06.47v.32a3.26 3.26 0 0 0 0 .47 1.06 1.06 0 0 0 .09.32c.08.24.19.33.32.29s.25-.18.33-.41a.9.9 0 0 0-.41-1.12 2.05 2.05 0 0 0 .41-.47.45.45 0 0 0-.12-.27l-.18-.21a1.36 1.36 0 0 1 .41-.71l-.32-.35-.33-.35a3.24 3.24 0 0 0 .65-.29.44.44 0 0 0 .18-.15c0-.06.12 0 .24.09a.38.38 0 0 1 .09.18.34.34 0 0 0 .06.15.82.82 0 0 0 .32 0 .94.94 0 0 1 .12.59 4.84 4.84 0 0 0 .18 1 2 2 0 0 0 .24.44 2.86 2.86 0 0 1 .29.62h-.24a.91.91 0 0 1-.41-.09.68.68 0 0 0-.27-.09.75.75 0 0 0-.32.18 1 1 0 0 0 .59.41 3.51 3.51 0 0 0 .53.18 5.26 5.26 0 0 1 1.12.71q.06.12-.26.29a3.6 3.6 0 0 1-.74.29l-.59.18a1 1 0 0 1-.26-.09c-.14-.06-.24-.07-.29 0s-.09.14-.09.29.27.35.83.24.85 0 .88.29c0 .16 0 .26-.09.29l-.24.12a.75.75 0 0 0-.26.18s-.07 0-.09.15a.18.18 0 0 1-.21.15 1.18 1.18 0 0 1-.35-.24v.88a.65.65 0 0 1 .26-.12 2 2 0 0 0 .32-.12 1 1 0 0 1 .27-.09.4.4 0 0 1 .26 0 .24.24 0 0 1 .12.24 1.05 1.05 0 0 1-.06.77 1.21 1.21 0 0 1-.47.59c.24 0 .27.16.12.35a.46.46 0 0 1 .18.06c.24.08.39 0 .47-.12s.1-.13.06-.26 0-.23.06-.27c.2-.2.29-.1.29.29a.84.84 0 0 1 .06.35v.12q0 .29-.88.88t-.88.88c0 .2 0 .47-.06.83a3.58 3.58 0 0 0 .06.53 1.19 1.19 0 0 1 0 .53 3.61 3.61 0 0 1-.18.77 2 2 0 0 0-.12.88l-.27 1.96a14.28 14.28 0 0 1-.88 2.77 17.94 17.94 0 0 1-1.12 2.21 11.41 11.41 0 0 1-.94 1.39l-.29.35c-.08 0-.08.08 0 .24s.08.27 0 .35l-.35.26a3.32 3.32 0 0 0-.41.32.37.37 0 0 0-.09.18.39.39 0 0 1-.06.15l-.32.15h-.18a.17.17 0 0 0-.18 0 .61.61 0 0 0-.24.12.62.62 0 0 1-.24.12.91.91 0 0 1-.53.06c-.12 0-.26 0-.41.24a.44.44 0 0 0-.29-.21 1 1 0 0 0-.41 0 1.65 1.65 0 0 1-.35.06 2 2 0 0 1-.35-.09 1.86 1.86 0 0 0-.53-.09 2.14 2.14 0 0 0-.71.15 1.53 1.53 0 0 1-.65.12 1 1 0 0 1-.53-.32 10.47 10.47 0 0 1-1.41-2.18l-.53-1.22a5.05 5.05 0 0 1-.41-1.12q-.12-.47-.35-1.12a.63.63 0 0 0-.15-.32 2.71 2.71 0 0 1-.21-.32v-.65a2.16 2.16 0 0 1-.09-.44 1.27 1.27 0 0 0-.09-.38c0-.16-.09-.4-.15-.74s-.11-.6-.15-.8a42.78 42.78 0 0 1-.94-6.25A39 39 0 0 1 145 53q.29-2.12.41-3.18a10.42 10.42 0 0 0 .29-1.06 2.17 2.17 0 0 0 .18-.65.6.6 0 0 0 0-.38q-.06-.09-.35-.15h-.18a4.22 4.22 0 0 1-2.18-1.18 2.29 2.29 0 0 1-.53-.94q-.06-.35.53-.94l1.77-1.95a7.75 7.75 0 0 1 1.18-.94 2.69 2.69 0 0 0 .88-.71 2.92 2.92 0 0 0 .15-.88 2.62 2.62 0 0 1 .09-.71q.24-1.3.29-1.53a16.12 16.12 0 0 1 .29-1.77q.24-1.12.29-1.53a25.61 25.61 0 0 0 .24-2.86 27.7 27.7 0 0 1 .24-2.92q.12-.59.24-1.83a1.93 1.93 0 0 1 .53-1q.06.35-.12.44c-.12.06-.18.13-.18.21l.24.35h.06v.44c0 .22 0 .34.09.38a3.91 3.91 0 0 0 .24-1.53 4.17 4.17 0 0 1 0-.44c0-.18 0-.36.09-.56a2.56 2.56 0 0 0 .06-.47A7.81 7.81 0 0 1 150 24q.15-.47.21-.71a3.7 3.7 0 0 1 0-.38q0-.27.06-.44a1.62 1.62 0 0 1 .12-.38 1 1 0 0 1 .21-.32 1 1 0 0 1 0 .47 2.89 2.89 0 0 0-.06.35v.53a.94.94 0 0 1-.09.27c-.06.14-.07.23 0 .27q.18.41.47-.35a2.35 2.35 0 0 0 .12-1.06 3.23 3.23 0 0 1 .29-.94.91.91 0 0 0 .06-.38.91.91 0 0 1 .06-.38.48.48 0 0 1 .18-.29l.18-.18h.06a.05.05 0 0 1 .06-.06.17.17 0 0 0 .12-.06 2 2 0 0 0 .12-.65q.06-.65.71-4 .06-.29.18-1.06t.24-1.24a3.37 3.37 0 0 1 .15-.71c.1-.35.18-.66.24-.91a3.3 3.3 0 0 0 .09-.74q-.41.71-.35.06c0-.16.1-.37.18-.65a1.64 1.64 0 0 1 .18-.47 11.51 11.51 0 0 1 .92-2.59h-.24a.67.67 0 0 0-.24.12l-.18.15-.15.18-.15.18a2.31 2.31 0 0 0-.24.41l-.15-.18a.35.35 0 0 1-.09-.18q-.41.53-.41.24a.52.52 0 0 1 .06-.24q.23-1.06.35-1.42a3 3 0 0 0-.56.88 6.63 6.63 0 0 1-.38.77.21.21 0 0 0-.18-.18.47.47 0 0 1-.06.18.45.45 0 0 0-.06.18q-.24-.18.09-1a5.88 5.88 0 0 1 .62-1.24c.12-.12.2-.18.24-.18l.29-.06s.12-.08.24-.24a2.75 2.75 0 0 1 .83-.83.91.91 0 0 1 .83-.24 1.36 1.36 0 0 1 .47.12 1.35 1.35 0 0 0 .47.12A3.12 3.12 0 0 1 157 5c.29.2.42.41.38.65a.65.65 0 0 1 .77-.18l.15.15a.24.24 0 0 1 .09.15h.21a.42.42 0 0 1 .21.09q.83.41 1.06 2.12.41 3.54.53 5.9a31.88 31.88 0 0 1-.47 5.72q-.65 4.42-.94 5.66t-1.53 5.54q-.12.41-.41 2.45t-.41 2.51q-.18.47-.53 1.36a2.33 2.33 0 0 0-.24.44q-.18.38-.27.62a.44.44 0 0 0 0 .38 1.37 1.37 0 0 0 .38.35l.35.27a10.68 10.68 0 0 0 .77.94 5.66 5.66 0 0 0 .77.88 2.88 2.88 0 0 0 1.24.47 7.05 7.05 0 0 0 5.42-1.24 20.8 20.8 0 0 0 4.6-4.48c.12-.24.21-.36.27-.38a1.14 1.14 0 0 1 .5.15l.62.3c.13-.65.22-1.11.26-1.36a25.6 25.6 0 0 0 .24-2.86 27.72 27.72 0 0 1 .24-2.92q.12-.59.24-1.83a1.93 1.93 0 0 1 .53-1q.06.35-.12.44c-.12.06-.18.13-.18.21l.24.35h.03v.44c0 .22 0 .34.09.38a3.91 3.91 0 0 0 .24-1.53 4.15 4.15 0 0 1 0-.44c0-.18 0-.36.09-.56a2.56 2.56 0 0 0 .06-.47 7.83 7.83 0 0 1 .21-.77q.15-.47.21-.71a3.7 3.7 0 0 1 0-.38c0-.18 0-.32.06-.44a1.62 1.62 0 0 1 .12-.38 1 1 0 0 1 .21-.32 1 1 0 0 1 0 .47 2.9 2.9 0 0 0-.06.35v.53a.94.94 0 0 1-.09.27c-.06.14-.07.23 0 .27q.18.41.47-.35a2.35 2.35 0 0 0 .12-1.06 3.23 3.23 0 0 1 .29-.94.92.92 0 0 0 .06-.38.91.91 0 0 1 .06-.38.48.48 0 0 1 .18-.29l.18-.18h.06a.05.05 0 0 1 .06-.06.17.17 0 0 0 .12-.06 2 2 0 0 0 .12-.65q.06-.65.71-4 .06-.29.18-1.06t.24-1.24a3.37 3.37 0 0 1 .15-.71c.1-.35.18-.66.24-.91a3.3 3.3 0 0 0 .09-.74q-.41.71-.35.06c0-.16.1-.37.18-.65a1.64 1.64 0 0 1 .18-.47 11.5 11.5 0 0 1 .87-2.49h-.24a.67.67 0 0 0-.24.12l-.18.15-.15.18-.15.18a2.31 2.31 0 0 0-.24.41l-.15-.11a.35.35 0 0 1-.09-.18q-.41.53-.41.24a.52.52 0 0 1 .06-.24q.23-1.06.35-1.42a3 3 0 0 0-.56.88A6.61 6.61 0 0 1 175 8a.21.21 0 0 0-.18-.18.47.47 0 0 1-.06.18.45.45 0 0 0-.06.18q-.24-.18.09-1a5.88 5.88 0 0 1 .62-1.24c.12-.12.2-.18.24-.18l.29-.06s.12-.08.24-.24a2.75 2.75 0 0 1 .83-.83.91.91 0 0 1 .83-.24 1.36 1.36 0 0 1 .47.12 1.35 1.35 0 0 0 .47.12 3.12 3.12 0 0 1 .85.41c.29.2.42.41.38.65a.65.65 0 0 1 .77-.18l.15.15a.24.24 0 0 1 .09.15h.21a.42.42 0 0 1 .21.09q.83.41 1.06 2.12.41 3.54.53 5.9a31.89 31.89 0 0 1-.47 5.72q-.65 4.42-.94 5.66t-1.53 5.54q-.12.41-.41 2.45t-.41 2.51q-.18.47-.53 1.36a2.33 2.33 0 0 0-.24.44q-.18.38-.27.62a.44.44 0 0 0 0 .38 1.37 1.37 0 0 0 .38.35l.35.27a10.67 10.67 0 0 0 .77.94 5.66 5.66 0 0 0 .77.88 2.88 2.88 0 0 0 1.24.47 7.05 7.05 0 0 0 5.42-1.24 20.8 20.8 0 0 0 4.6-4.48c.12-.24.21-.36.27-.38a1.14 1.14 0 0 1 .5.15 9.9 9.9 0 0 1 .94.47q.29.24.24.94a1 1 0 0 1-.06.44.94.94 0 0 1-.41.21c0 .08.1.2.29.35s.29.28.29.35a.34.34 0 0 1-.14.27zM183.6 53.09a.71.71 0 0 1-.09.29.2.2 0 0 1-.27.12c-.08 0-.14-.23-.18-.56s0-.52.12-.56a1.37 1.37 0 0 1 .42.71zm-22.64 0a.71.71 0 0 1-.09.29.2.2 0 0 1-.27.12c-.08 0-.14-.23-.18-.56s0-.52.12-.56a1.37 1.37 0 0 1 .46.71zm96.31-16.51c.06.12 0 .2-.09.24s-.31.11-.56 0a.81.81 0 0 0-.56-.15v-.65-.59l.29.24-.12.29a1.1 1.1 0 0 0 .38-.12l.53-.24q.26-.12.32-.06a2.52 2.52 0 0 0-.24.83.72.72 0 0 0 .05.21zm1.21-8.58a.79.79 0 0 1-.65.18.72.72 0 0 1 .24-.32l.38-.29a2.67 2.67 0 0 0 .32-.27.85.85 0 0 1-.29.7zm.18-3.66l.41-.18a1.17 1.17 0 0 0 0 .21 1 1 0 0 0 .09.27 1 1 0 0 1-.5-.32zm.41-6.25l-.12.24-.12.27-.15.35-.15.32q-.06.24-.24.74a3.44 3.44 0 0 1-.29.68q-.35.41-.29.59c0 .12.18.18.41.18a.78.78 0 0 1 .41.06q.12.18-.06.56a7.73 7.73 0 0 1-.47.86 1.83 1.83 0 0 0-.29.59s.08 0 .24-.21a1.52 1.52 0 0 1 .41-.35c.12-.06.22 0 .29.27 0 0 0 .15-.15.32a1.22 1.22 0 0 1-.32.32 2.29 2.29 0 0 1-.5.09.89.89 0 0 0-.56.27q-.24-.47-.27-.56t-.24 0a1.71 1.71 0 0 1-.44.18 2.36 2.36 0 0 1 .35.29 1.35 1.35 0 0 0-.65.88 2.11 2.11 0 0 1-.18.53l.24.18a1.33 1.33 0 0 1-.24.47c-.2.28-.31.43-.33.47a1.83 1.83 0 0 0 0 .53q.29-.23.41-.35a.52.52 0 0 1 .21.09.5.5 0 0 0 .21.09 2.77 2.77 0 0 0 .88-.47.71.71 0 0 1-.12.71.35.35 0 0 1-.47.18.71.71 0 0 0-.47-.06c-.16 0-.25.09-.27.15l-.06.21a1.2 1.2 0 0 1-.09.24 5.31 5.31 0 0 1-.59.88.43.43 0 0 0 .62-.27.63.63 0 0 1 .56-.44.44.44 0 0 1 .41.21 1.79 1.79 0 0 1 .18.59 2 2 0 0 0 .12.5.79.79 0 0 1-.56-.12.48.48 0 0 0-.62.12.9.9 0 0 0-.18 1.36c-.2.08-.32.09-.38 0a1 1 0 0 1-.18-.29 1 1 0 0 0-.21-.32c-.28-.08-.44-.09-.5 0a4.11 4.11 0 0 0-.38.62q.83 0 .77.94c0 .2 0 .3-.09.32a.17.17 0 0 1-.18-.06c-.06-.06-.15 0-.27.15a.59.59 0 0 0 0 .38 1.12 1.12 0 0 0 .44.24 2.45 2.45 0 0 0 .44.15 1.29 1.29 0 0 1 .47.47c-.16.16-.24.26-.24.29a.15.15 0 0 1 .05.11.82.82 0 0 1 .36 0l.35-.06c.2 0 .29 0 .29.12q.35.24.12.47l-.18.18-.12.24c0 .08-.08.17-.12.27a.66.66 0 0 1-.12.21.9.9 0 0 0-.24.41 3.65 3.65 0 0 0-.12.59q-.06.41-.06.47l-.38.59a2.17 2.17 0 0 0-.26.47c0 .08.12.08.24 0a.21.21 0 0 1 .29 0c-.2.31-.28.51-.24.59a.19.19 0 0 0 .29.06.3.3 0 0 1 .29-.06.73.73 0 0 0-.12.41.82.82 0 0 1-.06.35 2.83 2.83 0 0 1-.65.53 1.9 1.9 0 0 0-.41.41c-.08.12-.11.2-.09.24a.28.28 0 0 1 0 .12.5.5 0 0 1-.09.21.52.52 0 0 0-.09.21l.15.18a.36.36 0 0 1 .09.18.76.76 0 0 1-.15.21.8.8 0 0 1-.21.15.69.69 0 0 0-.18.12q-.12.12-.59.71a8.85 8.85 0 0 1-1.24 1.47 7 7 0 0 0-.62.59 1.13 1.13 0 0 0-.15.44 1.13 1.13 0 0 1-.15.44.7.7 0 0 1-.29.21 1 1 0 0 0-.32.21s0 .18-.06.41a.79.79 0 0 1-.32.27 1.89 1.89 0 0 0-.32.21c-.12.16-.31.38-.56.68a7.11 7.11 0 0 1-.62.65 3.75 3.75 0 0 0-.59.77 2.93 2.93 0 0 1-.59.74q-.51.5-2.43 2.5a26.24 26.24 0 0 1-3.15 2.83 7.71 7.71 0 0 1-.74.59l-.83.62-.85.62a6.55 6.55 0 0 1-.91.56l-1 .47a3.09 3.09 0 0 1-1 .35 9.54 9.54 0 0 0-1 .15 1.48 1.48 0 0 1-1-.12 3.82 3.82 0 0 1-2-1.53 6.65 6.65 0 0 0-.59-.65l-.65-.65q-.59-.77-1-1.41a22.77 22.77 0 0 1-.88-2.18.88.88 0 0 0 .29-.77 1.39 1.39 0 0 0-.18.26 1.51 1.51 0 0 1-.18.27 10.73 10.73 0 0 1-.88-2.18l-.45-1.38a1.72 1.72 0 0 0-.29-.35 1 1 0 0 1-.29-.47q-.24.06-.83.83l-.15-.18a1.47 1.47 0 0 1-.15-.24 6.71 6.71 0 0 0-.56.5 4 4 0 0 0-.53.68l-.41.65q-.15.24-.41.74a5.64 5.64 0 0 0-.32.68q-.71 1.18-1.71 2.77-.35.53-1.18 1.86l-1.3 2.06q-.47.74-1.21 1.77T217.21 61q-.35.47-.91 1.39a12.14 12.14 0 0 1-.85 1.27 4 4 0 0 1-.32.47l-.44.53a3.45 3.45 0 0 1-.53.53 2.6 2.6 0 0 1-.5.29.45.45 0 0 1-.47 0 1 1 0 0 1-.33-.56q-.12-.06-.06-.94t.06-1a1 1 0 0 0-.06-.29c-.12-.24-.08-.37.12-.41q.06-.12.35-1.06l.32-1.42q.2-.89.41-1.62a7.39 7.39 0 0 1 .5-1.33q.18-.35 1.36-3.83.18-.65.68-2t.74-2q.35-1.06 1.24-3.45t1.3-3.69q.12-.47.62-1.86a20.17 20.17 0 0 0 .68-2.15q.35-1.36.53-2a1 1 0 0 1 .18-.41 1.27 1.27 0 0 0 .18-.35 3.17 3.17 0 0 0 .09-.68 3.07 3.07 0 0 1 .09-.68q.35-1.47.77-4.07a10.45 10.45 0 0 0-.35-3.07q-.18-1.12-.18-1.36a3.6 3.6 0 0 0-.06-.77q.41-.24-.06-.53a2 2 0 0 1 .29-.59 5.15 5.15 0 0 1 1.12-1.47 4.81 4.81 0 0 1 2.06-.53 9.45 9.45 0 0 1 4.36.53 3.33 3.33 0 0 1 .88.5 4.86 4.86 0 0 1 .62.56l.68.83q.47.59.65.77-.35.18-.12.47c0 .08.12.1.24.06l.24-.06c.35 0 .54.08.56.12a2.18 2.18 0 0 1-.15.65 23 23 0 0 1-1.24 3 1 1 0 0 1-.06.24 1.89 1.89 0 0 1-.18.24.72.72 0 0 1-.09.24.71.71 0 0 0-.09.24q-.18.18.06.29a.16.16 0 0 0 .06.12l.12.12-.12.12-.12.12c-.24.12-.28.26-.12.41a.24.24 0 0 1 .04.07 8.17 8.17 0 0 1-1.24 2.77.45.45 0 0 1 .24.23.66.66 0 0 1 0 .44 5.18 5.18 0 0 1-.15.53 3.16 3.16 0 0 1-.24.53 1 1 0 0 0-.15.44 12.9 12.9 0 0 0-.41 3q-.06.65-.21 2.06t-.18 2.06v2a22.58 22.58 0 0 1 .18 2.54q.06 1.83.18 2.77a6.69 6.69 0 0 0 1.06 3.18q.65.77 1.3.53s.13-.07.26-.21a.58.58 0 0 1 .38-.21c-.24.32-.26.47-.06.47a3.13 3.13 0 0 0 1.47-.65 22.8 22.8 0 0 0 2-1.77.44.44 0 0 0 .35-.41q.41 0 .12-.41.12-.24.77-1.18 1.24-2 1.65-2.54l.94-1a10.85 10.85 0 0 0 .94-1.09l.74-1.06q.62-.88 1-1.3.53-.65 1.06-1.42t1.18-1.77q.65-1 1-1.47 1.42-2.06 3.24-4.42a7.11 7.11 0 0 1 .44-.56 6.79 6.79 0 0 0 .53-.71 3.77 3.77 0 0 0 .32-.62 8.07 8.07 0 0 1 .35-1l.18-.53.18-.53a5.6 5.6 0 0 0 .59-.86c.27-.45.47-.79.59-1s.29-.56.53-1a7.22 7.22 0 0 1 .53-.94q.12-.24.38-.83a9.16 9.16 0 0 1 .44-.88 1.3 1.3 0 0 1 .29-.32 2.88 2.88 0 0 0 .41-.44.46.46 0 0 0 .12-.41s-.11.06-.21.18-.17.18-.21.18h-.18q.18-.24.56-.8l.56-.8q.18.3.71-.71a3.68 3.68 0 0 0 .65-1.47 1.58 1.58 0 0 0-.38.41 1 1 0 0 1-.56.41.48.48 0 0 0 .15-.41.4.4 0 0 1 .09-.35s.09-.12.26-.24.27-.2.27-.24q0-.29.41-.12a2.49 2.49 0 0 0 .06-.41 1.58 1.58 0 0 0 .27-.44 3 3 0 0 1 .32-.56q-.29-.18-.24-.41c.24 0 .31-.12.24-.35a.33.33 0 0 1 .06-.41 16.16 16.16 0 0 1 1.83-2.24.6.6 0 0 1 .21.47.53.53 0 0 0 .26.47.68.68 0 0 0 .12-.18c.12-.2.26-.18.41.06l.26.09a.27.27 0 0 1 .15.15.62.62 0 0 0 .09.15l.15.21a.62.62 0 0 1 .12.24 5.42 5.42 0 0 0 .83-.77l.18.18.18.18a.76.76 0 0 0-.41.88.56.56 0 0 0-.5.12c-.14.12-.23.18-.26.18h-.35a2.24 2.24 0 0 0-.41.09.63.63 0 0 0-.3.21l-.18.21a1.42 1.42 0 0 0-.35.15 1 1 0 0 0-.41.32q-.39-.22-.68.43zm-2.48 7.19a.57.57 0 0 1-.41.18 1.6 1.6 0 0 0 .24-.53c.31-.27.51-.35.59-.24s-.06.31-.42.57zm-.85 5.66s0-.14.21-.29c.12.2.26.41.41.65a.35.35 0 0 0-.18.09.36.36 0 0 1-.18.09v-.38a.7.7 0 0 1-.26-.18zm5-6.25c0 .2-.06.37-.29.53a.45.45 0 0 1 0-.32.27.27 0 0 1 .33-.23zm-1-3.07a2 2 0 0 1 .65-1.24 1 1 0 0 1-.61 1.23zm-.2 1.38l.24-.12c.08.28 0 .51-.35.71-.12-.25-.09-.45.11-.59zm12.92-14.31a6.07 6.07 0 0 0-.65 1 29.08 29.08 0 0 0-1.59 5.19 32.48 32.48 0 0 0-.88 5.31v1.12q-.18 1-.24 1.3A11 11 0 0 1 269 24a11 11 0 0 0-.12 1.36q0 1.18-.24 5.48t-.12 6.72q.12 2.18-.06 6.13-.12 1.77-.12 2.65v1.39a7.24 7.24 0 0 0 0 1.33q.65 5.6.88 6.6a10 10 0 0 0 .58 1.34.22.22 0 0 1 0 .21.43.43 0 0 0 .09.32s.12.06.24.18q.41.12.24.41a1.09 1.09 0 0 1 .18.38v.18a1.82 1.82 0 0 1 0 .27.46.46 0 0 1-.09.24 1.12 1.12 0 0 0 .09.74 1 1 0 0 0 .68.27 6 6 0 0 0-.65.85 4 4 0 0 1-.71.85 1.7 1.7 0 0 1-.5.32 3.52 3.52 0 0 0-.41.21 1.68 1.68 0 0 0-.24.21l-.26.24a.48.48 0 0 1-.29.09h-.27a1.25 1.25 0 0 0-.32-.06.72.72 0 0 0-.32.12.82.82 0 0 1-.26.12 4.3 4.3 0 0 1-1.47.18l-.29-.18a.57.57 0 0 0-.29-.12 1 1 0 0 0-.27.09 1 1 0 0 1-.26.09 3.78 3.78 0 0 1-1.3-.18.38.38 0 0 1-.24-.18.38.38 0 0 0-.18-.18H262.11a2.27 2.27 0 0 1-.77-.59 3.86 3.86 0 0 1-1.12-1.89 9 9 0 0 1-.29-2.3c0-.2-.09-.51-.15-.94s-.11-.84-.15-1.21a4.46 4.46 0 0 1 0-1 .72.72 0 0 1-.12-.41 3.15 3.15 0 0 1 .06-.56 3.07 3.07 0 0 0 .06-.44V51.5l.06-1.24v-.56a4 4 0 0 1 0-.71.5.5 0 0 1 .21-.38.8.8 0 0 1-.06-.88 1.5 1.5 0 0 1 .41-.47A1.88 1.88 0 0 1 260 47c-.24-.16-.26-.29-.06-.41v-.24s0-.35.12-.94a3 3 0 0 0-.06-1 1.94 1.94 0 0 1 0-1q.06-.47.35-.56a3.3 3.3 0 0 1 .88-.09 1.42 1.42 0 0 0-.12-.74c-.08-.1-.3-.07-.65.09.12-.27.08-.47-.12-.59s-.18-.2-.06-.35q-.06-.83-.06-.94a.48.48 0 0 0-.06-.18c0-.12.06-.22.29-.29h.35a3.11 3.11 0 0 1 .41.15.93.93 0 0 0 .06.24q.12.83.41.35a1 1 0 0 0 .06-.24.53.53 0 0 0-.09-.21.52.52 0 0 1-.09-.27s-.08 0-.12-.12a.74.74 0 0 0-.12-.18.75.75 0 0 0 .12-.29l.18-.35a.56.56 0 0 1-.29 0s-.06-.07-.06-.15a.25.25 0 0 0-.06-.18.33.33 0 0 0-.06-.41.46.46 0 0 0-.24-.09.44.44 0 0 1-.24-.09 1.48 1.48 0 0 1-.47-.88 1.1 1.1 0 0 1 .18-.88.44.44 0 0 0 .32 0c.06 0 .09-.14.09-.29s0-.31-.24-.35l-.21-.24a.62.62 0 0 1-.15-.41 3.64 3.64 0 0 1 .29-1.24.75.75 0 0 0 .47-.29 1.33 1.33 0 0 0 .24-.59.78.78 0 0 1-.35 0 .21.21 0 0 1-.15-.09.34.34 0 0 1 0-.21.93.93 0 0 0 0-.38 1 1 0 0 0-.06-.29 1 1 0 0 1-.06-.3v-.06a.52.52 0 0 0 .06-.15h.06a1.11 1.11 0 0 0 .35-.06s.1-.09.29-.15a1.76 1.76 0 0 0 .47-.21.57.57 0 0 0 .24-.29.22.22 0 0 0-.26-.32l-.32.09-.32.09a.22.22 0 0 1-.21 0 1 1 0 0 0 .29-.29 3.6 3.6 0 0 1 .24-.29.76.76 0 0 0-.32-.18 1.1 1.1 0 0 0-.38.18 1.82 1.82 0 0 1 .15-.62l.21-.56v-.38a1.59 1.59 0 0 1 0-.44q0-.18.27-.24a2.23 2.23 0 0 1-.06-1.12 2.41 2.41 0 0 1 .12-.59s0-.1.12-.18a.91.91 0 0 0 .18-.24.2.2 0 0 0-.09-.27q-.15-.09 0-.27a.58.58 0 0 1 .29-.09.57.57 0 0 0 .29-.09.59.59 0 0 0 .15-.21.17.17 0 0 0-.06-.18.69.69 0 0 0-.15-.12l-.24-.12-.29-.15.26-.24a.72.72 0 0 0 .18-.18l.09-.18a.34.34 0 0 0 0-.24 1.53 1.53 0 0 1 0-.35.45.45 0 0 1 .06-.18.46.46 0 0 0 .06-.18.61.61 0 0 1-.12-.24A1.89 1.89 0 0 0 262 22a2.83 2.83 0 0 1-.29-.41.52.52 0 0 1 .09-.21 1.24 1.24 0 0 1 .15-.21l.27-.59a2.11 2.11 0 0 0 .21-.83.7.7 0 0 0-.06-.21.67.67 0 0 1-.06-.21c0-.16.12-.24.35-.24q.06-.35-.24-.35a4.67 4.67 0 0 0 .47-1.65 1.31 1.31 0 0 1 .12-.32 1.11 1.11 0 0 0 .12-.38.88.88 0 0 1-.12-.15.29.29 0 0 1-.06-.15 3.73 3.73 0 0 1 .24-.41 5.8 5.8 0 0 0 .12-.71q-.24-.35.12-.53a.57.57 0 0 0 .12-.29 4.71 4.71 0 0 1 .06-.59s.12-.06.24-.18c.31-.12.39-.29.24-.53s-.14-.47-.18-.59l.35.12.27.09a.44.44 0 0 0 .26 0q.53-.23.41-1.18a1.5 1.5 0 0 1-.65 0c-.12-.16-.17-.24-.15-.27l.18-.15a.62.62 0 0 0 .21-.29 2.06 2.06 0 0 0-.09-.44 2.56 2.56 0 0 1-.09-.38q-.06-.83-.06-.88a2.41 2.41 0 0 1-.12-.41.23.23 0 0 0-.24-.18c-.16 0-.18-.14-.06-.29a.46.46 0 0 0 .06-.18l-.29-.29-.24-.24a1.15 1.15 0 0 1 .15-.41c.1-.2.09-.29 0-.29s-.1 0-.18.12-.12.14-.12.18q-.18-.41.47-1.09t1.02-.64a2.67 2.67 0 0 1 1.42 1.3 4.52 4.52 0 0 1 .56-.41 1.63 1.63 0 0 1 .56-.29.36.36 0 0 1-.09-.15.39.39 0 0 0-.09-.15 1.13 1.13 0 0 1 .44.18 1.49 1.49 0 0 1 0 .47.39.39 0 0 0 .35-.06.58.58 0 0 1 .29-.12q-.12-.29 0-.29c.1 0 .21.08.32.24a1.4 1.4 0 0 1 .18.29 1.34 1.34 0 0 0 .24.35q.47-.88.59-.18a1.86 1.86 0 0 1 .35-.12 1.81 1.81 0 0 0 .35-.12 4.17 4.17 0 0 1-.12.47 2.64 2.64 0 0 1 2.24 1.12 1.61 1.61 0 0 1 .24.53c-.02.08-.14.24-.37.47zm21 42s0-.09.09-.15.15-.07.15 0a.23.23 0 0 1-.26.19zm26-.29a3.58 3.58 0 0 1-.35.29q.18.12 0 .35a.87.87 0 0 1-.27.26 1 1 0 0 0-.29.32 1.14 1.14 0 0 1-.32.35.46.46 0 0 1-.18.06l-.12.18a.37.37 0 0 1-.18.09.38.38 0 0 0-.18.09.61.61 0 0 0-.12.21c0 .1-.08.15-.12.15s-.18 0-.41-.24q-.3.35-.41.35h-.18a.21.21 0 0 0-.24 0 .12.12 0 0 0-.09.14l.12.06h.09v.06a.63.63 0 0 1 .06.35.35.35 0 0 0-.29-.18.39.39 0 0 0-.18-.09h-.18a.51.51 0 0 0 .06.24h-.24a1 1 0 0 1-.29-.09V53q-.41.12-.12.53a.23.23 0 0 1-.24-.18.17.17 0 0 1-.06-.12.72.72 0 0 0-.18-.12h-.12a.25.25 0 0 1-.12 0s-.14-.16-.29-.47a2.87 2.87 0 0 0-.21-.32 2.58 2.58 0 0 1-.21-.32.52.52 0 0 0 .24-.06s-.06-.09-.18-.15-.18-.07-.18 0 .16-.12.47-.12a2.21 2.21 0 0 1-.44-.44c-.06-.1-.07-.17 0-.21a.1.1 0 0 1 .06-.09h.12q.24-.06.06-.24a.28.28 0 0 1-.15-.06.3.3 0 0 0-.15-.06.17.17 0 0 0-.06-.12l-.24-.06c-.12 0-.14 0-.06-.12V50a.24.24 0 0 1 .12-.24c0 .2.1.32.18.35s.06-.18-.06-.41h.35q-.18-.35 0-.53c.12.16.22.12.29-.12.16.24.26.28.29.12s.08-.2 0-.24a.38.38 0 0 0-.29 0 .45.45 0 0 0-.21.12.46.46 0 0 1-.21.12c-.16 0-.16-.1 0-.29a.35.35 0 0 0-.24-.06.34.34 0 0 1-.24-.06.07.07 0 0 1 0-.12c-.12 0-.18-.08-.18-.24a.17.17 0 0 0 .06-.12c0-.2 0-.31.12-.35s0-.07-.12-.09-.12 0-.12-.09 0-.1.06-.18.12-.08.12-.12 0-.14-.06-.29-.1-.26-.06-.29a.74.74 0 0 1 .29.18.4.4 0 0 0 .12-.29.63.63 0 0 1-.12-.24 1 1 0 0 1-.06-.24c0-.08.08-.12.24-.12h.18l.06-.12.24-.18a.21.21 0 0 0-.18-.29l-.24.06-.12.12h-.18a.38.38 0 0 0-.12.25.69.69 0 0 1-.12.18.24.24 0 0 1-.18.06l-.18-.06a.84.84 0 0 1-.35-.12c0-.12 0-.18.18-.18h.15c.02 0 0 .09.09.09s.14 0 .06-.18 0-.24.12-.12a.41.41 0 0 0 0-.27.34.34 0 0 1 0-.21.2.2 0 0 1 .12-.09.36.36 0 0 0 .15-.09l-.24-.53-.18-.41a.7.7 0 0 1 0-.41s0-.07.09-.09.09 0 .09-.09 0-.2-.12-.24-.16 0-.35.06h-.21a.6.6 0 0 0-.27.06.46.46 0 0 0-.21.12.44.44 0 0 1-.26.12c-.16 0-.24 0-.24-.18s0-.18.12-.18h.24a.52.52 0 0 0 .24-.06l.41-.18c.08-.12.06-.2-.06-.24a.45.45 0 0 1-.18.06.56.56 0 0 1-.29-.12.62.62 0 0 0 .24-.12q-.06-.12-.26 0c-.14.08-.25 0-.32-.12h.35l-.24-.24h-.18a.27.27 0 0 0 0-.12.25.25 0 0 1 0-.12c.12 0 .19 0 .21-.06a.28.28 0 0 0 0-.18.93.93 0 0 1 0-.24 1 1 0 0 0 .06-.24.8.8 0 0 0-.41-.06.49.49 0 0 0-.27.06.29.29 0 0 0-.12.18 1.2 1.2 0 0 1-.09.24.92.92 0 0 0-.24.35.51.51 0 0 0 .06.53.51.51 0 0 0-.15.27 1.25 1.25 0 0 0 0 .38 3.21 3.21 0 0 1 0 .35l-.06.12V44l-.06.12-.18.41h-.18a.19.19 0 0 0-.18.12v.18a.46.46 0 0 1-.06.18.45.45 0 0 0-.06.18c0 .24-.08.43-.12.59v.12c0 .08-.06.14-.18.18a1.7 1.7 0 0 0 .12.35.38.38 0 0 0-.32 0 .2.2 0 0 0-.09.27.18.18 0 0 1 .12.06c.08 0 .1.08.06.12s0 .06-.12.06l-.12.18v.35a.63.63 0 0 1-.24.12l-.06.29-.24.24a.22.22 0 0 1 .06.32 1.58 1.58 0 0 1-.24.32.71.71 0 0 1-.29.12.12.12 0 0 0 .06.18s.14 0 .29-.06l-.12.24c.2.08.29.14.29.18a.17.17 0 0 1-.06.12.17.17 0 0 0-.06.12.17.17 0 0 0 .06.12.17.17 0 0 1 .06.12l-.18.24-.09.18a.25.25 0 0 0 0 .12.17.17 0 0 1-.06.12c-.12 0-.16.1-.12.18l.35-.06h.12a3.45 3.45 0 0 1-.59.77.24.24 0 0 1-.09.15.25.25 0 0 0-.09.15h-.12l-.12.06s-.08.11-.12.27a.59.59 0 0 1-.18.21c-.08.06-.12.11-.12.15l-.59.59a5.26 5.26 0 0 1-1.53 1 1.94 1.94 0 0 1-.77.24 1.18 1.18 0 0 0-.71.29v-.18a1 1 0 0 1-.29.06h-.36q-.12.06-.29-.21c-.12-.18-.24-.25-.35-.21v.29c0 .16 0 .26.06.29a.64.64 0 0 1 .29.24l.12.35a1 1 0 0 1 1.06-.12 1.12 1.12 0 0 1-.21.15.51.51 0 0 1-.21.09l.24.18c0 .08-.08.12-.24.12a1.12 1.12 0 0 0-.35.06 1 1 0 0 1-.29.06 4.8 4.8 0 0 1-1.77-.24 3.91 3.91 0 0 1-.65-.35l-.65-.41a2.7 2.7 0 0 1-.53-.59l-.59-.59a1.46 1.46 0 0 1-.41-.53 2.37 2.37 0 0 1-.27-.32 2.8 2.8 0 0 0-.26-.32.58.58 0 0 0-.15-.24 1.24 1.24 0 0 1-.21-.32 7.72 7.72 0 0 0-.41-.74 2.94 2.94 0 0 0-.35-.71 1.55 1.55 0 0 1-.29-.71v-.29a1.06 1.06 0 0 0-.12-.29 4 4 0 0 0-.18-.53l-.15-.35s0-.16.09-.35v-.24a.52.52 0 0 0-.09-.21.5.5 0 0 1-.09-.21.93.93 0 0 1 0-.47 1.78 1.78 0 0 0 0-.23l-.5.46a.24.24 0 0 1 .06.18 1.29 1.29 0 0 0-.53.24q-.12.06 0 .41-.3-.18-.35.12a.44.44 0 0 0-.06.18c-.08-.27-.3-.22-.65.18.08 0 .11.13.09.27a.74.74 0 0 0 .09.44.31.31 0 0 0-.26.27.52.52 0 0 1-.09.27c-.08 0-.19.07-.32.32s-.19.42-.15.5a.48.48 0 0 1 .35-.12c0 .08-.06.16-.18.24s-.18.16-.18.24.06.13.18.15.18.07.18.15l-.59.06c-.12 0-.2 0-.24.06s-.12.16 0 .24a4.77 4.77 0 0 1-1 .47q-1.59.77-2.06 1.06-.12.06-2 .65a3.81 3.81 0 0 1-1.24.3h-.47a2.5 2.5 0 0 0-.53.09.84.84 0 0 0-.35.06q-.3.3-.41 0-1.83.18-2 .18a11.6 11.6 0 0 1-2.59-.59 8.32 8.32 0 0 1-2.24-1.41 3.34 3.34 0 0 1-.53-.53.35.35 0 0 0-.24-.24c-.2 0-.26-.12-.18-.35a3.19 3.19 0 0 1-.24-.29c-.12-.16-.29-.37-.53-.65 0-.12 0-.19-.06-.21a.36.36 0 0 1-.18-.09q-.06-.18-.59-1.18a13.87 13.87 0 0 1-1.06-2.36 8.38 8.38 0 0 1-.41-2.06 3.77 3.77 0 0 1 .09-.44 2 2 0 0 0 .06-.65q0-.27-.26-.27a1.7 1.7 0 0 0 0-.59q0-.41.15-.53c-.08.24 0 .35.12.35a.43.43 0 0 0-.35-.59l.12-.53c-.08-.08-.12-.14-.12-.18l.12-.12c.2-.24.29-.33.29-.29 0-.12 0-.18-.09-.18a.17.17 0 0 1-.12 0l-.12-.15-.15-.21a.36.36 0 0 1-.06-.21l.18-.18q-.12-.41-.35-.47c0-.16.17-.24.38-.24a.63.63 0 0 0 .44-.12 1.08 1.08 0 0 0-.29-.09.44.44 0 0 1-.24-.09 4.3 4.3 0 0 0-.18-.53 1.39 1.39 0 0 0 .77-.12 1.49 1.49 0 0 1-.24-.32 1 1 0 0 0-.29-.32.38.38 0 0 1 .18-.18q-.41-.35 0-.59c.26-.16.38-.31.38-.47a.58.58 0 0 0-.12-.29.39.39 0 0 1-.06-.35 1.46 1.46 0 0 1 .29-.53.4.4 0 0 0 .29-.12 1.57 1.57 0 0 1-.06-.35.93.93 0 0 1 .18-.24.34.34 0 0 0 .12-.24q.53-1 .77-1.36a3.51 3.51 0 0 1 .59-.77c.27-.2.41-.33.41-.41l.18-.29.06-.12q.24.06.29-.12l.12-.35a5.11 5.11 0 0 1 .65-.5 1.89 1.89 0 0 0 .65-.68.67.67 0 0 0 .12-.27.72.72 0 0 1 .18-.32 1.9 1.9 0 0 1 .35-.12 1.63 1.63 0 0 1 .35-.06l1.15-.83a4.33 4.33 0 0 1 1.62-.83l.94-.27a4.24 4.24 0 0 1 1.06-.21 7.45 7.45 0 0 1 1.3.18l1.12.24a7.4 7.4 0 0 1 .94.12 1 1 0 0 1 .12.15.29.29 0 0 1 .06.15 1 1 0 0 1 .47 0 8.25 8.25 0 0 1 1.36.83 6.11 6.11 0 0 1 .53.83.57.57 0 0 0 .18.41.45.45 0 0 0 .18-.06c.16.35.18.54.06.56a.3.3 0 0 0-.24.15c0 .12.14.14.29.06a1.89 1.89 0 0 1-.15.5 1.9 1.9 0 0 0-.15.5c0 .08.07.19.21.32a.58.58 0 0 1 .21.38 1.16 1.16 0 0 1-.24.59 1.36 1.36 0 0 0-.18.53s.1 0 .18-.12c0 .16 0 .26.12.29s.12.06.12-.06a.53.53 0 0 0-.06-.24q.65-.12.12-.29l.21-.18a.32.32 0 0 0 .15-.24c-.08-.08-.18-.06-.29.06a.57.57 0 0 1 .18-.41.51.51 0 0 0 .18-.35c-.12 0-.18 0-.18-.06a.46.46 0 0 1 .06-.18c0-.08 0-.16-.12-.24.2-.12.32.07.38.56a3.39 3.39 0 0 1 0 1 7.73 7.73 0 0 1-.53 2.18 16.13 16.13 0 0 1-1.65 2.95q-1.42 2-1.95 2.59-.71.77-2.24 2.18a13.1 13.1 0 0 1-1.3 1.12 4.3 4.3 0 0 1-.47.27 1.66 1.66 0 0 0-.38.24 2.49 2.49 0 0 0-.24.29 2.42 2.42 0 0 0-.27.5 3.8 3.8 0 0 1-.32.62 1.55 1.55 0 0 0-.26.62 1.78 1.78 0 0 0 .18.59 2.27 2.27 0 0 0 1.65 1 7.15 7.15 0 0 0 4.48-1l2.18-1.18q.35-.24 1-.74t1-.74a9.86 9.86 0 0 0 1.95-1.24 2.75 2.75 0 0 0 .47-.71.77.77 0 0 1 0-.18.29.29 0 0 1 .12-.18 1.1 1.1 0 0 1 .41-.09 1.4 1.4 0 0 0 .44-.09 10.29 10.29 0 0 0 .65-.88 5.22 5.22 0 0 0 .59-.77v-.06q-.29-.83.12-.65c0 .35 0 .55.12.59s.31-.08.47-.35 0-.37-.24-.41a.25.25 0 0 1 .15-.21.94.94 0 0 1 .35-.12c.14 0 .21 0 .21-.09a.66.66 0 0 0 .27-.15.44.44 0 0 0 .12-.21 1.13 1.13 0 0 1 .09-.24 1.72 1.72 0 0 1 .29-.47 5.76 5.76 0 0 0 .38-.53 1 1 0 0 0 .15-.53.87.87 0 0 1-.21-.27c0-.06 0-.13.15-.21s0 0 .12.06a.19.19 0 0 0 .24.06 1.73 1.73 0 0 0 .41-.47 1.61 1.61 0 0 0 .33-.59 2.86 2.86 0 0 1 .26-.59.36.36 0 0 1 .09-.18l.15-.21a.67.67 0 0 0 .09-.21.37.37 0 0 0 0-.21c0-.06-.09-.11-.21-.15a2.22 2.22 0 0 0 .77-1.15 5.23 5.23 0 0 1 .59-1.21l.32-.38c.18-.22.33-.39.47-.53a2.64 2.64 0 0 1 .38-.32 2.12 2.12 0 0 1 .5-.12h.44a1.61 1.61 0 0 0-.18.65.09.09 0 0 0 .06.09v.15a.35.35 0 0 1-.09.18.37.37 0 0 0-.09.18.33.33 0 0 0 .12.24c.08.08.12.14.12.18a.42.42 0 0 1-.06.35.9.9 0 0 0-.12.35c.16-.12.26-.16.29-.12a.94.94 0 0 1 0 .14 4.13 4.13 0 0 1 .91-.73 4.08 4.08 0 0 1 1.18-.18 1.31 1.31 0 0 1 .33.06 1.23 1.23 0 0 0 .32.06q.18 0 .35-.41t.41-1.18c0-.12.11-.3.21-.56a3.46 3.46 0 0 0 .18-.56 3.68 3.68 0 0 1 .15-.53l.15-.44a.89.89 0 0 0 0-.27.65.65 0 0 1 .06-.29.8.8 0 0 1 .18-.41.21.21 0 0 1 .18-.18v-.18a.7.7 0 0 0-.06-.21v-.21a.52.52 0 0 1 .09-.21.53.53 0 0 0 .09-.27.46.46 0 0 1 0-.15l.06-.21a.87.87 0 0 0 0-.18v-.53a.47.47 0 0 1 0-.15.72.72 0 0 1 .09-.18.36.36 0 0 0 .06-.21 1.84 1.84 0 0 0 0-.24v-.24a.91.91 0 0 1 .24-.41c.08-.12 0-.24-.18-.35s-.18-.16-.18-.24a4.45 4.45 0 0 1 .18-1.42v-.59a.69.69 0 0 1 .09-.29.7.7 0 0 0 .09-.29.34.34 0 0 0 0-.24.75.75 0 0 1 0-.18 2.32 2.32 0 0 1 0-.32 2.54 2.54 0 0 0 0-.27.23.23 0 0 1 0-.15l.09-.09.09-.09a1 1 0 0 0 0-.38 4.74 4.74 0 0 1 .12-1.3.89.89 0 0 1 .09-.32.9.9 0 0 0 .09-.32v-.8a.83.83 0 0 1 0-.21 1 1 0 0 0 0-.24.58.58 0 0 1 0-.27l.06-.09a.1.1 0 0 1 .09-.06 1.65 1.65 0 0 0-.06-.35 1.76 1.76 0 0 1-.06-.29 2.78 2.78 0 0 1 .18-.77 2.58 2.58 0 0 1 .18-.68q.18-.5.29-.8a1.8 1.8 0 0 1 .18-.65 4.68 4.68 0 0 0 .24-.65 2.49 2.49 0 0 1 .06-.47q.06-.29.09-.53a2.12 2.12 0 0 1 .09-.41 1.91 1.91 0 0 1 .59-.77 2.88 2.88 0 0 1 .47-.27q.41-.21.47-.44.29-1.06.65-1.18a2.1 2.1 0 0 1 .38.06.81.81 0 0 1 .32.12v.47c.12-.08.18-.14.18-.18v-.18a.17.17 0 0 1 .12.06l.06.06a1.43 1.43 0 0 0 .35.18h.47a2.49 2.49 0 0 1 .59.06.58.58 0 0 1 .35.24q.18.35.35.35a.72.72 0 0 0 .32-.12.73.73 0 0 1 .32-.12q.59-.18 1.18.59l.21.21a1.05 1.05 0 0 0 .27.21 1.06 1.06 0 0 1 .18.65s0 .24-.24.59a1.14 1.14 0 0 0-.09.35 3 3 0 0 0 0 .35 10.85 10.85 0 0 0-.47 3.66v.83a2 2 0 0 1-.09.5 2.54 2.54 0 0 0-.09.38 10.86 10.86 0 0 0-.24 1.83q-.18 3.18-.24 3.83a32 32 0 0 0-.06 3.54q0 .59.09 1.83t.09 1.89v2.09q0 .71.06 2a6.25 6.25 0 0 0 .15.88 3.45 3.45 0 0 1 .09 1.12 2.21 2.21 0 0 0 .18.77 4.84 4.84 0 0 1-.18 1 2.93 2.93 0 0 1 .12.83 3.06 3.06 0 0 0 .09.41 2.4 2.4 0 0 1 .09.53.7.7 0 0 0 0 .41 2 2 0 0 1 .06.47q0 .24.06.88.12 3.89.18 4.24t.32 1.83q.26 1.47.32 2.3v.65a1.93 1.93 0 0 1 .12.38 4.34 4.34 0 0 0 .12.44.66.66 0 0 0 .06.21.75.75 0 0 1 .06.27c.08.28.12.42.12.44s.12.11-.03.15zm47.23-6.81a5 5 0 0 0 .35-.56 2.6 2.6 0 0 1 0 .32 2.17 2.17 0 0 1-.12.44 1.26 1.26 0 0 0-.09.29 11 11 0 0 1-.41 1.18 16 16 0 0 1-1.42 2.17 19.38 19.38 0 0 1-3.42 3.3 21.32 21.32 0 0 1-2 1.3 3.78 3.78 0 0 1-2.24.71l-.29-.12a1 1 0 0 0-.27-.06h-.32a1.6 1.6 0 0 1-1.12-.06 3.33 3.33 0 0 1-1.65-1.06 7.35 7.35 0 0 1-1.18-2.36l-.18-.68c-.08-.29-.14-.52-.18-.68a3.86 3.86 0 0 1-.24-1.3 2.75 2.75 0 0 0-1 .41c-.08.16-.14.24-.18.24l-.18.15a.36.36 0 0 1-.18.09 2.33 2.33 0 0 0-.21.24l-.18.24-.15.18s-.28.22-.71.53c.12.08.12.18 0 .29s-.11 0-.21 0a.74.74 0 0 0-.27-.06 5.28 5.28 0 0 0-.35.53.87.87 0 0 1-.41.29 3 3 0 0 0-.47.44 1.37 1.37 0 0 0-.29.38q-.35.3-.29.35s.18.14.53.29q-.18.06-.83.35a4.71 4.71 0 0 0-.94.53q-.35.29-.94.85a5.69 5.69 0 0 1-.71.62.91.91 0 0 0-.65-.27 6.74 6.74 0 0 0-.8.15 1.7 1.7 0 0 1-.74.06v.94c0 .12-.19 0-.21-.06a.49.49 0 0 1 0-.21.29.29 0 0 0-.06-.21c0-.2-.2-.3-.47-.3a4.9 4.9 0 0 0-1.53.12.38.38 0 0 0 .24.18.78.78 0 0 1-.77.06 1.63 1.63 0 0 1-.24-.18.07.07 0 0 1 0-.12l.24-.18a.27.27 0 0 0-.21-.21.77.77 0 0 0-.35 0l-.26.06s0-.07.09-.09.09 0 .09-.09 0-.18-.18-.29a2.83 2.83 0 0 1-.71-.53 1.4 1.4 0 0 1-.06-.44.94.94 0 0 0-.06-.38 2.07 2.07 0 0 0-.3-.37 4.29 4.29 0 0 0-.26-.35.65.65 0 0 1 .59.24.47.47 0 0 0 0 .15.19.19 0 0 0 .09.12.6.6 0 0 0 .24 0 .93.93 0 0 0-.12.15.29.29 0 0 0-.06.15 3.39 3.39 0 0 0 1.18.18 5.14 5.14 0 0 0-.35-.65c-.08-.08-.33-.1-.77-.06 0-.16-.14-.33-.41-.53l-.29-.21a.33.33 0 0 0-.15 0 .2.2 0 0 1-.15-.06.63.63 0 0 1-.24-.27l-.18-.32a.36.36 0 0 1-.18-.09.72.72 0 0 1-.18-.18.36.36 0 0 1-.06-.21c-.12 0-.17.11-.15.21a.28.28 0 0 1-.09.27c-.12-.12-.18-.2-.18-.24a.93.93 0 0 0-.06.24.44.44 0 0 1-.18-.47h-.29a2.61 2.61 0 0 0 .18-.47c-.35.08-.55.06-.59-.06a.24.24 0 0 1 .18.06 6.91 6.91 0 0 1-.35-.83 2.19 2.19 0 0 1-.09-.47v-.41a.32.32 0 0 1 .24.35.88.88 0 0 0 .44-.21l.12-.12v-.15l-.12-.24a.44.44 0 0 1-.06-.18l-.13-.26c-.16.08-.2.18-.12.29l-.12.12h-.21v.3a1.79 1.79 0 0 1-.24.32 1.79 1.79 0 0 0-.24.32l-.06.18c0 .08-.08.12-.12.12a.17.17 0 0 0-.12.24s.08.08.24.12c-.08.08-.12.14-.12.18-.28-.12-.41 0-.41.24 0 .12-.1.28-.18.47l-.38.62a.76.76 0 0 1-.32.27.81.81 0 0 1 0 .18.77.77 0 0 0 0 .18l-.35.88a5.66 5.66 0 0 0-.47.65 1.45 1.45 0 0 0-.24.59.62.62 0 0 1-.12.24 2.8 2.8 0 0 1-.21.32 2.5 2.5 0 0 0-.21.32.7.7 0 0 1-.12.18.48.48 0 0 0-.24.47c0 .2-.14.35-.41.47l-.24-.06a1 1 0 0 1-.24.15l-.35.18-.29.15h-.59a.12.12 0 0 0-.09 0 .12.12 0 0 1-.09 0q-.18.06-.56.24l-.5.24H326a3.15 3.15 0 0 1-.71-.06 1.64 1.64 0 0 1-.71-.12.75.75 0 0 1-.41-.35 1.94 1.94 0 0 0-.71-.59 3.1 3.1 0 0 1-.77-.59 1.86 1.86 0 0 0-.47-.41l-.12-.13a2.37 2.37 0 0 1-.24-.35 2.34 2.34 0 0 0-.29-.41.39.39 0 0 0-.18-.18.6.6 0 0 1-.41-.53.69.69 0 0 0-.09-.29.69.69 0 0 1-.09-.29q-.06-.12-.18-.41c-.08-.2-.14-.35-.18-.47-.12-.39-.2-.69-.24-.88l.06-.35a.22.22 0 0 1 0-.35c.12-.16.1-.35-.06-.59a1 1 0 0 0-.09.27 1.09 1.09 0 0 1-.09.27 3.41 3.41 0 0 1-.12-.59 1.31 1.31 0 0 1 .18-.35v-.12a.62.62 0 0 1-.24-.12c.08-.08.12-.14.12-.18a1.67 1.67 0 0 1 .29-.35v-.12h-.12a2.66 2.66 0 0 1-.35.24 4.81 4.81 0 0 1 .06-.94c0-.08.06-.14.18-.18a.23.23 0 0 0 .18-.24 1.29 1.29 0 0 1-.41-.06.45.45 0 0 1 .12-.21.18.18 0 0 0 0-.27.63.63 0 0 1-.24.12.32.32 0 0 1 .06-.32 5 5 0 0 1 .65-.56c-.24-.16-.43-.16-.59 0-.16-.16-.16-.29 0-.41h.21a1.14 1.14 0 0 1-.32-.32q0-.09.21-.44a1.19 1.19 0 0 0 .21-.35.15.15 0 0 0-.06-.18.49.49 0 0 0-.27-.06 2.6 2.6 0 0 0 .18-.47l.24-.06a.51.51 0 0 1-.06-.24v-.18h-.18a.84.84 0 0 1-.12-.15.28.28 0 0 1-.06-.15c0-.12.06-.27.29-.47l.29-.24.06-.18a.63.63 0 0 0-.35.12A1.65 1.65 0 0 0 320 40c.08-.08.14-.12.18-.12a5.57 5.57 0 0 1 .06-1.12q.12-.24-.06-.35a1.65 1.65 0 0 0 .35-.29l-.15-.29s0-.12.12-.24l.21-.24a.17.17 0 0 1-.12-.06.17.17 0 0 0-.12-.06l.06-.06v-.47c0-.08 0-.12.06-.12a.68.68 0 0 0 .12-.65l.29-.29v-.06a.46.46 0 0 0-.18.06l.18-.5a4.67 4.67 0 0 1 .18-.44H321a.17.17 0 0 0-.12.06 1.84 1.84 0 0 1 .12-.41q.24-.65.35-1v-.06l.35-.71a5.47 5.47 0 0 0 .35-.83c.16-.39.26-.63.29-.71q.53-.71.77-1.06a9.53 9.53 0 0 1 .88-.88.79.79 0 0 1 .32-.27 1.81 1.81 0 0 0 .32-.21 1.24 1.24 0 0 0 .29-.24l.24-.24a6.64 6.64 0 0 1 1.42-.83 2.73 2.73 0 0 1 1.47.06s.08.06.12.18a1.38 1.38 0 0 1 .59.47l.18.18a4.57 4.57 0 0 1 .29.56 4.26 4.26 0 0 0 .29.56 1.13 1.13 0 0 1 .18.88 1.9 1.9 0 0 1-.18.53q-.3.71-.71 1.95t-.53 1.41l-.28 1.2a14.68 14.68 0 0 0-.53 1.77 8.11 8.11 0 0 0-.24.94q-.06.12-.41.71a.15.15 0 0 0 0 .24q.29.24 0 .47a.26.26 0 0 0-.06.35.69.69 0 0 1-.24.83 1.33 1.33 0 0 0-.18.29l.06.06.06-.06h.18l-.12.94a.1.1 0 0 1-.12.12.29.29 0 0 0-.32.12.57.57 0 0 0-.15.24.05.05 0 0 0-.06.06.12.12 0 0 0 0 .09l.09.12a.29.29 0 0 1 .06.15.38.38 0 0 1 0 .29.59.59 0 0 1-.35.15c-.16 0-.2.11-.12.27a.72.72 0 0 0 .29-.18c.16 0 .24 0 .24.12a1.88 1.88 0 0 1 0 .29 1.77 1.77 0 0 0 0 .29v.18c.16 0 .24 0 .24.18v1.12a1 1 0 0 1 .06.41 2.38 2.38 0 0 0 0 .44v.18a.4.4 0 0 1-.18 0 .51.51 0 0 1-.35-.18.76.76 0 0 0-.35-.18s-.1 0-.18.12l-.12.18v.06a.44.44 0 0 0 .06.18.37.37 0 0 0 .18-.09.35.35 0 0 1 .18-.09c.16-.08.26-.08.29 0s0 .08-.15.12a.43.43 0 0 0-.21.15.24.24 0 0 0 0 .24.33.33 0 0 0 .29.18.58.58 0 0 1 .29.09.66.66 0 0 0 .12-.24.62.62 0 0 1 .12-.24.46.46 0 0 1 .06.18 11.41 11.41 0 0 0 .12 1.24.47.47 0 0 1 .09.24 1.9 1.9 0 0 1 0 .24l.29.88c.12.24.1.39-.06.47l-.06.06a2 2 0 0 0 .29.47c0 .12.14.16.29.12a1.12 1.12 0 0 1 .35-.06.36.36 0 0 0 .41-.29.54.54 0 0 1 .35-.41 1.57 1.57 0 0 1 .29-.41 3.52 3.52 0 0 1 .29-.35q.29 0 .29-.41s.1-.14.29-.29h.06a.17.17 0 0 0 .06-.12q0-.23.53-.77l.47-.59a6 6 0 0 0 .59-.71q.71-.88 1.3-1.71l.53-.8q.41-.62.65-.91c.31-.37.59-.69.87-1l.07-.13a1.29 1.29 0 0 0 .18-.35.29.29 0 0 0-.06-.15.29.29 0 0 1-.06-.15.87.87 0 0 1 .18-.29.62.62 0 0 0 0-.53c.24 0 .39-.26.47-.65a.77.77 0 0 1 0-.18l.06-.24a1 1 0 0 0 0-.24l.15-.15a.8.8 0 0 0 .15-.21 1.88 1.88 0 0 1 .12-.47 2.26 2.26 0 0 1 .24-.53 4.28 4.28 0 0 1 .65-1.18 46.53 46.53 0 0 1 3.45-4.39 24.23 24.23 0 0 1 1.89-1.77q1.53-1.24 2-1.59a13.58 13.58 0 0 1 4.66-1.95 13 13 0 0 1 3.07 0 8.91 8.91 0 0 0 1.53 0 3.2 3.2 0 0 0 .71-.12l.71-.18a3.56 3.56 0 0 1 1.56.35 5.33 5.33 0 0 1 1.15.71q.41.35 1.18 1.06a2.81 2.81 0 0 1 .41.53 4 4 0 0 1 .33.71 5.83 5.83 0 0 0 .26.65 3.72 3.72 0 0 0 .47.88.38.38 0 0 0 .38 0 .29.29 0 0 0 .21-.27.55.55 0 0 1 .18.56 1.86 1.86 0 0 1-.24.68l-.59.53-.53.59a.34.34 0 0 0-.5 0 .86.86 0 0 0-.32.56 10 10 0 0 0-.26 1.06c-.1.47-.17.79-.21.94l-.59 2.12a12.47 12.47 0 0 0-.53 2l-.06.88a8.16 8.16 0 0 0-.06 1 12.82 12.82 0 0 1-.06 2.06 18.4 18.4 0 0 0 .24 4.24 12.84 12.84 0 0 0 3.83-3.54q1.59-2.12 1.71-2.24a3.37 3.37 0 0 1 2.18-.88c0 .08-.08.2-.24.35s-.22.28-.18.35a.24.24 0 0 0 .09.15c.06.06.07.11 0 .15a.57.57 0 0 1-.24.29c0 .08 0 .1.15.06h.2-.07c-.07.15-.13.25-.17.3s0 .15.06.27a.2.2 0 0 0 .18-.09 1.85 1.85 0 0 0 .12-.21c0-.08.08-.12.12-.12l.09-.09a.08.08 0 0 1 .06 0 .81.81 0 0 0 .21-.12.66.66 0 0 0 .12-.24.36.36 0 0 1 .24-.24q-.12.71-.06.71s.08 0 .12-.12.07 0 .09-.09a.57.57 0 0 1 .15-.21h.12a.16.16 0 0 0 .12-.24c.12 0 .27 0 .44-.18a.75.75 0 0 1 .44-.24 6.14 6.14 0 0 1-.71 1.65s.11.07.19-.03zm-1.53-.91s0 .08-.12.12-.18 0-.18-.06z"/><path class="cls-1" d="M361.25 47.61l.35-.12c-.08-.16-.19-.12-.35.12zM363.31 45.13l.24-.24a.34.34 0 0 0-.24.06l-.15.18-.15.18a.05.05 0 0 1 .06.06zM366 43.19l-.12.06c.16 0 .24 0 .24-.18-.04.04-.12.08-.12.12zM365.32 44.43a.63.63 0 0 1-.21.12.62.62 0 0 0-.21.12.61.61 0 0 0-.12.21.8.8 0 0 1-.18.27 1 1 0 0 1-.24.15c-.12.06-.18.11-.18.15a.45.45 0 0 0 .18.06 4.18 4.18 0 0 0-.71.65l-.59.65-.77.59a1.16 1.16 0 0 0-.53.53c-.08.2 0 .24.12.12a.9.9 0 0 0 .24-.18c.08 0 .12-.08.12-.12l.94-.71a2 2 0 0 0 .35-.27l.29-.27c.16-.12.24-.2.24-.24s.08 0 .12-.12.1-.16.18-.12-.08 0-.12-.12.37-.22.88-.77a1.47 1.47 0 0 0 .41-1.06s0 .1-.12.18-.09.14-.09.18zM363.61 48.08l-.24.06q.18.24.24-.06zM324.46 47.2a.88.88 0 0 1-.71-.35c-.08 0-.13 0-.15.06a.25.25 0 0 0 0 .12v.12c0 .12 0 .18.12.18h.53a.52.52 0 0 0 .24-.06zM349.16 47.55l.24.18c.08 0 .08-.08 0-.12a.53.53 0 0 0-.24-.06zM350.75 34.23a17.69 17.69 0 0 0-1.75 1.65q-.65.59-.65.29a3.27 3.27 0 0 1 .47-.5 2.25 2.25 0 0 0 .41-.44q-.53-.12-1.53 1L346.27 38a5.27 5.27 0 0 0-.59.77q-.35.53-.53.77a.69.69 0 0 1-.12.18.37.37 0 0 0-.09.18.77.77 0 0 0 0 .18c-.08.16-.19.34-.32.56s-.23.36-.27.44a19.51 19.51 0 0 0-1.71 3.77 2.12 2.12 0 0 1-.09.35.33.33 0 0 1-.12.12l-.15.12s0 .18.06.41a.91.91 0 0 1 0 .47.7.7 0 0 1-.09.24.72.72 0 0 0-.09.24.46.46 0 0 0 0 .15.49.49 0 0 1 0 .15.19.19 0 0 1-.12.18c0 .08 0 .16.12.24a1.14 1.14 0 0 0 .94.24 1.33 1.33 0 0 0 .5-.15 1.35 1.35 0 0 1 .5-.15h.3a.24.24 0 0 0 .18-.06l.15-.15.15-.15a1 1 0 0 1 .83 0 .5.5 0 0 1 .12-.32 1 1 0 0 1 .35-.27 3.33 3.33 0 0 1 .41-.18l.47-.15.35-.09a.72.72 0 0 0-.18-.12 3.38 3.38 0 0 1 .38-.27 3 3 0 0 0 .41-.29 3.34 3.34 0 0 1 .38-.29 3.27 3.27 0 0 0 .41-.32l.33-.32a2.72 2.72 0 0 0 .32-.38l.24-.38a1.77 1.77 0 0 0 .18-.44l.12-.47v-.5-.62a6.19 6.19 0 0 0 .24-1.12q.12-1.59.24-2.42a10.92 10.92 0 0 1 .22-1.15q.12-.88.18-1.36a2.86 2.86 0 0 1 .09-.56c.06-.26.11-.44.15-.56q.1-.59-.37-.29zM360.75 47.52a.61.61 0 0 0 .09-.32l-.35.35c.11.08.2.07.26-.03zM347.72 49.08a.64.64 0 0 0-.27.24.62.62 0 0 0 .53 0v-.18c0-.08-.13-.14-.26-.06zM348.87 48.14a.26.26 0 0 0 .06-.35q-.24.21-.06.35zM360.66 47.85q.29.24.41-.12a.7.7 0 0 0-.21.06.66.66 0 0 1-.2.06zM365.38 43.6a.57.57 0 0 0-.35.47q.35-.07.35-.47zM360.07 48.14q.18.24.59-.18a1.39 1.39 0 0 0-.59.18zM363.78 43.36v.24a.67.67 0 0 1 .18-.12.72.72 0 0 0-.18-.12zM364.08 44.9c-.08 0-.18 0-.29.15a.61.61 0 0 0-.18.38q.29-.06.47-.53zM360.54 50.79a1 1 0 0 0 .24-.06c-.04-.11-.12-.09-.24.06zM323.63 45.07a.05.05 0 0 1 .06.06L324 45a.61.61 0 0 1 .24.12c.16 0 .2.08.12.24v.18a.71.71 0 0 0 .18.35s0-.1.12-.18a1.24 1.24 0 0 1 0-.77v-.18l-.77.18s-.1.06-.26.13zM310.84 38.23c.16-.16.08-.3-.24-.41l.35-.06q.12-.12-.06-.18a.3.3 0 0 0-.35 0 .64.64 0 0 0-.12.24q-.06.24 0 .29c.16.16.3.2.42.12zM310.84 37.29v.12s0 .06.09.06.09 0 .09.06.09-.12 0-.24A.7.7 0 0 1 311 37a.78.78 0 0 1 0-.18.87.87 0 0 0 0-.15.55.55 0 0 0-.06-.15c-.08-.08-.14-.06-.18.06l-.06.12a.63.63 0 0 1-.21.12.64.64 0 0 0-.21.12.93.93 0 0 0 .27.15.5.5 0 0 1 .29.2zM310.84 38.47q-.24.06.24.41c-.08-.27-.16-.41-.24-.41zM316.32 38.41c-.16.12-.08.32.24.59a.48.48 0 0 0-.06-.59c-.04-.08-.1-.08-.18 0zM316.2 35.88c.08-.12 0-.27-.12-.47a2.24 2.24 0 0 1-.29.41c.21.11.33.18.41.06zM303.82 31.4l.06-.06c-.08 0-.16 0-.24.12.08.07.14.05.18-.06zM311.16 39.33c0-.1-.11-.11-.26 0a.44.44 0 0 1-.09-.24c0-.12-.09-.16-.21-.12a1.71 1.71 0 0 1 .12.35.45.45 0 0 0-.06.18.39.39 0 0 0 .21.09.42.42 0 0 1 .21.09.44.44 0 0 0 .08-.35zM311.07 40.24q-.24.35.12.47a.15.15 0 0 0 .24 0 .4.4 0 0 0 .12-.29c-.16.08-.32.02-.48-.18zM305.77 33.69a3.85 3.85 0 0 0-.77.53 4.87 4.87 0 0 0-1.06 1.3 15.49 15.49 0 0 0-.83 1.53 17.61 17.61 0 0 0-.77 1.59 18.3 18.3 0 0 0-.77 2 15.54 15.54 0 0 1-.77 1.95 14.44 14.44 0 0 0-.77 1.95 6.48 6.48 0 0 0-.18 2.06c-.08 0-.06.22.06.65a3.46 3.46 0 0 0 .29.83 1.59 1.59 0 0 0 .94.88q.53.18 1.36-.71a5.65 5.65 0 0 0 1-1.47 5.71 5.71 0 0 0 .38-.83q.21-.53.33-.77a3.41 3.41 0 0 0 .32-.88 5 5 0 0 1 .21-.71 30.36 30.36 0 0 0 .94-3.42l.35-1.83a5 5 0 0 0 .12-.88.83.83 0 0 0 0-.41.81.81 0 0 1 0-.41q.06-1.59.12-1.89s0-.2.06-.47l.09-.62a.36.36 0 0 0-.09-.32 2.11 2.11 0 0 0-.56.35zM288.79 28c-.08.08-.06.16.06.24a.22.22 0 0 0-.06-.24zM281.83 36a.27.27 0 0 1 .32 0c.14.06.23.07.26 0s.3-.19.44-.44a2.4 2.4 0 0 1 .33-.5.68.68 0 0 1 .26-.12l.27-.06.12-.12.06-.29a.89.89 0 0 0 .21-.56c0-.14-.21-.21-.56-.21a.64.64 0 0 1 .15-.32q.15-.21.35-.44l.26-.29A12.67 12.67 0 0 0 285 31q.53-1.42.18-1.65-.18-.18-1.42.47a8.88 8.88 0 0 0-2.59 2.06 13.57 13.57 0 0 0-1.64 2.12 16.47 16.47 0 0 0-1.24 4.36.29.29 0 0 1-.06.15.28.28 0 0 0-.06.15v.12q.12.3-.12.41a2.49 2.49 0 0 0 .06.41 2.55 2.55 0 0 1 .06.41 1 1 0 0 1-.09.38.91.91 0 0 0-.09.29 1.41 1.41 0 0 0 .12.38q.41.47 1.06-.41a.47.47 0 0 0-.18-.06h-.06c.12 0 .16-.1.12-.18l-.18-.18-.06-.06q.71-.12.77-.53c0-.08-.06-.14-.18-.18a6.67 6.67 0 0 0 .71-.41 2.72 2.72 0 0 0-.35-.24q.29.18.35 0a.53.53 0 0 0-.24-.15.55.55 0 0 0-.29 0 1.11 1.11 0 0 1-.35.06.24.24 0 0 1 .18-.06q.47-.12.18-.41a.31.31 0 0 0 .27-.12 1 1 0 0 0 .15-.32c0-.14.08-.21.12-.21l.41-.65a1.1 1.1 0 0 1 .29-.65q.18-.12.88.06a1.19 1.19 0 0 1 .12-.36zM288.67 29.42a.1.1 0 0 0-.06.09.28.28 0 0 0 .29.24c0-.16-.08-.29-.12-.41zM289.2 29.39a.36.36 0 0 0 .12.47q.23-.23-.12-.47zM288.55 28.86c.16-.12.18-.22.06-.29s-.26.13-.06.29zM273.57 36.76q.12.18.29 0-.11-.18-.29 0zM273.63 42.54q.12-.12 0-.18t0 .18zM273.66 38.32c.06 0 .09 0 .09-.09a.24.24 0 0 1-.18-.06.14.14 0 0 0 .09.15zM323.81 44.13l.12.06c.08-.16 0-.27-.12-.32a1 1 0 0 1-.29-.15.5.5 0 0 0 .29.41zM323.63 45.43l.12.15c0 .06.08.09.12.09h.06v-.18l-.24-.12zM324 46.67l.24.06a.55.55 0 0 0 .41-.41l-.65.29zM316.41 37.17c-.06-.08-.11-.12-.15-.12l-.29.18V37.87a.46.46 0 0 0 .29.06v.24a.72.72 0 0 0 .41-.65.25.25 0 0 0-.09-.15 1.85 1.85 0 0 1-.17-.2zM323.51 44.6c-.28 0-.35.16-.24.35a1.38 1.38 0 0 0 .24-.35zM290 33.16l-.12-.18a.26.26 0 0 0-.06.35zM323.34 45.49a1.9 1.9 0 0 1 .24-.29h-.24l-.06.18v.18s0 .1.12.18a.68.68 0 0 1 .18-.12.66.66 0 0 0-.24-.13zM364.49 43.84l-.12.12q-.24.24-.18.35a.88.88 0 0 0 .44-.29.34.34 0 0 0 0-.47l-.18.18z"/></g></g></svg>