<svg xmlns="http://www.w3.org/2000/svg" viewBox="0 0 388.9 87.31"><defs><style>.cls-1{fill:#231f20}</style></defs><title>Asset 1</title><g id="Layer_2" data-name="Layer 2"><g id="Layer_1-2" data-name="Layer 1"><path class="cls-1" d="M13.92 26.08a.53.53 0 0 1 .06-.29 1.52 1.52 0 0 1 .19-.23l.19-.19a6.85 6.85 0 0 0 .36-.65 2.56 2.56 0 0 1 .36-.59 2 2 0 0 1 .42-.29 1.94 1.94 0 0 0 .42-.29 2.53 2.53 0 0 0 .36-.68 4 4 0 0 0 .23-.62 1.16 1.16 0 0 0 .16-.39 1.1 1.1 0 0 1 .23-.46 2.33 2.33 0 0 0 .52-1 1.38 1.38 0 0 1 .13-.72.75.75 0 0 1 .29-.13c.15 0 .23-.09.23-.13a2.74 2.74 0 0 0 .13-.46q.06-.13.46-.78a3.82 3.82 0 0 1 .46-.52l.46-.45q.13-.2.39-.65a3.19 3.19 0 0 1 .46-.65l.42-.42a6.43 6.43 0 0 0 .52-.58 2.56 2.56 0 0 0 .36-.62 7.17 7.17 0 0 1 1.17-1.82s.1-.16.29-.36a3.47 3.47 0 0 1 .49-.42 7 7 0 0 0 1.1-.78 6.93 6.93 0 0 0 .65-.88 2.94 2.94 0 0 1 .78-.88 3 3 0 0 0 .72-.58c0-.22 0-.33.06-.33a3.17 3.17 0 0 1 .65-.58q.71-.71 2-2.21t1.88-2.15a2 2 0 0 1 .48-.36q.23-.13.58-.29a1.74 1.74 0 0 0 .42-.3s.11 0 .19-.13.15-.13.2-.13a1 1 0 0 1 .29-.16l.36-.16a4.26 4.26 0 0 1 1.1-.46l.52-.06s.11 0 .19-.13S36 1 36.08 1a4.54 4.54 0 0 1 1.17-.2.59.59 0 0 1 .26.07.57.57 0 0 0 .26.06q.26 0 .29-.06a.51.51 0 0 1 .1-.13A3.8 3.8 0 0 1 39.53 0a1.71 1.71 0 0 1 1 .26.52.52 0 0 1 .19.07.71.71 0 0 1 .28.14h.13q.19-.06.19.26a8.82 8.82 0 0 0 1.23.33.52.52 0 0 1 .2.06.49.49 0 0 0 .19.06 3.84 3.84 0 0 0 .65-.13q1.1-.39 1.82 1.14a9.14 9.14 0 0 1 .84 3.15 7.31 7.31 0 0 1 0 1.53q-.1.81-.2 1.23t-.45 1.5q-.29 1.07-.36 1.27-.19.65-.84 2.34a8.61 8.61 0 0 1-.46 1l-.23.65a6.82 6.82 0 0 1-.29.72l-.46.94a5.45 5.45 0 0 1-.58 1 1.38 1.38 0 0 1-.26.33 1.37 1.37 0 0 0-.26.33.63.63 0 0 0-.1.32.64.64 0 0 1-.1.33 1.69 1.69 0 0 1-.39.71q-.19.39-2.79 4.62-1.69 2.67-3.31 4.74a10.2 10.2 0 0 0-.88 1.1q-.55.75-1 1.33a5.2 5.2 0 0 1-1 1q-2.73 2.47-4.61 2.15a2.34 2.34 0 0 1-1.85-1.62A4.06 4.06 0 0 1 26 30q.06-.26.32-1.69.06-.26.23-.78l.23-.71a7.48 7.48 0 0 0 .13-.75 4.07 4.07 0 0 1 .13-.68 15.3 15.3 0 0 1 .58-1.69A26.63 26.63 0 0 1 30.1 19q2-3 3.25-4.75.26-.39 1.56-2a12.54 12.54 0 0 0 .85-1.25 4.55 4.55 0 0 1 .46-.65l.32-.19a.55.55 0 0 0 .06-.46.72.72 0 0 0 .1-.36 1.33 1.33 0 0 1 .1-.42.81.81 0 0 1 .2-.26l.23-.19q.71-1 .52-1.37-.13-.13-.52.26a22.6 22.6 0 0 0-2 2.27q-1.27 1.56-1.66 2-2.1 2.29-3.57 3.66l-1.88 1.62a26.81 26.81 0 0 0-2.15 2q-2.53 2.67-4 4.48c0 .09-.28.42-.71 1s-.78 1-1 1.33q-.19.2-.91.81a6.63 6.63 0 0 0-1 1.07 42.13 42.13 0 0 1-3.18 4q-.72.85-3.45 5.07a31.69 31.69 0 0 0-1.93 2.93 16.75 16.75 0 0 0-1.2 2.73q-.59 1.5-.85 2.08-.45 1.17-.74 2.27a15 15 0 0 0-.78 6 1.49 1.49 0 0 0 .46.84A3 3 0 0 1 7 54a2.91 2.91 0 0 0 .32.42q.46.46 1.82 1.63a7.22 7.22 0 0 0 1 .46 2 2 0 0 0 .26.2.64.64 0 0 0 .33.13.35.35 0 0 0 .29 0 .78.78 0 0 1 .29-.06l.29.16a1 1 0 0 1 .29.29 1.91 1.91 0 0 0 .19.26l.39.16a1.36 1.36 0 0 0 .32.1 3 3 0 0 0 1 .26 7.38 7.38 0 0 1 .91.13 10 10 0 0 0 2.67.33q1.88-.07 2.47-.13a4.56 4.56 0 0 0 1-.13.76.76 0 0 0 .23-.07.7.7 0 0 0 .23-.13h.39a.08.08 0 0 0 .13 0v-.26a5 5 0 0 1 1.1-.36 7.61 7.61 0 0 0 1-.29 6.25 6.25 0 0 1 .94-.42q.75-.29 1.14-.49 1.23-.78 3.9-2.18t4-2.18l2-1.23a6.81 6.81 0 0 0 .88-.42 4.84 4.84 0 0 0 1.14-.75 2.51 2.51 0 0 0-.72-.16 3.68 3.68 0 0 0-.68 0l-.75.1a5.26 5.26 0 0 1-.65.06 1.89 1.89 0 0 0-.65.13c-.09 0-.19.08-.32.23a1.19 1.19 0 0 1-.33.29.41.41 0 0 1-.19.1h-.16a.66.66 0 0 1 0-.26s-.06-.08-.06-.1-.09-.05-.26-.1a7.34 7.34 0 0 0-1.92.16 10.66 10.66 0 0 1-1.66.23H27.7a3.12 3.12 0 0 1-1.43-.45 1.57 1.57 0 0 0 .42-.1.44.44 0 0 0 0-.23.15.15 0 0 0-.13-.16c-.09 0-.13-.05-.13-.1a2.35 2.35 0 0 1-.13-.32 2.69 2.69 0 0 0-.1-.26.13.13 0 0 0-.13-.06.63.63 0 0 0-.29.13.7.7 0 0 1 0-.23.31.31 0 0 1 .13-.16.32.32 0 0 0 .13-.16l.13-.39a2 2 0 0 1 .23-.49 1 1 0 0 1 .32-.39s.1 0 .16.13.12 0 .16-.13l-.19-.52a1.37 1.37 0 0 1 .06-.71 2.1 2.1 0 0 1 .39-.62 3 3 0 0 1 .49-.46 3.83 3.83 0 0 1 .68-.36 6.28 6.28 0 0 1 .68-.26l.75-.2a2 2 0 0 0 .58-.19 6.23 6.23 0 0 0 .94-.16 5 5 0 0 0 1.14-.36 5.39 5.39 0 0 1 .71-.26 2.26 2.26 0 0 0 .72-.13 21.22 21.22 0 0 1 2.4-.36l2.08-.23a2.74 2.74 0 0 1 .75-.1 3.07 3.07 0 0 0 .94-.16 1.17 1.17 0 0 0 .36-.2 4.58 4.58 0 0 1 .42-.26 9.32 9.32 0 0 0 1.23-.71l.94-.85a6.44 6.44 0 0 1 .88-.62 1.91 1.91 0 0 1 1.1-.32 2.29 2.29 0 0 1 1.1.42 2.84 2.84 0 0 1 .72.71 7.83 7.83 0 0 1 .26 1l.19.2a1.35 1.35 0 0 1 .1.26.4.4 0 0 0 .1.19 6.32 6.32 0 0 1 .39 1.1l.26.13a1 1 0 0 1-.1.36 1.07 1.07 0 0 0-.1.29 2.74 2.74 0 0 0 .06.52 1.67 1.67 0 0 1 0 .65 21.62 21.62 0 0 1-.52 2.34q-1.11 4.36-1.23 4.81c0 .13-.11.38-.2.75a6.57 6.57 0 0 1-.26.88 9.57 9.57 0 0 0-.85 2.15 2.67 2.67 0 0 1-.39 1s-.06.43-.19 1.17c-.09.3-.19.71-.33 1.24a9.73 9.73 0 0 1-.32 1.1 9.48 9.48 0 0 1-.55 2.03 14 14 0 0 0-1 2.41v.39a1.48 1.48 0 0 1-.1.46 1.08 1.08 0 0 1-.16.49 2.93 2.93 0 0 0-.23.49 3.37 3.37 0 0 1-.26.65 2.63 2.63 0 0 1-.26.46l-.23.68a6.15 6.15 0 0 1-.29.75q-.52.84-.58.91a1.31 1.31 0 0 1-.16.36l-.23.42c0 .13-.12.31-.23.55s-.19.41-.26.52a4.12 4.12 0 0 0-.26.58q-.16.42-.23.62-.85 1.56-2.15 4.71t-2 4.58a27 27 0 0 1-2.6 4.55c-.43.52-.72.76-.85.71a.39.39 0 0 1-.26-.49 1.43 1.43 0 0 1 .26-.62 1.65 1.65 0 0 1 .36-.39 1.08 1.08 0 0 0 .36-.52s.1-.06.16-.19a2.64 2.64 0 0 0 .13-.29.4.4 0 0 0 0-.26.74.74 0 0 1-.06-.23.62.62 0 0 1 .19-.46c.13-.13.22-.2.26-.2q.13-.33-.06-.39a.71.71 0 0 1-.26-.13 1.05 1.05 0 0 1 .1-.29c.06-.15.14-.31.23-.49a1.16 1.16 0 0 0 .13-.33 4.57 4.57 0 0 0 .1-.71 4.28 4.28 0 0 1 .1-.71 2.48 2.48 0 0 0 .06-.91.06.06 0 0 0 .07-.06c.09-.13 0-.24-.13-.33s-.26-.26-.13-.39l.13-.13a5.5 5.5 0 0 1 .06-.58 7.08 7.08 0 0 1 .13-.71 1.89 1.89 0 0 1 .1-.46 1.9 1.9 0 0 0 .1-.46 1.5 1.5 0 0 0-.13-.46q.26-.06.52-1.17a1 1 0 0 1-.06-.32.78.78 0 0 0 .13-.29 2 2 0 0 1 .13-.36 2.39 2.39 0 0 0 0-.78c.22 0 .35 0 .39-.19s0-.26-.26-.52a9.37 9.37 0 0 0-.71 1.75A3.55 3.55 0 0 1 32.7 76a.26.26 0 0 0-.06.2c-.09.17-.17.22-.26.13s-.12-.16-.1-.23a1.4 1.4 0 0 1 .13-.26.57.57 0 0 0 .1-.23.26.26 0 0 0-.26-.2c-.09 0-.15 0-.19-.13a.73.73 0 0 0 .13-.26q.06-.46-.13-.46c-.09 0-.15.09-.19.26a.7.7 0 0 0 0 .39.72.72 0 0 1 0 .39.68.68 0 0 1-.13.26.69.69 0 0 0-.13.39.49.49 0 0 0 .13.29.5.5 0 0 1 .13.23 1.8 1.8 0 0 1-.33.71 2.93 2.93 0 0 0-.33.58q-.33 1-.46 1.56-.19.06-.19-.39v-.46V76.91l.2-.39.19-.39c0-.22.1-.56.16-1s.12-.82.16-1a3.19 3.19 0 0 1 .16-.52 2.31 2.31 0 0 0 .16-.71 2.77 2.77 0 0 0 0-.36 2.58 2.58 0 0 1 0-.36 9.34 9.34 0 0 1 .26-.94 3.45 3.45 0 0 0 .19-.88 1.68 1.68 0 0 1 .06-.52.31.31 0 0 0 0-.46.79.79 0 0 1 .1-.26.78.78 0 0 0 .1-.26 7.42 7.42 0 0 0 .13-.88 6.89 6.89 0 0 1 .13-.88 3.57 3.57 0 0 0 .19-.68c0-.24.09-.51.13-.81a7.08 7.08 0 0 1 .13-.71q.13-.85.55-2.5t.55-2q.13-.52 1.17-3.71a1.18 1.18 0 0 0 .06-.84.65.65 0 0 0-.52-.52c-.13 0-.17 0-.13.26a.29.29 0 0 1-.33-.06l-.58.58q-.46.46-.58.46a.39.39 0 0 1-.39-.07 1 1 0 0 0-.13.16 1.19 1.19 0 0 1-.13.16 6.61 6.61 0 0 1-.52.46 1.85 1.85 0 0 1-.46.26q.26.52.23.58a2 2 0 0 1-.36.33c-.22.17-.33.3-.33.39a.29.29 0 0 0 .1.26.48.48 0 0 1 .16.19c0 .22 0 .34-.13.36a.6.6 0 0 1-.32 0 .41.41 0 0 0-.33 0q-.19.19-.19.29a.57.57 0 0 0 .16.29.4.4 0 0 1 .1.39.87.87 0 0 0-.78-.26 2 2 0 0 1-.46.13.72.72 0 0 1-.26-.26.48.48 0 0 0-.26.16 1.75 1.75 0 0 0-.13.55 1.91 1.91 0 0 0 .06.46.49.49 0 0 0-.19.07.53.53 0 0 1-.2.06 3.61 3.61 0 0 0-.78.36 2.92 2.92 0 0 1-.91.36h-.72a3.69 3.69 0 0 0-.39.32.73.73 0 0 1-.52.07q-.19.06-1 .46-.13.13-.19.06l-.06.13v.33a.32.32 0 0 1-.39.2 3.26 3.26 0 0 0-.55.07 2 2 0 0 0-.49.13c-.22 0-.51.09-.88.13s-.66.09-.88.13a1.57 1.57 0 0 1-.49.06 1.54 1.54 0 0 0-.49.07q-.33.06-.39.23a.9.9 0 0 0 0 .49l-.84-.13a.77.77 0 0 0-.26.1c-.13.06-.22.09-.26.06l-.23-.13a.58.58 0 0 0-.23-.1c-.09 0-.14 0-.16.07a.11.11 0 0 1-.1.07h-.46a1.09 1.09 0 0 0-.68.29 1.1 1.1 0 0 1-.68.29 12.4 12.4 0 0 1-1.82-.26 14.65 14.65 0 0 0-1.75-.32 4.63 4.63 0 0 1-2.15-.39l-1.5-.78-.78-.39a4.3 4.3 0 0 0-.52-.13 4.73 4.73 0 0 1-.52-.13A13.07 13.07 0 0 1 4.62 62L4 61.44l-.91-.71A10.63 10.63 0 0 1 1.76 59a6.16 6.16 0 0 0-.39-.65 1.45 1.45 0 0 1-.26-.46 1.36 1.36 0 0 0-.26-.46 7 7 0 0 1-.85-3.6 6.37 6.37 0 0 1 .46-2.4q.54-1.5.54-1.82a2.88 2.88 0 0 1 .52-1.11l.65-.71a2.24 2.24 0 0 1 .88.06c.41.09.62.2.62.33s0 0-.06.1-.13.12-.13.16a2.52 2.52 0 0 1 0 .29.55.55 0 0 1-.1.29.65.65 0 0 1-.13.26l-.25.36c-.06.11-.08.19 0 .23s.13 0 .26 0a.36.36 0 0 1 .32 0 .41.41 0 0 1 .2.23q.07.16.46.16a.58.58 0 0 0-.2.65q-.39-.19-.39.06a.79.79 0 0 0 .39.78.27.27 0 0 0 .26 0q-.13.07.39-.58.33-.19.2-1.23a1.58 1.58 0 0 0 .1-1 8.24 8.24 0 0 1-.1-.88s.13-.43.39-1.17a1.86 1.86 0 0 0-.16-.91 1.73 1.73 0 0 1-.16-.85 19.16 19.16 0 0 1 .91-2.79A26.3 26.3 0 0 0 7.09 39a1.46 1.46 0 0 1 .91-.87 2 2 0 0 0 1-.75c0-.13.11-.3.2-.52a1.41 1.41 0 0 1 .26-.46 3.89 3.89 0 0 0 .2-.58h.26a.32.32 0 0 1 .06-.16.32.32 0 0 0 .02-.16 3.52 3.52 0 0 0 .16-.42 2 2 0 0 1 .23-.49l.41-.59.39-.55a2.41 2.41 0 0 0 .13-.58 2.34 2.34 0 0 1 .13-.58l.26-.39.33-.19q.45-.06.58.58c0-.13 0-.21.06-.23a.24.24 0 0 1 .2 0 .32.32 0 0 0 .32-.06 2 2 0 0 1-.2-.4.5.5 0 0 1 .06-.19.24.24 0 0 0 0-.19.22.22 0 0 0-.13-.1.4.4 0 0 1-.16-.1.81.81 0 0 1 .2-.46s.05-.11.16-.19a.58.58 0 0 0 .19-.23.85.85 0 0 0 0-.26v-.23a1 1 0 0 1 .32-.42 1.43 1.43 0 0 0 .33-.36 8.56 8.56 0 0 0 .39-1.17.75.75 0 0 0 .13-.29 2.09 2.09 0 0 1 .13-.36l.26-.13q.45-.65-.06-.85a1.77 1.77 0 0 0-.9.01zm0 0a2.48 2.48 0 0 1-.1.71c-.06.22-.19.26-.36.13s.02-.45.46-.84zM29.58 9.7q.13-.06.2-.39c0-.13.11-.11.19.06q.06-.39.62-.55t.62-.36q-.39-.32-1 .13-.89.65-.63 1.11zm2.54 64.61a1.8 1.8 0 0 0 .65-.84q-.52-.33-.71 0a.68.68 0 0 0 .06.84zm.06 3.44c-.22-.39-.11-.74.33-1a1.27 1.27 0 0 1-.16.52 1.25 1.25 0 0 0-.17.48zm2.73-73.84q-.26-.32-.78.13l-.23.26a1 1 0 0 1-.29.26.45.45 0 0 1-.23.1.45.45 0 0 0-.23.1l.26.19.32-.19a.67.67 0 0 1 .27-.13 1.48 1.48 0 0 0 .58-.26s.08-.05.1-.16a.48.48 0 0 1 .23-.3zM34 71.77a1 1 0 0 0 .45-.62.48.48 0 0 0-.19-.62q-.33-.19-.39 0a1.51 1.51 0 0 0 0 .68 5 5 0 0 1 .13.56zM37.19 5a1.41 1.41 0 0 1-.36-.13 4.32 4.32 0 0 1-.46-.23.51.51 0 0 1-.23-.29 2 2 0 0 0-.2.46 2 2 0 0 0 .2.46 2 2 0 0 1-.59-.13.84.84 0 0 0-.65 0 .61.61 0 0 0-.46.46 1.14 1.14 0 0 0-.06.36.34.34 0 0 1 0 .2l-.23.16a.93.93 0 0 0 .65.33 1.55 1.55 0 0 0 .91-.33 1.08 1.08 0 0 0 .13-.16.48.48 0 0 1 .16-.23h.26a.49.49 0 0 0 .26-.1s.06 0 .06-.13v-.23a1 1 0 0 0 .29-.26 1 1 0 0 1 .32-.21zm-.32-2a1.05 1.05 0 0 0 .26.16l.33.16a1 1 0 0 1-.06-.58.74.74 0 0 1 .39-.26q-.26-.52-.72-.32t-.21.78zm2.21-.58c.17.26.33.39.46.39a1.11 1.11 0 0 0 .46-.26q-.15-.26-.93-.2zM74.3 25.43a3.93 3.93 0 0 1 1.72.39 5.9 5.9 0 0 1 1.27.78q.45.39 1.3 1.17a3.06 3.06 0 0 1 .46.58 4.48 4.48 0 0 1 .36.78 6.41 6.41 0 0 0 .29.71 4.13 4.13 0 0 0 .52 1 .42.42 0 0 0 .42 0 .32.32 0 0 0 .23-.29.6.6 0 0 1 .2.62 2 2 0 0 1-.26.75l-.65.58-.58.65a.38.38 0 0 0-.55 0 1 1 0 0 0-.36.62 11 11 0 0 0-.29 1.17c-.11.52-.18.87-.23 1l-.65 2.34a13.68 13.68 0 0 0-.58 2.21l-.06 1a8.81 8.81 0 0 0-.06 1.1 14.3 14.3 0 0 1-.06 2.27 20.32 20.32 0 0 0 .26 4.68 14.16 14.16 0 0 0 4.23-3.9q1.75-2.34 1.88-2.47a3.72 3.72 0 0 1 2.41-1c0 .09-.09.22-.26.39s-.24.3-.19.39a.26.26 0 0 0 .1.16c.06.06.08.12 0 .16a.62.62 0 0 1-.26.32c0 .09.05.11.16.07a.76.76 0 0 1 .23-.07h-.06q-.13.26-.19.36c0 .06 0 .16.06.29a.22.22 0 0 0 .19-.1 2.22 2.22 0 0 0 .13-.23c0-.09.09-.13.13-.13l.1-.1a.09.09 0 0 1 .06 0 .91.91 0 0 0 .23-.13.72.72 0 0 0 .13-.26.39.39 0 0 1 .26-.26c-.09.52-.11.78-.06.78s.09 0 .13-.13.08 0 .1-.1a.64.64 0 0 1 .16-.23h.13a.18.18 0 0 0 .13-.26c.13 0 .29 0 .49-.2a.83.83 0 0 1 .49-.26 6.74 6.74 0 0 1-.78 1.82s.11 0 .19-.1a5.47 5.47 0 0 0 .39-.62 2.71 2.71 0 0 1 0 .36 2.33 2.33 0 0 1-.13.49 1.42 1.42 0 0 0-.1.33 12 12 0 0 1-.45 1.3 17.68 17.68 0 0 1-1.56 2.34 21.37 21.37 0 0 1-3.77 3.64 23.5 23.5 0 0 1-2.21 1.43 4.17 4.17 0 0 1-2.47.78l-.33-.13a1.07 1.07 0 0 0-.29-.06H76a1.76 1.76 0 0 1-1.23-.07A3.67 3.67 0 0 1 72.94 53a8.11 8.11 0 0 1-1.3-2.6l-.19-.75-.2-.75a4.26 4.26 0 0 1-.25-1.44 3 3 0 0 0-1.1.45c-.09.17-.15.26-.19.26l-.2.16a.4.4 0 0 1-.19.1 2.45 2.45 0 0 0-.23.26l-.19.26-.16.2s-.3.24-.78.58c.13.09.13.19 0 .32s-.12 0-.23 0a.82.82 0 0 0-.29-.06 6 6 0 0 0-.39.58 1 1 0 0 1-.46.33 3.27 3.27 0 0 0-.52.49 1.52 1.52 0 0 0-.33.42c-.26.22-.37.35-.32.39s.19.15.58.33q-.19.07-.91.39a5.18 5.18 0 0 0-1 .58q-.39.33-1 .94a6.33 6.33 0 0 1-.78.68 1 1 0 0 0-.72-.29 7.43 7.43 0 0 0-.88.16 1.87 1.87 0 0 1-.81.07v1.04c0 .13-.21 0-.23-.07a.54.54 0 0 1 0-.23.32.32 0 0 0-.06-.23q-.07-.33-.52-.33a5.39 5.39 0 0 0-1.69.13.41.41 0 0 0 .26.2.86.86 0 0 1-.84.06 1.78 1.78 0 0 1-.26-.2.08.08 0 0 1 0-.13 2.05 2.05 0 0 1 .26-.19.31.31 0 0 0-.23-.23.85.85 0 0 0-.39 0 1.42 1.42 0 0 1-.29.06s0-.07.1-.1.1-.05.1-.1 0-.2-.19-.33a3.12 3.12 0 0 1-.78-.58 1.54 1.54 0 0 1-.07-.49 1 1 0 0 0-.06-.42 2.26 2.26 0 0 0-.29-.52 4.46 4.46 0 0 0-.29-.39.72.72 0 0 1 .65.26.51.51 0 0 0 0 .16.21.21 0 0 0 .1.13.66.66 0 0 0 .26 0 1 1 0 0 0-.13.16.31.31 0 0 0-.06.16 3.73 3.73 0 0 0 1.3.2 5.67 5.67 0 0 0-.39-.71q-.13-.13-.85-.07c0-.17-.15-.37-.46-.58l-.32-.23a.37.37 0 0 0-.16 0 .22.22 0 0 1-.16-.06.69.69 0 0 1-.26-.29l-.19-.36a.39.39 0 0 1-.19-.1.81.81 0 0 1-.2-.19.4.4 0 0 1-.06-.23c-.13 0-.18.12-.16.23a.31.31 0 0 1-.1.29c-.13-.13-.2-.22-.2-.26a1.07 1.07 0 0 0-.06.26.48.48 0 0 1-.19-.52h-.4a2.83 2.83 0 0 0 .2-.52c-.39.09-.61.06-.65-.06a.27.27 0 0 1 .2.06 7.57 7.57 0 0 1-.39-.91 2.45 2.45 0 0 1-.1-.52v-.46a.35.35 0 0 1 .26.39.74.74 0 0 0 .23-.06.76.76 0 0 0 .26-.16l.13-.13v-.16l-.13-.26a.49.49 0 0 1-.06-.2l-.33-.65-.13-.19a.11.11 0 0 0-.13 0 .1.1 0 0 1-.13 0q-.13-.06 0-.2a.82.82 0 0 0 .06-.52 1.55 1.55 0 0 0-.06-.29.6.6 0 0 1 0-.32c0-.06.1-.1.23-.1a1.22 1.22 0 0 1-.06-.39c.13 0 .22.09.26.26a.46.46 0 0 0 .2.32.22.22 0 0 0 .29 0 .28.28 0 0 0 .05-.19.46.46 0 0 0-.33-.46.27.27 0 0 0-.19-.06h-.2a.18.18 0 0 1 0-.23l.23-.19c.09-.06.13-.12.13-.16a.44.44 0 0 0-.13-.42.65.65 0 0 1-.2-.36l.46-.85a1.4 1.4 0 0 0 .2-.39.33.33 0 0 0-.06-.16.31.31 0 0 1-.07-.16 1 1 0 0 1 .2-.33.69.69 0 0 0 0-.58q.39-.06.52-.71a.88.88 0 0 1 0-.2l.06-.26a1.07 1.07 0 0 0 0-.26l.16-.16a.89.89 0 0 0 .16-.23 2.09 2.09 0 0 1 .13-.52 2.5 2.5 0 0 1 .26-.58 4.73 4.73 0 0 1 .72-1.3 51.11 51.11 0 0 1 3.7-4.81 26.62 26.62 0 0 1 2.08-1.95q1.77-1.38 2.31-1.77a15 15 0 0 1 5.14-2.15 14.36 14.36 0 0 1 3.38 0 9.83 9.83 0 0 0 1.69 0 3.52 3.52 0 0 0 .78-.13q.58-.13.77-.19zm-17.16 28a.76.76 0 0 0 .33-.1.79.79 0 0 1 .26-.1.25.25 0 0 0 .19-.26.53.53 0 0 0 0-.33c0-.13-.1-.17-.23-.13a.49.49 0 0 0-.1.26.33.33 0 0 1-.16.26h-.19c-.13 0-.2 0-.2.13a1.08 1.08 0 0 1 .06.26 8.49 8.49 0 0 0-1 .46 1.63 1.63 0 0 0 1.17-.13.26.26 0 0 1-.13-.31zm.52-2.34c-.09-.22-.22-.28-.39-.19a.56.56 0 0 0 .39.2zm-.32 3.18c.3.22.43.2.39-.06-.09-.09-.15-.12-.2-.1a1 1 0 0 0-.19.17zM59 49.74c0 .3.15.39.32.26-.03 0-.14-.13-.32-.26zm.46 2.15c0-.26-.09-.37-.39-.33-.07.08.09.19.35.32zm-.06.65a.54.54 0 0 0 .29.23c.15.07.23.12.23.16a.29.29 0 0 0 0-.29.39.39 0 0 0-.23-.2.27.27 0 0 0-.34.09zm.39.78a.38.38 0 0 0 .33.2s.11 0 .19-.13.15-.13.2-.13 0-.09.13-.13.09.13.13.13a.35.35 0 0 0-.39-.26 1.14 1.14 0 0 0-.64.31zM65.92 47a3.61 3.61 0 0 1 .42-.29 3.24 3.24 0 0 0 .46-.33 3.76 3.76 0 0 1 .42-.33 3.64 3.64 0 0 0 .46-.36l.36-.36a2.91 2.91 0 0 0 .36-.42c.09-.13.17-.27.26-.42a1.93 1.93 0 0 0 .19-.49l.15-.5v-.55-.68a6.84 6.84 0 0 0 .3-1.27q.13-1.75.26-2.67a12.21 12.21 0 0 1 .13-1.3q.13-1 .19-1.49a3.11 3.11 0 0 1 .1-.62q.1-.42.16-.62.13-.65-.39-.32a19.46 19.46 0 0 0-2 1.82q-.72.65-.71.33a3.54 3.54 0 0 1 .52-.55 2.48 2.48 0 0 0 .46-.49q-.59-.13-1.69 1.1l-1.56 1.95a5.84 5.84 0 0 0-.65.85q-.39.59-.58.85a.76.76 0 0 1-.13.19.41.41 0 0 0-.1.19.88.88 0 0 0 0 .2c-.09.17-.21.38-.36.62s-.25.4-.29.49a21.52 21.52 0 0 0-1.89 4.16 2.28 2.28 0 0 1-.1.39.36.36 0 0 1-.13.13l-.16.13s0 .19.07.45a1 1 0 0 1 0 .52.78.78 0 0 1-.1.26.79.79 0 0 0-.1.26.51.51 0 0 0 0 .16.56.56 0 0 1 0 .16.21.21 0 0 1-.13.19c0 .09 0 .17.13.26a1.26 1.26 0 0 0 1 .26 1.47 1.47 0 0 0 .55-.16 1.49 1.49 0 0 1 .55-.16h.32a.26.26 0 0 0 .19-.06l.16-.16.16-.16a1.11 1.11 0 0 1 .91 0 .56.56 0 0 1 .13-.36 1.16 1.16 0 0 1 .39-.29 3.68 3.68 0 0 1 .46-.2l.52-.16a2.27 2.27 0 0 1 .39-.1.8.8 0 0 0-.06-.05zm-5 6q.59-.26 0-.58a1 1 0 0 0-.58-.07 3.51 3.51 0 0 0 .23.36h.23a.26.26 0 0 1 .11.34zm-.32.26q-.33.07-.06.46c.13.13.24.15.32.06a.74.74 0 0 1-.27-.47zm.19-3.77a.65.65 0 0 0 .1-.45q0-.26-.29 0t-.1.29a.32.32 0 0 0 .28.21zm2 2.34q.84 0 1-.33a.21.21 0 0 1-.23 0 .33.33 0 0 0-.16-.06H62.55a3.24 3.24 0 0 0-1.36.91q.84.19 1 0a.38.38 0 0 0 .13-.26.26.26 0 0 0 .19.07.42.42 0 0 0 .22-.28zm-1.29-2.42q.13 0 .2-.19a.18.18 0 0 0-.13-.26c-.13 0-.19.09-.16.13a2.28 2.28 0 0 1 .09.32zm3.64.26l-.06.06h.13q.45.07.39 0s-.06-.08-.19-.1-.23 0-.27.04zm.52 1.3s0 .13.2.26c.09-.13.12-.22.1-.26s-.13-.04-.3.03zm.2-1a.26.26 0 0 0 .39-.13.5.5 0 0 0 .06-.19c-.13-.13-.31-.02-.46.28zm.26.71a.68.68 0 0 0 .58 0v-.19c0-.08-.14-.15-.29-.06a.71.71 0 0 0-.3.22zm.33-.65c.3-.13.45-.22.45-.26s-.17-.13-.52-.13a.84.84 0 0 0 0 .19.92.92 0 0 1 .06.17zm.52-.39a.27.27 0 0 0 .23-.16c.07-.11.08-.18 0-.23s-.15-.08-.19 0a1 1 0 0 0-.01.36zm.71-.26a.28.28 0 0 0 .06-.39c-.18.1-.2.23-.07.36zm.58-.46c.09 0 .09-.09 0-.13a.59.59 0 0 0-.26-.09zm12.42.26a1.53 1.53 0 0 0-.65.19q.19.24.64-.22zm.19-.85l-.39.39q.19.13.29 0a.68.68 0 0 0 .1-.41zm-.06 3.9c0-.13-.13-.11-.26.07a1 1 0 0 0 .25-.1zM80.67 49q.32.26.46-.13a.76.76 0 0 0-.23.06.74.74 0 0 1-.23.07zm1-.39c-.09-.17-.22-.13-.39.13zm-.26-1c.13.09.24 0 .33-.13zm.91.39c-.09-.13-.21-.14-.36 0a1.13 1.13 0 0 0-.36.42.59.59 0 0 0 .29-.1c.11-.06.18 0 .23.1.09-.17.11-.28.06-.32a.19.19 0 0 0 .18-.1zm2.4-1.62a4.62 4.62 0 0 0-.78.71l-.65.71-.85.65a1.28 1.28 0 0 0-.58.59c-.09.22 0 .26.13.13a1 1 0 0 0 .26-.2c.09 0 .13-.09.13-.13l1-.78a2.17 2.17 0 0 0 .39-.29l.32-.29c.17-.13.26-.22.26-.26s.09 0 .13-.13.11-.17.19-.13-.09 0-.13-.13.41-.24 1-.84a1.62 1.62 0 0 0 .46-1.17s0 .11-.13.19-.13.15-.13.19a.69.69 0 0 1-.23.13.7.7 0 0 0-.23.13.69.69 0 0 0-.13.23.87.87 0 0 1-.15.31 1.1 1.1 0 0 1-.26.16c-.13.06-.19.12-.19.16a.49.49 0 0 0 .22.1zm-2.62 1.41s0-.09.1-.13.1-.09.1-.13a.18.18 0 0 1-.13-.06H82a1.89 1.89 0 0 0 .1.32zm.58-.19q-.07-.19-.2 0t0 .26s.08-.14.21-.27zm.45-.26q.39-.39.26-.46c-.13-.09-.22-.05-.26.1a.5.5 0 0 0 .01.35zm.13-1.1a.06.06 0 0 1 .06.06l.28-.3.26-.26a.38.38 0 0 0-.26.07l-.16.19zm.39.13c-.09 0-.1.1 0 .16a.31.31 0 0 0 .23.1q-.02-.14-.22-.27zm0 3c.13.17.22.15.26-.06a1.06 1.06 0 0 1-.25.04zm.78-3.58c-.09 0-.2 0-.33.16a.68.68 0 0 0-.19.42q.34-.08.53-.6zm-.13-1.56a.8.8 0 0 0-.2-.13v.26a.75.75 0 0 1 .21-.15zm.78.06l-.19.19v.13l-.13.13q-.26.26-.19.39a1 1 0 0 0 .49-.32.37.37 0 0 0 .03-.53zm.19-.85l.33-.06s0 .09-.13.13-.18.01-.18-.08zm.58.91a.62.62 0 0 0-.39.52q.41-.07.41-.53zm.78-.58s0 .09-.13.13l-.13.06c.19.04.28-.03.28-.2z"/><path class="cls-1" d="M112.72 55.59a3.76 3.76 0 0 1-1.5.32 6.4 6.4 0 0 1-1.56-.58 14.1 14.1 0 0 1-1.76-1 10.2 10.2 0 0 0-1-.68q-.72-.42-1-.62a19.86 19.86 0 0 1-2.15-1.75 10.77 10.77 0 0 1-3.05-4.87q-.07-.2-.58-2.67T99.91 41a.43.43 0 0 1-.19-.29 3.1 3.1 0 0 1-.1-.52 2.55 2.55 0 0 1 0-.59 5.62 5.62 0 0 0 0-.62v-.39a21.48 21.48 0 0 1 0-2.54q.32-1.62.39-2.15a6.24 6.24 0 0 1 .07-1.17 3.48 3.48 0 0 0 .13-1.1.23.23 0 0 0-.16-.06c-.06 0-.14.05-.23.16a1.5 1.5 0 0 1-.26.26 1.8 1.8 0 0 0-.29.29l-.26.33-.36.46a25.8 25.8 0 0 0-1.56 2.15q-1.56 2.34-2.73 4.48-.65 1.24-1 1.82a4.74 4.74 0 0 0-.52.84 2.21 2.21 0 0 1-.1.39 3.68 3.68 0 0 1-.23.58q-.13.33-.36.94a4.63 4.63 0 0 1-.36.81 4.84 4.84 0 0 1-.26.81 6.27 6.27 0 0 0-.26.75q-.39 1-1.5 3.83a6 6 0 0 0-.32 1.62 5.92 5.92 0 0 1-.39 2.08q-.72 1.63-3.57 1.88a4.64 4.64 0 0 1-2.28-.26 3.18 3.18 0 0 1-1.62-1.43 3.15 3.15 0 0 1 0-1.82.75.75 0 0 0 .13-.19.51.51 0 0 0 .06-.2l-.13-.39v-.06a6.59 6.59 0 0 1 .13-1.1q.06-1 .46-5 .06-.32.13-1a6.66 6.66 0 0 0 .13-1q.06-.45.19-1.17a8.55 8.55 0 0 1 .2-.91q0-.33.06-2.67a16.38 16.38 0 0 0 0-2.21 4.83 4.83 0 0 1 .26-2l1-2.21a19.14 19.14 0 0 0 .91-3.51 9.11 9.11 0 0 1 .26-1.4q.2-.75.46-1.66t.39-1.43a3.31 3.31 0 0 1 .06-.49c0-.24.09-.43.13-.59a2.81 2.81 0 0 1 .2-.49 4.12 4.12 0 0 1 .26-.46 1.87 1.87 0 0 1 2.15-.26.52.52 0 0 1 .2.06.81.81 0 0 1 .19.13.82.82 0 0 1 .29.06.78.78 0 0 0 .29.06 1.94 1.94 0 0 1 .52.33 1.28 1.28 0 0 0 .39.26 6.28 6.28 0 0 1 1.43 1.69 3.42 3.42 0 0 1 .46 1.95 1.75 1.75 0 0 1 0 .75q-.1.68 0 .68a1.84 1.84 0 0 0 .26.19 1 1 0 0 1 .26.23.28.28 0 0 1 0 .23.58.58 0 0 0 0 .33 3.78 3.78 0 0 0 .36-.58 4.24 4.24 0 0 0 .29-.85 4.17 4.17 0 0 1 .2-.65q.65-1.88.84-2.27a6.9 6.9 0 0 0 .36-.65q.23-.45.39-.71l.39-.65a5.9 5.9 0 0 1 .49-.71 7.07 7.07 0 0 1 .52-.59 3.29 3.29 0 0 1 2.63-1 6.51 6.51 0 0 1 2.67.81 9.58 9.58 0 0 1 2.33 1.76 5.2 5.2 0 0 1 1 1.66 5.9 5.9 0 0 1 .39 1.88v3.88q.06.78.13 2.89t.16 3.58a23.32 23.32 0 0 0 .36 2.83q.71 3.58.85 4a9 9 0 0 0 .84 1.95.79.79 0 0 0 .16.29l.33.49c.11.17.23.35.36.52a3.87 3.87 0 0 0 .36.42c.11.11.18.14.23.1s0 .11.13.19a2.65 2.65 0 0 0 .36.29.78.78 0 0 0 .29.16 3.54 3.54 0 0 0 .46.36l.52.36a23.72 23.72 0 0 1 2.28 1.8q1.49 1.43 1 1.82a.7.7 0 0 1-.49.13H114c0 .17 0 .26-.13.26l-.33.07-.13.13a.38.38 0 0 1-.26.06.4.4 0 0 1 .1.46.49.49 0 0 1-.36.33h-.33a1.69 1.69 0 0 1-.42-.1h-.23q.45.19.2.39a.21.21 0 0 1-.23 0 .33.33 0 0 0-.16-.06.94.94 0 0 0-.39.13.34.34 0 0 0 0 .33.43.43 0 0 1 .1.26c.09-.09.16-.07.23.06a1 1 0 0 1 .1.46q.13-.26.23-.13a.63.63 0 0 0 .23.2.37.37 0 0 1 .5.14zm-22.3-17.16a2.55 2.55 0 0 0 .26-.71 1.59 1.59 0 0 1 .26-.65q.06-.26.58-1.56.39-1.1.52-1.43c.17-.56.17-.85 0-.85q.19-.65.39-1.49a1.06 1.06 0 0 0 .16-.33l.16-.46q.06-.19 0-.26a2 2 0 0 0-.85.78 5 5 0 0 0-.49.85c-.06.17-.19.56-.36 1.17s-.52 1.91-.91 3.77l-.23.91q-.16.65-.23 1a7.47 7.47 0 0 1-.19.75 4.18 4.18 0 0 0-.19.94q0 .65.39.2l.06-.52q.13-.39.33-1.07t.34-1.04zm14.46 3.19l-.1.19-.06.06a.11.11 0 0 0 0 .13 1.12 1.12 0 0 1 .06.23 1.46 1.46 0 0 1 0 .23l-.1.2-.07.13-.1.19q-.2.46.26.46a.45.45 0 0 0 .29-.16c.11-.11.21-.14.29-.1a4 4 0 0 0 .13.91v.33c.22 0 .3 0 .26.26a.77.77 0 0 1-.52-.52 1.3 1.3 0 0 0-.36.26s0 .14.06.29.12.29.16.42a1.27 1.27 0 0 1 0 .39h-.23a.79.79 0 0 0-.26-.1.52.52 0 0 0-.33.06.42.42 0 0 0-.13.52.23.23 0 0 0 .23.13.66.66 0 0 1 .29.06 1.55 1.55 0 0 0 .13.58q.19-.13.06-.39c-.09-.17-.11-.28-.06-.33.09-.26.24-.3.46-.13a.19.19 0 0 1-.06.13l-.13.13q.19 0 .58.39a1.2 1.2 0 0 0 .06-.65.4.4 0 0 0-.1-.2.43.43 0 0 1-.1-.26q.52.39.52.58a2.34 2.34 0 0 1 .52-.58.31.31 0 0 1 0 .46.62.62 0 0 1-.45.19q.45 1 .62 1t.29-.29a2 2 0 0 0-.46-.06 2.21 2.21 0 0 1 .78-.39.51.51 0 0 1 .32-.07.51.51 0 0 0 .36-.1.31.31 0 0 0 .1-.23 1.59 1.59 0 0 1-.58-.13 2.49 2.49 0 0 0 .52-.2 2.1 2.1 0 0 0-1.1-.32.76.76 0 0 1 .13-.2l.13-.13.13-.13.13-.13s0-.13-.13-.26a.18.18 0 0 1-.06-.13q.45-.26-.06-.58a.63.63 0 0 0-.29-.13.48.48 0 0 0-.26.13.49.49 0 0 1-.23.13c0-.09-.09-.19-.26-.33a.56.56 0 0 1-.26-.45 1.23 1.23 0 0 1 .29-.72 4.48 4.48 0 0 0 .36-.52.3.3 0 0 1-.32-.19 3.18 3.18 0 0 1-.49.29q-.1 0-.42-.23s-.06 0-.06-.13-.06-.15-.19-.2-.12.07-.19.2zm-.1 7.34l-.13.2q.32.07.39 0zm.85.85c-.35 0-.41.15-.2.32s.41.2.58-.06a2.86 2.86 0 0 0-.38-.27zm1.3.71a.26.26 0 0 1-.19.06q-.39.13-.06.46-.72.13-.78.26a1.61 1.61 0 0 1 .33.19 2 2 0 0 1 0 .26.51.51 0 0 1-.1.26 2.75 2.75 0 0 0 .45.06.43.43 0 0 1 .1.16c0 .06.05.1.1.1a.59.59 0 0 0 .29-.1.57.57 0 0 1 .29-.1.54.54 0 0 0-.19.36.4.4 0 0 0 .13.29 2.18 2.18 0 0 0 .26.23 1.69 1.69 0 0 0 .36.2 2.42 2.42 0 0 1 .33.16 2.84 2.84 0 0 1 .33.29 1.13 1.13 0 0 0 .42.29 1.18 1.18 0 0 0 .26.1l.29.07a1.43 1.43 0 0 0 .29 0s0-.12-.16-.23a4.41 4.41 0 0 0-.55-.33c-.22-.11-.32-.18-.32-.23l-.13-.1a.1.1 0 0 1-.06-.1.21.21 0 0 1 0-.23.22.22 0 0 0 0-.23q-.13-.13-.49 0c-.24.06-.38 0-.42-.16a1 1 0 0 0 .26.07 1 1 0 0 0-.39-.52 1.12 1.12 0 0 1-.39-.46.73.73 0 0 0 .45.16.59.59 0 0 1 .36.24v.19a.81.81 0 0 0 .39.2.51.51 0 0 0 .46-.2h-.36a.4.4 0 0 1-.23-.1c-.09-.07-.06-.18.06-.36q-.41-.04-1.39-1.21zm-.13-3.25q.39.85.84.65s.09 0 .13-.13.1-.13.16-.13a.54.54 0 0 1 .23.06c.13 0 .22 0 .26-.19l.16.16.16.16h-.39a1 1 0 0 0-.13.16c0 .06-.13.08-.26 0a.37.37 0 0 0 .06.26.31.31 0 0 0 .23.06.56.56 0 0 1 .23 0 .27.27 0 0 0 .13 0q.39.07.26.39a.64.64 0 0 1 .33 0s.09.12.13.29l.39-.2-.36-.19-.36-.19c.3-.13.37-.2.2-.2-.35-.09-.52-.17-.52-.26s.17-.1.39 0 .37.06.46 0a1.55 1.55 0 0 0-.39-.26 1.5 1.5 0 0 1-.33-.19v-.39a1.57 1.57 0 0 0-.78-.13.51.51 0 0 0 0 .16.39.39 0 0 0 .1.16.8.8 0 0 0-.68-.13 1.7 1.7 0 0 1-.65.08zm.46-2.08h.52a.35.35 0 0 0-.39-.26c-.09.07-.13.13-.13.26zm4 4.68a.43.43 0 0 0-.26.1c-.09.06-.15.09-.19.06a.34.34 0 0 1-.13-.16q.71-.06 0-.33a.26.26 0 0 1-.2-.06.69.69 0 0 1-.26.58.48.48 0 0 1-.2-.06 1.2 1.2 0 0 0-.33-.1h-.26c0 .09 0 .16.16.23a1 1 0 0 0 .33.1h.23a1.36 1.36 0 0 1 .26.1.11.11 0 0 0 0 .13.1.1 0 0 0 .1.06c.13 0 .17 0 .13-.19a.72.72 0 0 0 .33.06h.33a1.16 1.16 0 0 1 .16.26.31.31 0 0 0 .29.2q-.33.26.13.46a1.26 1.26 0 0 1 .84-.46.78.78 0 0 0-.2-.23.5.5 0 0 0-.26 0H112a1.17 1.17 0 0 1-.49-.26q-.23-.19-.36-.13a1 1 0 0 1 .14-.36z"/><path class="cls-1" d="M130.14 53.57c0 .13-.13.33-.39.58s-.5.35-.58.26q.06.46-1.56.91a8.51 8.51 0 0 1-2.6.39 4.08 4.08 0 0 0-1.17.06.55.55 0 0 0-.23.1.56.56 0 0 1-.23.1 1 1 0 0 1-.13-.16.3.3 0 0 1-.06-.16l-.26.13a7.07 7.07 0 0 0-.71.07l-.39.19a1.25 1.25 0 0 1-.39-.1 1.38 1.38 0 0 0-.49-.1.41.41 0 0 0-.36.19 1.43 1.43 0 0 0-.84-.19.31.31 0 0 1-.16-.07.41.41 0 0 0-.23-.06.13.13 0 0 0-.07.19v.2q-.39-.52-.58-.26l.84.52q-.19.19-2-1a14.2 14.2 0 0 1-2.08-1.56q-.26-.33-.91-1t-1-1.1a12.71 12.71 0 0 1-.78-1 4.9 4.9 0 0 1-.62-1.2 12.58 12.58 0 0 1-.91-5.33 16.53 16.53 0 0 1 .91-4.87q1.43-4 1.56-4.29a35.2 35.2 0 0 1 2.67-5.26 14.37 14.37 0 0 1 4-4.55 8.54 8.54 0 0 1 5.52-1.56 9 9 0 0 1 1 .2 9.51 9.51 0 0 1 1.17.39 6 6 0 0 0 1 .33 2.94 2.94 0 0 0 1.63.06 7.66 7.66 0 0 1 1.63-.06l.58.26a2 2 0 0 0 .65.19 9.25 9.25 0 0 1 1.5.65l.93.34a8.21 8.21 0 0 1 1 .55 3.36 3.36 0 0 1 .71.65 3.59 3.59 0 0 0 .29-.71 13.16 13.16 0 0 1 .55-1.33q.32-.68.68-1.4a4.79 4.79 0 0 1 .68-1.07c.22-.24.41-.29.58-.16q-.33.39-.39.49a2.69 2.69 0 0 0-.16.29c-.07.13-.05.22 0 .26s.17.13.26 0c.26.09.3.22.13.39.26.87.3 1.39.13 1.56a.5.5 0 0 1 .42.55 3.34 3.34 0 0 0 0 .81.27.27 0 0 0 .16.23.53.53 0 0 1 .23.29c0 .09-.09.56-.26 1.43a17.93 17.93 0 0 1-.65 2.47q-.52 1.63-.71 2.4a4.39 4.39 0 0 0-.07 1v1a7.87 7.87 0 0 1-.1.94c-.06.46-.12.77-.16.94a.73.73 0 0 1 .07.33v.33c-.09.09-.15.13-.2.13s0 .24 0 .46v.52a7 7 0 0 1-.78 2.15.69.69 0 0 1 .13.26 4.19 4.19 0 0 1-.07.42c0 .24-.09.36-.13.36a11.15 11.15 0 0 1-.39 1.89 23.26 23.26 0 0 1-.95 3.1q-.06.19-.46 1.14t-.65 1.46a13.71 13.71 0 0 1-2.28 2.8c-.09-.26 0-.61.39-1a2.6 2.6 0 0 0 .39-.33c.09-.09 0-.19-.2-.32a.19.19 0 0 0-.13-.07l.58-.55c.3-.28.46-.51.46-.68a.42.42 0 0 1-.46-.19q.84.07 1-.52a.31.31 0 0 1 .06-.16.32.32 0 0 0 .07-.16s0-.09-.13-.13-.11-.13-.07-.26a.78.78 0 0 1-.39 0c-.13 0-.17-.12-.13-.29a.64.64 0 0 0 .29.06.32.32 0 0 1 .23.06q.19.07.39.46.19-.39.16-.49a1.29 1.29 0 0 0-.36-.36l.19-.2.2-.19a.26.26 0 0 1-.13-.33c.09-.17.14-.26.16-.26s.1.06.23.19a.2.2 0 0 1 .16-.23c.11 0 .14-.14.1-.36q.32 0 .36-.06s0-.15-.16-.33a.16.16 0 0 1 .26 0 2 2 0 0 1 .23-.68.89.89 0 0 0 .1-.75.41.41 0 0 0 .13-.65q.19-.06.36-.58a3 3 0 0 0 .16-.84q-.19 0-.75 1a9.54 9.54 0 0 0-.75 1.56.26.26 0 0 0 .33-.13q.13-.19.33.13a.44.44 0 0 0-.33.13c0 .09 0 .15-.13.19a.19.19 0 0 1 .13.06.18.18 0 0 0 .13.06 1 1 0 0 1-.2.26 1.24 1.24 0 0 1-.52.71 1.75 1.75 0 0 1-.39-.13q-.33-.13-.46.06a.44.44 0 0 0-.1.23 1 1 0 0 1-.07.23.37.37 0 0 1-.13.13.48.48 0 0 0-.16.19 18.15 18.15 0 0 1-2 2.8 2 2 0 0 0 .58.19.32.32 0 0 1-.07.16 1.11 1.11 0 0 1-.13.16c-.26-.17-.4-.25-.42-.23s-.12.18-.29.49a.72.72 0 0 0-.13.19c-.22.22-.2.43.06.65a.94.94 0 0 0-1.1.52 1.3 1.3 0 0 0-.39.45.91.91 0 0 1-.06.39s0 .1-.13.16a.8.8 0 0 0-.2.2.31.31 0 0 0-.06.16zm-1.69-1.69q.19.19 1-.55t1.14-1.07a15.47 15.47 0 0 0 1.76-2.86 24.28 24.28 0 0 0 1.82-6.69q-3.31.85-5.52-2.54a14.55 14.55 0 0 1-1.57-3.17q-.19-.59-.49-1.89a11.09 11.09 0 0 0-.55-1.88 2.22 2.22 0 0 1-1 .39 2.06 2.06 0 0 1-.55-.16c-.28-.11-.47-.14-.55-.1a7.94 7.94 0 0 0-1.3 1.56 28.59 28.59 0 0 0-1.64 2.91 15.65 15.65 0 0 0-1.69 7.87q.26 4.62 2.6 6.63a6.19 6.19 0 0 0 6.54 1.55zm-7-21.26c-.13.26 0 .41.26.46q.26-.78-.07-1c-.06.35-.13.55-.21.55zm1.82-2.86l.71.78a2 2 0 0 0 1 .71 1.05 1.05 0 0 0-.2-.65.18.18 0 0 1-.26-.13c0-.17-.13-.2-.26-.07a1.63 1.63 0 0 1-.78-.91q-.43.08-.23.28zm2.92 2.73c-.09 0-.21-.06-.36-.32s-.29-.35-.42-.26a.48.48 0 0 0 .06.2 3.26 3.26 0 0 1 .1.36 1.34 1.34 0 0 0 .16.39c.09.15.17.23.26.23h.39l-.29-.29s-.01-.13.08-.3zm7.35 22.56q-.26.33-.52.26c.24-.22.41-.31.5-.26zm.52-3.31h.32c-.09.3-.24.39-.46.26.03-.2.08-.26.08-.26zm.91-1a.51.51 0 0 1-.2.46c-.09 0-.15 0-.19-.2-.09.13-.13.17-.13.13s0-.3.26-.52a.18.18 0 0 0 .24.09zm-.52 2.08a.13.13 0 0 0 .2.06v-.13a.22.22 0 0 0-.22.03zm2-5.07a.23.23 0 0 1-.26 0c-.09-.06-.15-.05-.2 0a.58.58 0 0 1 .06.26q.13.26.52.06a2.36 2.36 0 0 1-.13-.36zm-.13.72l-.2-.2c0 .13.06.19.19.15zM158.41 73.14a19.78 19.78 0 0 1-1.24 2.44 12.58 12.58 0 0 1-1 1.53l-.33.39c-.09 0-.09.09 0 .26s.09.3 0 .39a4.26 4.26 0 0 1-.39.29 3.66 3.66 0 0 0-.46.36.4.4 0 0 0-.1.2.42.42 0 0 1-.06.16 2.36 2.36 0 0 1-.36.16h-.2a.19.19 0 0 0-.2 0 .67.67 0 0 0-.26.13.68.68 0 0 1-.26.13 1 1 0 0 1-.58.07c-.13 0-.28 0-.46.26a.49.49 0 0 0-.33-.23 1.12 1.12 0 0 0-.46 0 1.82 1.82 0 0 1-.39.07 2.22 2.22 0 0 1-.39-.1 2 2 0 0 0-.58-.1 2.36 2.36 0 0 0-.78.16 1.68 1.68 0 0 1-.71.13 1.1 1.1 0 0 1-.59-.36 11.54 11.54 0 0 1-1.56-2.41l-.58-1.37a5.57 5.57 0 0 1-.46-1.24 12.94 12.94 0 0 0-.39-1.23.7.7 0 0 0-.16-.36 3 3 0 0 1-.23-.36v-.71a2.38 2.38 0 0 1-.1-.49 1.4 1.4 0 0 0-.1-.42c0-.17-.1-.45-.16-.81s-.12-.66-.16-.88a47.16 47.16 0 0 1-1-6.89 42.93 42.93 0 0 1 .58-7.61q.32-2.34.46-3.51a11.5 11.5 0 0 0 .33-1.17 2.39 2.39 0 0 0 .19-.71.66.66 0 0 0 0-.42q-.06-.1-.39-.16h-.2a4.65 4.65 0 0 1-2.4-1.3 2.52 2.52 0 0 1-.58-1q-.07-.39.58-1l1.95-2.15a8.54 8.54 0 0 1 1.3-1 3 3 0 0 0 1-.78 3.22 3.22 0 0 0 .16-1 2.89 2.89 0 0 1 .1-.78q.26-1.43.33-1.69a17.79 17.79 0 0 1 .33-2q.26-1.23.33-1.69a28.23 28.23 0 0 0 .26-3.15 30.55 30.55 0 0 1 .26-3.22q.13-.65.26-2a2.13 2.13 0 0 1 .58-1.1q.06.39-.13.49c-.13.06-.19.14-.19.23l.26.39h.06v.49c0 .24 0 .38.1.42a4.31 4.31 0 0 0 .26-1.69 4.59 4.59 0 0 1 0-.49c0-.19.05-.4.1-.62a2.83 2.83 0 0 0 .07-.52 8.63 8.63 0 0 1 .23-.84q.16-.52.23-.78a4.08 4.08 0 0 1 0-.42c0-.19 0-.36.07-.49a1.79 1.79 0 0 1 .13-.42 1.12 1.12 0 0 1 .23-.36 1.07 1.07 0 0 1 0 .52 3.2 3.2 0 0 0-.07.39v.58a1 1 0 0 1-.1.29c-.06.15-.08.25 0 .29q.19.46.52-.39a2.59 2.59 0 0 0 .13-1.17 3.56 3.56 0 0 1 .32-1 1 1 0 0 0 .07-.42 1 1 0 0 1 .07-.42.53.53 0 0 1 .19-.33l.2-.19h.06a.06.06 0 0 1 .07-.06.19.19 0 0 0 .13-.06 2.15 2.15 0 0 0 .13-.72q.06-.71.78-4.42.06-.32.2-1.17t.26-1.37a3.72 3.72 0 0 1 .16-.78c.11-.39.2-.73.26-1a3.64 3.64 0 0 0 .1-.81q-.46.78-.39.06c0-.17.11-.41.2-.72a1.81 1.81 0 0 1 .19-.52 12.68 12.68 0 0 1 1-2.73 1.08 1.08 0 0 0-.26 0 .74.74 0 0 0-.26.13l-.2.16-.16.19-.16.2a2.55 2.55 0 0 0-.26.46l-.16-.2a.39.39 0 0 1-.1-.19q-.46.59-.46.26a.57.57 0 0 1 .07-.26q.26-1.17.39-1.56a3.28 3.28 0 0 0-.62 1 7.3 7.3 0 0 1-.42.84.23.23 0 0 0-.2-.19.51.51 0 0 1-.06.19.5.5 0 0 0-.07.2q-.26-.2.1-1.1a6.48 6.48 0 0 1 .68-1.37c.13-.13.22-.19.26-.19l.33-.06s.13-.09.26-.26a3 3 0 0 1 .91-.91 1 1 0 0 1 .91-.26 1.5 1.5 0 0 1 .52.13 1.48 1.48 0 0 0 .52.13 3.44 3.44 0 0 1 .94.46c.33.22.46.46.42.72a.71.71 0 0 1 .84-.2l.16.16a.27.27 0 0 1 .1.16h.23a.47.47 0 0 1 .23.1q.91.46 1.17 2.34.45 3.9.58 6.5a35.15 35.15 0 0 1-.52 6.31q-.72 4.88-1 6.24t-1.69 6.11q-.13.46-.46 2.7t-.46 2.76q-.19.52-.58 1.5a2.56 2.56 0 0 0-.26.49q-.19.42-.29.68a.48.48 0 0 0 0 .42 1.51 1.51 0 0 0 .42.39 4.32 4.32 0 0 1 .39.29 11.77 11.77 0 0 0 .85 1 6.25 6.25 0 0 0 .84 1 3.18 3.18 0 0 0 1.37.52 7.78 7.78 0 0 0 6-1.37 22.93 22.93 0 0 0 5.07-4.94c.13-.26.23-.4.29-.42a1.26 1.26 0 0 1 .55.16 10.93 10.93 0 0 1 1 .52q.33.26.26 1a1.1 1.1 0 0 1-.06.49 1 1 0 0 1-.46.23c0 .09.11.22.33.39s.33.3.33.39a.37.37 0 0 1-.13.26 1.24 1.24 0 0 1-.32.23 1.13 1.13 0 0 0-.26.16c0 .09.05.12.16.1a.25.25 0 0 1 .23 0q.13.19-.07.58s-.28.41-.71 1.1a6.19 6.19 0 0 1-2.41 1.82 11 11 0 0 1-3.31 1 1.88 1.88 0 0 0-.46.1l-.58.16a.8.8 0 0 1-.46 0 .78.78 0 0 1-.26-.1.79.79 0 0 0-.26-.1 1.82 1.82 0 0 0-.39.06l-.33.06q-.65 0-1.79-.06t-1.5-.06a.64.64 0 0 0-.52.19.62.62 0 0 0-.13.49 2.8 2.8 0 0 0 .13.58c.06.19.15.42.26.68s.18.46.23.58v.46a1.13 1.13 0 0 0 .23.29c.11.11.16.18.16.23a.55.55 0 0 1 0 .52.32.32 0 0 1-.23.06h-.23c-.13.09-.17.15-.13.19a.27.27 0 0 1 .07.19 1.42 1.42 0 0 0 .06.46 1.44 1.44 0 0 0 .58.78.31.31 0 0 1 .07-.16.33.33 0 0 0 .06-.16 3.61 3.61 0 0 1 .58 1.82q.06.2.2.68a7.14 7.14 0 0 1 .16.71 2.15 2.15 0 0 1 0 .62.79.79 0 0 1-.36-.58 1.27 1.27 0 0 0-.23-.58 2.13 2.13 0 0 1-.33-1q.06-.45-.06-.58l-.52-.06a2.24 2.24 0 0 1-.23-.33 2.39 2.39 0 0 0-.23-.32 1.21 1.21 0 0 1-.13.42 1.25 1.25 0 0 0-.13.49 1 1 0 0 0 .07.33c0 .09 0 .19-.13.33l-.33.19a.73.73 0 0 1-.33.06h-.33a10.13 10.13 0 0 0-.91.71.75.75 0 0 1 .33.58v.33a1.87 1.87 0 0 0 .1.46 3.33 3.33 0 0 0 .16.46 2.89 2.89 0 0 1-.06.52 2.76 2.76 0 0 0-.07.52v.36a3.58 3.58 0 0 0 0 .52 1.16 1.16 0 0 0 .1.36c.09.26.21.37.36.33s.27-.2.36-.46a1 1 0 0 0-.46-1.24 2.26 2.26 0 0 0 .46-.52.5.5 0 0 0-.13-.29l-.19-.23a1.49 1.49 0 0 1 .46-.78l-.36-.39-.44-.28a3.58 3.58 0 0 0 .72-.33.48.48 0 0 0 .19-.16c0-.07.13 0 .26.1a.42.42 0 0 1 .1.19.38.38 0 0 0 .07.16.91.91 0 0 0 .36 0 1 1 0 0 1 .13.65 5.34 5.34 0 0 0 .2 1.1 2.16 2.16 0 0 0 .26.49 1.2 1.2 0 0 1 .2.36 1.19 1.19 0 0 1 .13.33h-.26a1 1 0 0 1-.46-.1.75.75 0 0 0-.29-.1.82.82 0 0 0-.36.19 1.13 1.13 0 0 0 .65.46 3.87 3.87 0 0 0 .58.2 5.8 5.8 0 0 1 1.23.78q.06.13-.29.32a4 4 0 0 1-.81.33l-.65.2a1 1 0 0 1-.29-.1c-.15-.07-.26-.08-.33 0s-.1.15-.1.33.3.39.91.26.93 0 1 .33c0 .17 0 .28-.1.32a1.53 1.53 0 0 1-.26.13.83.83 0 0 0-.29.19s-.08.05-.1.16a.2.2 0 0 1-.23.16 1.3 1.3 0 0 1-.39-.26v1a.71.71 0 0 1 .29-.13 2.26 2.26 0 0 0 .36-.13 1.12 1.12 0 0 1 .29-.1.44.44 0 0 1 .29 0 .26.26 0 0 1 .13.26 1.16 1.16 0 0 1-.06.84 1.34 1.34 0 0 1-.52.65c.26 0 .3.17.13.39a.51.51 0 0 1 .2.06c.26.09.43 0 .52-.13s.11-.14.06-.29 0-.25.07-.29c.22-.22.33-.11.33.33a.92.92 0 0 1 .06.39v.13q0 .32-1 1t-1 1c0 .22 0 .52-.06.91a3.94 3.94 0 0 0 .06.58 1.31 1.31 0 0 1 0 .58 4 4 0 0 1-.19.85 2.2 2.2 0 0 0-.13 1l-.26 2.14a15.74 15.74 0 0 1-.94 3.01zm-4.75-.07l.58-.78a.35.35 0 0 0 0-.29.25.25 0 0 1 .07-.29.67.67 0 0 1 .23-.13c.11 0 .16-.09.16-.13a1.41 1.41 0 0 0 .42-.55 3.93 3.93 0 0 0 .26-.88 6.05 6.05 0 0 1 .16-.71.44.44 0 0 1-.19.1c-.09 0-.13.05-.13.1a1.29 1.29 0 0 1 .2-.91 2.21 2.21 0 0 0 .58-1s.2-1.15.58-3.31q.06-.33.26-1.46t.29-1.62a11.9 11.9 0 0 0 .16-1.37q.06-.88.13-1.59a32.4 32.4 0 0 0-.52-6c0-.17-.12-.41-.23-.71s-.18-.5-.23-.58-.09-.4-.13-.68-.09-.51-.13-.68a2.29 2.29 0 0 0-.33-.65 2.81 2.81 0 0 1-.33-.58.31.31 0 0 1 .07-.16.12.12 0 0 0 0-.16 2.88 2.88 0 0 0-.39-.91q-.78-1.49-1.49-2.67a1.16 1.16 0 0 0-.13-.33 1.53 1.53 0 0 0-.26-.39.38.38 0 0 0-.26-.13.88.88 0 0 0-.49.42 1.17 1.17 0 0 0-.23.55l.19.39a1.28 1.28 0 0 1-.13.29 1.05 1.05 0 0 1-.13.16q-.26.58-.46 1.17a2.82 2.82 0 0 0-.1.62 2.88 2.88 0 0 1-.1.62 4.3 4.3 0 0 0-.2.55c-.09.28-.15.51-.2.68q-.19 1-.33 2.21t-.19 2q-.07.81-.1 2.28t0 2V67.19a12.7 12.7 0 0 0 0 1.85 12.94 12.94 0 0 0 .13 1.63.58.58 0 0 0 .1.29.56.56 0 0 1 .1.23 2.73 2.73 0 0 1 0 .36 2.54 2.54 0 0 0 0 .36 4.25 4.25 0 0 0 .1.81 4.33 4.33 0 0 1 .1.81 2.54 2.54 0 0 0 0 .55 2.23 2.23 0 0 1 .06.26.49.49 0 0 0 .13.26.31.31 0 0 0 .23.1.73.73 0 0 0 .07-.33v-.26a.49.49 0 0 1 .07-.2 1.85 1.85 0 0 1 .13-.23.57.57 0 0 1 .16-.16l.23-.13a2.5 2.5 0 0 1 .78-.2 4.35 4.35 0 0 0 .69-.12zm-2.21 2.54q.06.26.65-.2c.13-.09.17-.17.13-.26a.36.36 0 0 0-.13-.16s-.13 0-.26.16l-.26.26a.72.72 0 0 0-.12.2zm.13.33a.52.52 0 0 0 .39.42.42.42 0 0 0 .52-.23zm1.3-1.82a1.45 1.45 0 0 0 .07.29 1.44 1.44 0 0 1 .06.36s-.09 0-.13.13-.16.16-.1.23.17 0 .33-.1a4.65 4.65 0 0 0 .46-.46c.15-.17.25-.26.29-.26a.45.45 0 0 0-.46-.16 1.29 1.29 0 0 1-.51-.04zm2.79-66.75Q155 9 155 9.24a3.42 3.42 0 0 0-.16.42 3.64 3.64 0 0 1-.16.42 2 2 0 0 0 0 .32.54.54 0 0 1 0 .33 1.21 1.21 0 0 1-.23.62 1.2 1.2 0 0 0-.23.62q-.06 1.11-.13 1.63l-.19.62a2.34 2.34 0 0 0-.13.62q-.07.33-.2 1.76a4.85 4.85 0 0 0-.07.91v.85s-.06.31-.19.81-.13.75 0 .75a39.32 39.32 0 0 0 1.3-5.53 4.13 4.13 0 0 1 .06-.65 4.17 4.17 0 0 1 .13-.65 1.74 1.74 0 0 1 .13-.55A1.78 1.78 0 0 0 155 12v-.49a4.32 4.32 0 0 1 0-.55 1.82 1.82 0 0 1 .13-.49.72.72 0 0 1 .36-.36c-.17-.13-.24-.24-.19-.33v-.21a2.79 2.79 0 0 1 .19-.65 1 1 0 0 1 .16-.42l.23-.42a2.07 2.07 0 0 0-.2-.72zM154.19 2a1 1 0 0 0-.55.29c-.24.19-.29.34-.16.42s.28.08.46-.16a1.1 1.1 0 0 0 .25-.55zm-.78 2a1.13 1.13 0 0 0 .46-.39 1 1 0 0 0 .26-.58c-.49.51-.72.84-.72.97zm.52 67a1.6 1.6 0 0 1-.06 1.17q-.39-.46-.39-.62c-.01-.05.14-.23.45-.49zm4.36-11.9a1.26 1.26 0 0 0-.07-1.17 1.26 1.26 0 0 0 .06 1.23zm1.63-4.94c-.13-.61-.24-.93-.33-1s-.17.09-.26.26a.55.55 0 0 0 .13.78c.12.21.27.19.45.02zm.39 2.47q1 0 .2-.52a2.64 2.64 0 0 1-.21.58zm.78-2.67a1.51 1.51 0 0 1 .46.78.78.78 0 0 1-.1.33.22.22 0 0 1-.29.13c-.09 0-.15-.25-.19-.62s-.02-.51.11-.58zm1.3-1.43q-.58-.52-.13-.91a1.46 1.46 0 0 1 .12.98zm-.26-10.08a3.64 3.64 0 0 0 1.3-.13 2.86 2.86 0 0 0-1.31.2zm.65 12.29q-.58-.19-.26-.84a5.71 5.71 0 0 0 .25.91z"/><path class="cls-1" d="M183.37 73.14a19.78 19.78 0 0 1-1.24 2.44 12.58 12.58 0 0 1-1 1.53l-.33.39c-.09 0-.09.09 0 .26s.09.3 0 .39a4.26 4.26 0 0 1-.39.29 3.66 3.66 0 0 0-.46.36.4.4 0 0 0-.1.2.42.42 0 0 1-.06.16 2.36 2.36 0 0 1-.36.16h-.2a.19.19 0 0 0-.2 0 .67.67 0 0 0-.26.13.68.68 0 0 1-.26.13 1 1 0 0 1-.58.07c-.13 0-.28 0-.46.26a.49.49 0 0 0-.33-.23 1.12 1.12 0 0 0-.46 0 1.82 1.82 0 0 1-.39.07 2.22 2.22 0 0 1-.39-.1 2 2 0 0 0-.58-.1 2.36 2.36 0 0 0-.78.16 1.68 1.68 0 0 1-.71.13 1.1 1.1 0 0 1-.59-.36 11.54 11.54 0 0 1-1.56-2.41l-.58-1.37a5.57 5.57 0 0 1-.46-1.24 12.94 12.94 0 0 0-.39-1.23.7.7 0 0 0-.16-.36 3 3 0 0 1-.23-.36v-.71a2.38 2.38 0 0 1-.1-.49 1.4 1.4 0 0 0-.1-.42c0-.17-.1-.45-.16-.81s-.12-.66-.16-.88a47.16 47.16 0 0 1-1-6.89 42.93 42.93 0 0 1 .58-7.61q.32-2.34.46-3.51a11.5 11.5 0 0 0 .33-1.17 2.39 2.39 0 0 0 .19-.71.66.66 0 0 0 0-.42q-.06-.1-.39-.16h-.2a4.65 4.65 0 0 1-2.4-1.3 2.52 2.52 0 0 1-.58-1q-.07-.39.58-1l1.95-2.15a8.54 8.54 0 0 1 1.3-1 3 3 0 0 0 1-.78 3.22 3.22 0 0 0 .16-1 2.89 2.89 0 0 1 .1-.78q.26-1.43.33-1.69a17.79 17.79 0 0 1 .33-2q.26-1.23.33-1.69a28.23 28.23 0 0 0 .26-3.15 30.55 30.55 0 0 1 .26-3.22q.13-.65.26-2a2.13 2.13 0 0 1 .58-1.1q.06.39-.13.49c-.13.06-.19.14-.19.23l.26.39h.06v.49c0 .24 0 .38.1.42a4.31 4.31 0 0 0 .26-1.69 4.59 4.59 0 0 1 0-.49c0-.19.05-.4.1-.62a2.83 2.83 0 0 0 .07-.52 8.63 8.63 0 0 1 .23-.84q.16-.52.23-.78a4.08 4.08 0 0 1 0-.42c0-.19 0-.36.07-.49a1.79 1.79 0 0 1 .13-.42 1.12 1.12 0 0 1 .23-.36 1.07 1.07 0 0 1 0 .52 3.2 3.2 0 0 0-.07.39v.58a1 1 0 0 1-.1.29c-.06.15-.08.25 0 .29q.19.46.52-.39a2.59 2.59 0 0 0 .13-1.17 3.56 3.56 0 0 1 .32-1 1 1 0 0 0 .07-.42 1 1 0 0 1 .07-.42.53.53 0 0 1 .19-.33l.2-.19h.06a.06.06 0 0 1 .07-.06.19.19 0 0 0 .13-.06 2.15 2.15 0 0 0 .13-.72q.06-.71.78-4.42.06-.32.2-1.17t.26-1.37a3.72 3.72 0 0 1 .16-.78c.11-.39.2-.73.26-1a3.64 3.64 0 0 0 .1-.81q-.46.78-.39.06c0-.17.11-.41.2-.72a1.81 1.81 0 0 1 .19-.52 12.68 12.68 0 0 1 1-2.73 1.08 1.08 0 0 0-.26 0 .74.74 0 0 0-.26.13l-.2.16-.16.19-.16.2a2.55 2.55 0 0 0-.26.46l-.16-.2a.39.39 0 0 1-.1-.19q-.46.59-.46.26a.57.57 0 0 1 .07-.26q.26-1.17.39-1.56a3.28 3.28 0 0 0-.62 1 7.3 7.3 0 0 1-.42.84.23.23 0 0 0-.2-.19.51.51 0 0 1-.06.19.5.5 0 0 0-.07.2q-.26-.2.1-1.1a6.48 6.48 0 0 1 .68-1.37c.13-.13.22-.19.26-.19l.33-.06s.13-.09.26-.26a3 3 0 0 1 .91-.91 1 1 0 0 1 .91-.26 1.5 1.5 0 0 1 .52.13 1.48 1.48 0 0 0 .52.13 3.44 3.44 0 0 1 .94.46c.33.22.46.46.42.72a.71.71 0 0 1 .84-.2l.16.16a.27.27 0 0 1 .1.16h.23a.47.47 0 0 1 .23.1q.91.46 1.17 2.34.45 3.9.58 6.5a35.15 35.15 0 0 1-.52 6.31q-.72 4.88-1 6.24t-1.69 6.11q-.13.46-.46 2.7t-.46 2.76q-.19.52-.58 1.5a2.56 2.56 0 0 0-.26.49q-.19.42-.29.68a.48.48 0 0 0 0 .42 1.51 1.51 0 0 0 .42.39 4.32 4.32 0 0 1 .39.29 11.77 11.77 0 0 0 .85 1 6.25 6.25 0 0 0 .84 1 3.18 3.18 0 0 0 1.37.52 7.78 7.78 0 0 0 6-1.37 22.93 22.93 0 0 0 5.07-4.94c.13-.26.23-.4.29-.42a1.26 1.26 0 0 1 .55.16 10.93 10.93 0 0 1 1 .52q.33.26.26 1a1.1 1.1 0 0 1-.06.49 1 1 0 0 1-.46.23c0 .09.11.22.33.39s.33.3.33.39a.37.37 0 0 1-.13.26 1.24 1.24 0 0 1-.32.23 1.13 1.13 0 0 0-.26.16c0 .09.05.12.16.1a.25.25 0 0 1 .23 0q.13.19-.07.58s-.28.41-.71 1.1a6.19 6.19 0 0 1-2.41 1.82 11 11 0 0 1-3.31 1 1.88 1.88 0 0 0-.46.1l-.58.16a.8.8 0 0 1-.46 0 .78.78 0 0 1-.26-.1.79.79 0 0 0-.26-.1 1.82 1.82 0 0 0-.39.06l-.33.06q-.65 0-1.79-.06t-1.57.08a.64.64 0 0 0-.52.19.62.62 0 0 0-.13.49 2.8 2.8 0 0 0 .13.58c.06.19.15.42.26.68s.18.46.23.58v.46a1.13 1.13 0 0 0 .23.29c.11.11.16.18.16.23a.55.55 0 0 1 0 .52.32.32 0 0 1-.26-.02h-.23c-.13.09-.17.15-.13.19a.27.27 0 0 1 .07.19 1.42 1.42 0 0 0 .06.46 1.44 1.44 0 0 0 .58.78.31.31 0 0 1 .07-.16.33.33 0 0 0 .06-.16 3.61 3.61 0 0 1 .58 1.82q.06.2.2.68a7.14 7.14 0 0 1 .16.71 2.15 2.15 0 0 1 0 .62.79.79 0 0 1-.36-.58 1.27 1.27 0 0 0-.23-.58 2.13 2.13 0 0 1-.33-1q.06-.45-.06-.58l-.52-.06a2.24 2.24 0 0 1-.23-.33 2.39 2.39 0 0 0-.23-.32 1.21 1.21 0 0 1-.13.42 1.25 1.25 0 0 0-.13.49 1 1 0 0 0 .07.33c0 .09 0 .19-.13.33l-.33.19a.73.73 0 0 1-.33.06h-.33a10.13 10.13 0 0 0-.91.71.75.75 0 0 1 .33.58v.33a1.87 1.87 0 0 0 .1.46 3.33 3.33 0 0 0 .16.46 2.89 2.89 0 0 1-.06.52 2.76 2.76 0 0 0-.07.52v.36a3.58 3.58 0 0 0 0 .52 1.16 1.16 0 0 0 .1.36c.09.26.21.37.36.33s.27-.2.36-.46a1 1 0 0 0-.46-1.24 2.26 2.26 0 0 0 .46-.52.5.5 0 0 0-.13-.29l-.19-.23a1.49 1.49 0 0 1 .46-.78l-.36-.39-.3-.34a3.58 3.58 0 0 0 .72-.33.48.48 0 0 0 .19-.16c0-.07.13 0 .26.1a.42.42 0 0 1 .1.19.38.38 0 0 0 .07.16.91.91 0 0 0 .36 0 1 1 0 0 1 .13.65 5.34 5.34 0 0 0 .2 1.1 2.16 2.16 0 0 0 .26.49 1.2 1.2 0 0 1 .2.36 1.19 1.19 0 0 1 .13.33h-.26a1 1 0 0 1-.46-.1.75.75 0 0 0-.29-.1.82.82 0 0 0-.36.19 1.13 1.13 0 0 0 .65.46 3.87 3.87 0 0 0 .58.2 5.8 5.8 0 0 1 1.23.78q.06.13-.29.32a4 4 0 0 1-.81.33l-.65.2a1 1 0 0 1-.29-.1c-.15-.07-.26-.08-.33 0s-.1.15-.1.33.3.39.91.26.93 0 1 .33c0 .17 0 .28-.1.32a1.53 1.53 0 0 1-.26.13.83.83 0 0 0-.29.19s-.08.05-.1.16a.2.2 0 0 1-.23.16 1.3 1.3 0 0 1-.39-.26v1a.71.71 0 0 1 .29-.13 2.26 2.26 0 0 0 .36-.13 1.12 1.12 0 0 1 .29-.1.44.44 0 0 1 .29 0 .26.26 0 0 1 .13.26 1.16 1.16 0 0 1-.06.84 1.34 1.34 0 0 1-.52.65c.26 0 .3.17.13.39a.51.51 0 0 1 .2.06c.26.09.43 0 .52-.13s.11-.14.06-.29 0-.25.07-.29c.22-.22.33-.11.33.33a.92.92 0 0 1 .06.39v.13q0 .32-1 1t-1 1c0 .22 0 .52-.06.91a3.94 3.94 0 0 0 .06.58 1.31 1.31 0 0 1 0 .58 4 4 0 0 1-.19.85 2.2 2.2 0 0 0-.13 1l-.26 2.14a15.74 15.74 0 0 1-.98 3.01zm-4.75-.07l.58-.78a.35.35 0 0 0 0-.29.25.25 0 0 1 .07-.29.67.67 0 0 1 .23-.13c.11 0 .16-.09.16-.13a1.41 1.41 0 0 0 .42-.55 3.93 3.93 0 0 0 .26-.88 6.05 6.05 0 0 1 .16-.71.44.44 0 0 1-.19.1c-.09 0-.13.05-.13.1a1.29 1.29 0 0 1 .2-.91 2.21 2.21 0 0 0 .58-1s.2-1.15.58-3.31q.06-.33.26-1.46t.29-1.62a11.9 11.9 0 0 0 .16-1.37q.06-.88.13-1.59a32.4 32.4 0 0 0-.52-6c0-.17-.12-.41-.23-.71s-.18-.5-.23-.58-.09-.4-.13-.68-.09-.51-.13-.68a2.29 2.29 0 0 0-.33-.65 2.81 2.81 0 0 1-.33-.58.31.31 0 0 1 .07-.16.12.12 0 0 0 0-.16 2.88 2.88 0 0 0-.39-.91q-.78-1.49-1.49-2.67a1.16 1.16 0 0 0-.13-.33 1.53 1.53 0 0 0-.26-.39.38.38 0 0 0-.26-.13.88.88 0 0 0-.49.42 1.17 1.17 0 0 0-.23.55l.19.39a1.28 1.28 0 0 1-.13.29 1.05 1.05 0 0 1-.13.16q-.26.58-.46 1.17a2.82 2.82 0 0 0-.1.62 2.88 2.88 0 0 1-.1.62 4.3 4.3 0 0 0-.2.55c-.09.28-.15.51-.2.68q-.19 1-.33 2.21t-.19 2q-.07.81-.1 2.28t0 2V67.19a12.7 12.7 0 0 0 0 1.85 12.94 12.94 0 0 0 .13 1.63.58.58 0 0 0 .1.29.56.56 0 0 1 .1.23 2.73 2.73 0 0 1 0 .36 2.54 2.54 0 0 0 0 .36 4.25 4.25 0 0 0 .1.81 4.33 4.33 0 0 1 .1.81 2.54 2.54 0 0 0 0 .55 2.23 2.23 0 0 1 .06.26.49.49 0 0 0 .13.26.31.31 0 0 0 .23.1.73.73 0 0 0 .07-.33v-.26a.49.49 0 0 1 .07-.2 1.85 1.85 0 0 1 .13-.23.57.57 0 0 1 .16-.16l.23-.13a2.5 2.5 0 0 1 .78-.2 4.35 4.35 0 0 0 .68-.12zm-2.21 2.54q.06.26.65-.2c.13-.09.17-.17.13-.26a.36.36 0 0 0-.13-.16s-.13 0-.26.16l-.26.26a.72.72 0 0 0-.13.2zm.13.33a.52.52 0 0 0 .39.42.42.42 0 0 0 .52-.23zm1.3-1.82a1.45 1.45 0 0 0 .07.29 1.44 1.44 0 0 1 .06.36s-.09 0-.13.13-.16.16-.1.23.17 0 .33-.1a4.65 4.65 0 0 0 .46-.46c.15-.17.25-.26.29-.26a.45.45 0 0 0-.46-.16 1.29 1.29 0 0 1-.52-.04zm2.79-66.75Q180 9 179.92 9.24a3.42 3.42 0 0 0-.16.42 3.64 3.64 0 0 1-.16.42 2 2 0 0 0 0 .32.54.54 0 0 1 0 .33 1.21 1.21 0 0 1-.23.62 1.2 1.2 0 0 0-.23.62q-.06 1.11-.13 1.63l-.19.62a2.34 2.34 0 0 0-.13.62q-.07.33-.2 1.76a4.85 4.85 0 0 0-.07.91v.85s-.06.31-.19.81-.13.75 0 .75a39.32 39.32 0 0 0 1.3-5.53 4.13 4.13 0 0 1 .06-.65 4.17 4.17 0 0 1 .13-.65 1.74 1.74 0 0 1 .13-.55A1.78 1.78 0 0 0 180 12v-.49a4.32 4.32 0 0 1 0-.55 1.82 1.82 0 0 1 .13-.49.72.72 0 0 1 .36-.36c-.17-.13-.24-.24-.19-.33v-.21a2.79 2.79 0 0 1 .19-.65 1 1 0 0 1 .16-.42l.23-.42a2.07 2.07 0 0 0-.24-.72zM179.14 2a1 1 0 0 0-.55.29c-.24.19-.29.34-.16.42s.28.08.46-.16a1.1 1.1 0 0 0 .25-.55zm-.77 2a1.13 1.13 0 0 0 .46-.39 1 1 0 0 0 .26-.58c-.49.51-.72.84-.72.97zm.52 67a1.6 1.6 0 0 1-.06 1.17q-.39-.46-.39-.62c-.01-.05.14-.23.44-.49zm4.36-11.9a1.26 1.26 0 0 0-.07-1.17 1.26 1.26 0 0 0 .06 1.23zm1.63-4.94c-.13-.61-.24-.93-.33-1s-.17.09-.26.26a.55.55 0 0 0 .13.78c.12.21.27.19.45.02zm.39 2.47q1 0 .2-.52a2.64 2.64 0 0 1-.22.58zM186 54a1.51 1.51 0 0 1 .46.78.78.78 0 0 1-.1.33.22.22 0 0 1-.29.13c-.09 0-.15-.25-.19-.62s.03-.55.12-.62zm1.3-1.43q-.58-.52-.13-.91a1.46 1.46 0 0 1 .16.94zm-.26-10.08a3.64 3.64 0 0 0 1.3-.13 2.86 2.86 0 0 0-1.27.16zm.65 12.29q-.58-.19-.26-.84a5.71 5.71 0 0 0 .29.87zM237 53.18a1 1 0 0 0 .33-.84 1.53 1.53 0 0 0-.2.29 1.67 1.67 0 0 1-.2.29 11.82 11.82 0 0 1-1-2.41l-.52-1.5a1.89 1.89 0 0 0-.32-.39 1.13 1.13 0 0 1-.33-.52q-.26.07-.91.91a2.1 2.1 0 0 1-.33-.45 7.38 7.38 0 0 0-.62.55 4.46 4.46 0 0 0-.58.75l-.46.71q-.16.26-.46.81a6.22 6.22 0 0 0-.36.75q-.78 1.3-1.88 3.05-.39.59-1.3 2l-1.43 2.27q-.52.81-1.33 2t-1.59 2q-.39.52-1 1.53a13.39 13.39 0 0 1-.94 1.4 4.37 4.37 0 0 1-.36.52l-.49.58a3.81 3.81 0 0 1-.58.58 2.86 2.86 0 0 1-.55.32.5.5 0 0 1-.52 0 1.11 1.11 0 0 1-.36-.62q-.13-.07-.06-1t.06-1.11a1.07 1.07 0 0 0-.06-.32c-.13-.26-.09-.41.13-.46q.06-.13.39-1.17.13-.59.36-1.56t.46-1.79a8.14 8.14 0 0 1 .55-1.46q.19-.39 1.5-4.22.19-.71.75-2.18t.81-2.24q.39-1.17 1.37-3.8t1.43-4.06q.13-.52.68-2a22.23 22.23 0 0 0 .75-2.37q.39-1.49.58-2.21a1.12 1.12 0 0 1 .2-.46 1.4 1.4 0 0 0 .19-.39 3.5 3.5 0 0 0 .1-.75 3.39 3.39 0 0 1 .1-.75q.39-1.62.84-4.49a11.52 11.52 0 0 0-.39-3.38q-.19-1.23-.2-1.5a4 4 0 0 0-.06-.84q.45-.26-.07-.58a2.26 2.26 0 0 1 .33-.65 5.68 5.68 0 0 1 1.23-1.62 5.3 5.3 0 0 1 2.28-.59 10.42 10.42 0 0 1 4.81.59 3.67 3.67 0 0 1 1 .55 5.35 5.35 0 0 1 .68.62q.23.26.75.91t.71.85c-.26.13-.3.3-.13.52s.13.11.26.06a1.1 1.1 0 0 1 .26-.06c.39 0 .59.09.62.13a2.4 2.4 0 0 1-.16.71 25.41 25.41 0 0 1-1.39 3.31 1.09 1.09 0 0 1-.07.26 2.09 2.09 0 0 1-.19.26.8.8 0 0 1-.1.26.78.78 0 0 0-.1.26q-.19.2.07.33a.18.18 0 0 0 .06.13l.13.13-.13.13-.13.13c-.26.13-.3.28-.13.46a.27.27 0 0 1 .06.19 9 9 0 0 1-1.36 3.06.49.49 0 0 1 .29.26.72.72 0 0 1 0 .49 5.71 5.71 0 0 1-.16.58 3.48 3.48 0 0 1-.26.58 1.07 1.07 0 0 0-.16.49 14.22 14.22 0 0 0-.45 3.31q-.07.72-.23 2.28t-.2 2.27v2.21a24.88 24.88 0 0 1 .2 2.79q.06 2 .2 3.06a7.38 7.38 0 0 0 1.17 3.51q.71.85 1.43.58s.14-.08.29-.23a.64.64 0 0 1 .42-.23c-.26.35-.28.52-.06.52a3.45 3.45 0 0 0 1.63-.71 25.16 25.16 0 0 0 2.21-2 .49.49 0 0 0 .39-.45q.45 0 .13-.46.13-.26.84-1.3 1.43-2.15 1.84-2.78l1-1.07a12 12 0 0 0 1-1.2l.81-1.17q.68-1 1.07-1.43.59-.71 1.17-1.56t1.3-1.95q.71-1.1 1.11-1.62 1.56-2.27 3.58-4.87a7.84 7.84 0 0 1 .49-.62 7.49 7.49 0 0 0 .58-.78 4.16 4.16 0 0 0 .36-.68 8.89 8.89 0 0 1 .39-1.1l.2-.58.2-.58a6.18 6.18 0 0 0 .65-.94c.3-.5.52-.87.65-1.1s.33-.62.58-1.14a8 8 0 0 1 .58-1q.13-.26.42-.91a10.09 10.09 0 0 1 .49-1 1.44 1.44 0 0 1 .33-.36 3.18 3.18 0 0 0 .46-.49.51.51 0 0 0 .13-.46s-.12.06-.23.19-.18.2-.23.2H265q.19-.26.62-.88t.62-.88q.19.33.78-.78a4.06 4.06 0 0 0 .71-1.62 1.74 1.74 0 0 0-.42.46 1.07 1.07 0 0 1-.62.46.52.52 0 0 0 .16-.46.44.44 0 0 1 .15-.45s.1-.13.29-.26.29-.22.29-.26q0-.32.46-.13a2.75 2.75 0 0 0 .06-.46 1.74 1.74 0 0 0 .29-.49 3.3 3.3 0 0 1 .36-.62q-.33-.19-.26-.46c.26 0 .35-.13.26-.39a.36.36 0 0 1 .07-.46 17.82 17.82 0 0 1 2-2.47.66.66 0 0 1 .23.52.58.58 0 0 0 .29.52.75.75 0 0 0 .13-.19c.13-.22.28-.2.46.06l.29.1a.3.3 0 0 1 .16.16.69.69 0 0 0 .1.16l.16.23a.68.68 0 0 1 .13.26 6 6 0 0 0 .91-.85l.19.19.2.2a.84.84 0 0 0-.46 1 .62.62 0 0 0-.55.13c-.15.13-.25.19-.29.19h-.39a2.47 2.47 0 0 0-.45.1.69.69 0 0 0-.33.23l-.2.23a1.56 1.56 0 0 0-.39.16 1.14 1.14 0 0 0-.46.36q-.52-.32-.85.39l-.13.26c0 .09-.09.19-.13.29l-.16.39-.16.36q-.06.26-.26.81a3.79 3.79 0 0 1-.33.75q-.39.46-.32.65c0 .13.19.2.46.2a.86.86 0 0 1 .45.06q.13.19-.06.62a8.53 8.53 0 0 1-.52.94 2 2 0 0 0-.32.65s.09 0 .26-.23a1.67 1.67 0 0 1 .46-.39c.13-.06.24 0 .33.29 0 0 0 .16-.16.36a1.34 1.34 0 0 1-.36.36 2.53 2.53 0 0 1-.55.1 1 1 0 0 0-.62.29q-.26-.52-.29-.62c0-.06-.11-.05-.26 0a1.89 1.89 0 0 1-.49.2 2.6 2.6 0 0 1 .39.32 1.48 1.48 0 0 0-.71 1 2.32 2.32 0 0 1-.19.58 2.14 2.14 0 0 1 .26.19 1.46 1.46 0 0 1-.26.52c-.22.3-.34.48-.36.52a2 2 0 0 0 0 .58q.32-.26.46-.39a.58.58 0 0 1 .23.1.55.55 0 0 0 .23.1 3.06 3.06 0 0 0 1-.52.78.78 0 0 1-.13.78.38.38 0 0 1-.52.19.78.78 0 0 0-.52-.06c-.17 0-.27.1-.29.16s0 .14-.06.23a1.33 1.33 0 0 1-.1.26 5.86 5.86 0 0 1-.65 1 .47.47 0 0 0 .68-.29.69.69 0 0 1 .62-.49.48.48 0 0 1 .46.23 2 2 0 0 1 .19.65 2.25 2.25 0 0 0 .13.55.87.87 0 0 1-.62-.13.53.53 0 0 0-.68.13 1 1 0 0 0-.2 1.5c-.22.09-.36.1-.42 0a1 1 0 0 1-.2-.32 1.12 1.12 0 0 0-.23-.36c-.3-.09-.49-.1-.55 0a4.53 4.53 0 0 0-.42.68q.91 0 .84 1c0 .22 0 .34-.1.36a.18.18 0 0 1-.19-.06c-.07-.06-.16 0-.29.16a.65.65 0 0 0 0 .42 1.24 1.24 0 0 0 .49.26 2.71 2.71 0 0 0 .49.16 1.42 1.42 0 0 1 .52.52c-.17.17-.26.28-.26.33s.09.15 0 .19v-.06a.79.79 0 0 1 .46 0l.39-.06c.22 0 .33 0 .33.13q.39.26.13.52l-.2.19-.13.26c0 .09-.09.18-.13.29a.73.73 0 0 1-.13.23 1 1 0 0 0-.26.46 4 4 0 0 0-.13.65q-.06.46-.06.52l-.42.65a2.39 2.39 0 0 0-.29.52c0 .09.13.09.26 0s.24-.09.33 0c-.22.35-.3.56-.26.65a.21.21 0 0 0 .32.06.33.33 0 0 1 .33-.06.8.8 0 0 0-.13.46.91.91 0 0 1-.07.39 3.12 3.12 0 0 1-.71.58 2.1 2.1 0 0 0-.46.46c-.09.13-.12.22-.1.26a.31.31 0 0 1 0 .13.55.55 0 0 1-.1.23.57.57 0 0 0-.1.23l.16.2a.4.4 0 0 1 .1.19.84.84 0 0 1-.16.23.88.88 0 0 1-.23.16.76.76 0 0 0-.2.13q-.13.13-.65.78a9.76 9.76 0 0 1-1.37 1.63 7.76 7.76 0 0 0-.68.65 1.24 1.24 0 0 0-.16.49 1.24 1.24 0 0 1-.16.49.77.77 0 0 1-.33.23 1.13 1.13 0 0 0-.36.23s0 .19-.06.46a.87.87 0 0 1-.36.29 2.09 2.09 0 0 0-.36.23c-.13.17-.34.42-.62.75a7.84 7.84 0 0 1-.68.71 4.13 4.13 0 0 0-.65.85 3.23 3.23 0 0 1-.65.81q-.72.65-2.83 2.79a28.93 28.93 0 0 1-3.48 3.12 8.52 8.52 0 0 1-.81.65l-.91.7-.94.68a7.23 7.23 0 0 1-1 .62l-1.07.52a3.41 3.41 0 0 1-1.1.39 10.52 10.52 0 0 0-1.07.16 1.63 1.63 0 0 1-1.14-.13 4.22 4.22 0 0 1-2.21-1.69 7.34 7.34 0 0 0-.65-.71l-.71-.71q-.65-.85-1.11-1.56a25.09 25.09 0 0 1-1-2.39zm24.5-20.41a2.33 2.33 0 0 1 .33-.23 2.21 2.21 0 0 0 .36-.26 2.11 2.11 0 0 0 .23-.29 1.64 1.64 0 0 0 .19-.39l-.36.16-.42.16a.82.82 0 0 0-.33.19l-.07.06a.29.29 0 0 0-.06.33zm3.58-4.94a1.16 1.16 0 0 1 .23-.29 1.2 1.2 0 0 0 .23-.29 1 1 0 0 0-.68 0q-.49.1-.55.36zm.81 6.14l-.39.16a.41.41 0 0 0-.23.19s-.05.13 0 .39.1.39.23.39a.38.38 0 0 0 .33-.23 7.13 7.13 0 0 0 .39-1 1.06 1.06 0 0 0-.33.13zm.42-3.41a.77.77 0 0 1-.29-.19s.05-.15.23-.33c.13.22.28.46.46.72a.39.39 0 0 0-.2.1.39.39 0 0 1-.2.1zm1.56 4.88a2.78 2.78 0 0 0-.26.91.79.79 0 0 0 .1.26c.07.13 0 .22-.1.26s-.34.12-.62 0a.89.89 0 0 0-.62-.16v-.72-.65l.33.26-.13.32a1.22 1.22 0 0 0 .42-.13l.58-.26q.23-.16.3-.09zm-1.11-11.7c.35-.3.56-.39.65-.26s-.07.35-.46.65a.62.62 0 0 1-.46.2 1.76 1.76 0 0 0 .27-.59zm2.6 2.6a.94.94 0 0 1-.33.78.87.87 0 0 1-.71.19.79.79 0 0 1 .26-.36l.42-.32a2.94 2.94 0 0 0 .36-.29zm-.13-3.25l.45-.2a1.29 1.29 0 0 0 0 .23 1.12 1.12 0 0 0 .1.29 1.13 1.13 0 0 1-.55-.32zm1.23-1.56c.09.3 0 .56-.39.78-.13-.3-.09-.52.13-.65zm-.19 35.16a.79.79 0 0 1-.13-.46 3.47 3.47 0 0 1 .07-.62 3.39 3.39 0 0 0 .07-.49v-2.07l.06-1.37v-.62a4.46 4.46 0 0 1 0-.78.55.55 0 0 1 .23-.42.88.88 0 0 1-.07-1 1.65 1.65 0 0 1 .46-.52 2.06 2.06 0 0 1-.26-.32c-.26-.17-.28-.33-.07-.46v-.26s0-.39.13-1a3.32 3.32 0 0 0-.06-1.07 2.13 2.13 0 0 1 0-1.07q.06-.52.39-.62a3.64 3.64 0 0 1 1-.1 1.56 1.56 0 0 0-.13-.81c-.09-.11-.33-.08-.72.1.13-.3.09-.52-.13-.65s-.19-.22-.06-.39q-.07-.91-.07-1a.52.52 0 0 0-.06-.19c0-.13.06-.24.32-.33h.39a3.44 3.44 0 0 1 .46.16 1 1 0 0 0 .06.26q.13.91.46.39a1.09 1.09 0 0 0 .07-.26.58.58 0 0 0-.1-.23.57.57 0 0 1-.1-.29s-.09 0-.13-.13a.82.82 0 0 0-.13-.19.82.82 0 0 0 .13-.33l.2-.39a.62.62 0 0 1-.33 0s-.07-.08-.07-.16a.27.27 0 0 0-.06-.19.36.36 0 0 0-.07-.46.51.51 0 0 0-.26-.1.48.48 0 0 1-.26-.1 1.63 1.63 0 0 1-.52-1 1.22 1.22 0 0 1 .2-1 .48.48 0 0 0 .36 0c.06 0 .1-.15.1-.33s0-.35-.26-.39l-.23-.26a.68.68 0 0 1-.16-.46 4 4 0 0 1 .33-1.36.83.83 0 0 0 .52-.33 1.46 1.46 0 0 0 .26-.65.86.86 0 0 1-.39 0 .23.23 0 0 1-.16-.1.38.38 0 0 1 0-.23 1 1 0 0 0 0-.42 1.09 1.09 0 0 0-.07-.33 1 1 0 0 1-.07-.33V31a.58.58 0 0 0 .07-.16h.07a1.22 1.22 0 0 0 .39-.06s.11-.1.33-.16a1.94 1.94 0 0 0 .52-.23.62.62 0 0 0 .26-.33.25.25 0 0 0-.29-.36l-.36.1-.36.1a.24.24 0 0 1-.23 0 1.11 1.11 0 0 0 .33-.33 4 4 0 0 1 .26-.32.84.84 0 0 0-.36-.2 1.21 1.21 0 0 0-.42.2 2 2 0 0 1 .16-.68q.16-.42.23-.62v-.42a1.75 1.75 0 0 1 0-.49c0-.13.12-.22.29-.26a2.45 2.45 0 0 1-.07-1.23 2.66 2.66 0 0 1 .13-.65s0-.11.13-.2a1 1 0 0 0 .2-.26.22.22 0 0 0-.1-.29q-.16-.1 0-.29a.64.64 0 0 1 .32-.1.63.63 0 0 0 .33-.1.65.65 0 0 0 .16-.23.19.19 0 0 0-.07-.2.76.76 0 0 0-.16-.13l-.26-.13-.32-.16.29-.26a.79.79 0 0 0 .2-.19l.1-.19a.37.37 0 0 0 0-.26 1.68 1.68 0 0 1 0-.39.49.49 0 0 1 .06-.2.51.51 0 0 0 .07-.19.67.67 0 0 1-.13-.26 2.09 2.09 0 0 0-.2-.26 3.12 3.12 0 0 1-.33-.46.57.57 0 0 1 .1-.23 1.36 1.36 0 0 1 .16-.23l.29-.65a2.33 2.33 0 0 0 .23-.91.77.77 0 0 0-.07-.23.74.74 0 0 1-.06-.23c0-.17.13-.26.39-.26q.06-.39-.26-.39a5.15 5.15 0 0 0 .52-1.82 1.44 1.44 0 0 1 .13-.36 1.23 1.23 0 0 0 .13-.42 1 1 0 0 1-.13-.16.32.32 0 0 1-.06-.16 4.12 4.12 0 0 1 .26-.46 6.39 6.39 0 0 0 .13-.78q-.26-.39.13-.58a.63.63 0 0 0 .13-.33 5.19 5.19 0 0 1 .07-.65s.13-.06.26-.2c.35-.13.43-.32.26-.58S275 10 275 9.83l.39.13.29.1a.49.49 0 0 0 .29 0q.59-.26.46-1.3a1.65 1.65 0 0 1-.71 0c-.13-.17-.18-.27-.16-.29l.19-.16a.68.68 0 0 0 .23-.32 2.27 2.27 0 0 0-.1-.49 2.82 2.82 0 0 1-.1-.42q-.07-.91-.07-1a2.66 2.66 0 0 1-.13-.46.26.26 0 0 0-.26-.19c-.17 0-.2-.15-.07-.33a.5.5 0 0 0 .07-.19l-.32-.35-.26-.26a1.27 1.27 0 0 1 .16-.46c.11-.22.1-.33 0-.33s-.11 0-.2.13-.13.15-.13.19q-.19-.45.52-1.2t1.1-.63a2.94 2.94 0 0 1 1.56 1.43 5 5 0 0 1 .62-.46 1.8 1.8 0 0 1 .62-.32.4.4 0 0 1-.1-.16.43.43 0 0 0-.1-.16 1.25 1.25 0 0 1 .49.2 1.65 1.65 0 0 1 0 .52.43.43 0 0 0 .39-.06.64.64 0 0 1 .33-.13q-.13-.32 0-.32c.11 0 .23.09.36.26a1.55 1.55 0 0 1 .2.33 1.47 1.47 0 0 0 .26.39q.52-1 .65-.19a2 2 0 0 1 .39-.13 2 2 0 0 0 .39-.13 4.61 4.61 0 0 1-.13.52 2.91 2.91 0 0 1 2.47 1.24 1.78 1.78 0 0 1 .26.58c0 .09-.13.26-.39.52a6.69 6.69 0 0 0-.72 1.1 32.05 32.05 0 0 0-1.74 5.66 35.8 35.8 0 0 0-1 5.85v1.24q-.19 1.11-.26 1.43a12.15 12.15 0 0 1-.13 1.5 12.15 12.15 0 0 0-.13 1.5q0 1.3-.26 6t-.13 7.41q.13 2.41-.07 6.76-.13 1.95-.13 2.92v1.53a8 8 0 0 0 0 1.46q.71 6.18 1 7.28a11 11 0 0 0 .58 1.56.25.25 0 0 1 0 .23.47.47 0 0 0 .1.36s.13.07.26.2q.45.13.26.46a1.21 1.21 0 0 1 .2.42v.2a2 2 0 0 1 0 .29.51.51 0 0 1-.1.26 1.23 1.23 0 0 0 .1.81 1.06 1.06 0 0 0 .75.29 6.57 6.57 0 0 0-.71.94 4.37 4.37 0 0 1-.78.94 1.88 1.88 0 0 1-.55.36 3.9 3.9 0 0 0-.46.23 1.85 1.85 0 0 0-.26.23 3.08 3.08 0 0 1-.29.26.53.53 0 0 1-.33.1h-.29a1.37 1.37 0 0 0-.36-.07.79.79 0 0 0-.36.13.9.9 0 0 1-.29.13 4.74 4.74 0 0 1-1.62.19l-.33-.19a.63.63 0 0 0-.33-.13 1.07 1.07 0 0 0-.29.1 1.05 1.05 0 0 1-.29.1 4.17 4.17 0 0 1-1.43-.2.42.42 0 0 1-.26-.19.42.42 0 0 0-.19-.2H272.97a2.5 2.5 0 0 1-.84-.65 4.25 4.25 0 0 1-1.24-2.08 9.94 9.94 0 0 1-.33-2.54q-.06-.33-.16-1t-.16-1.33a4.92 4.92 0 0 1 .03-1.09zm.19-36.59a2.22 2.22 0 0 1 .71-1.36 1.15 1.15 0 0 1-.7 1.36zm1-6.63q-.58-.26-.78 0a.25.25 0 0 0-.06.29.92.92 0 0 1 .06.19s.07.08.2.16.2.15.2.19a2.1 2.1 0 0 1 .23-.45.87.87 0 0 0 .2-.38zm.07 10c0 .22-.07.41-.33.58a.49.49 0 0 1 0-.36.3.3 0 0 1 .37-.21zM272 9.76l.52.46a1.29 1.29 0 0 0-.84.65.79.79 0 0 0-.2-.13l-.2-.2zM303.75 29.13c0 .13.15.15.33.06a2.08 2.08 0 0 1-.16.55 2.09 2.09 0 0 0-.16.55c0 .09.08.21.23.36a.64.64 0 0 1 .23.42 1.28 1.28 0 0 1-.26.65 1.5 1.5 0 0 0-.2.58s.11 0 .2-.13c0 .17 0 .28.13.33s.13.06.13-.06a.59.59 0 0 0-.07-.26q.71-.13.13-.32l.23-.2a.35.35 0 0 0 .16-.26c-.09-.09-.2-.06-.33.06a.63.63 0 0 1 .2-.46.56.56 0 0 0 .19-.39c-.13 0-.19 0-.19-.06a.51.51 0 0 1 .06-.19c0-.09 0-.17-.13-.26.22-.13.36.08.42.62a3.74 3.74 0 0 1 0 1.07 8.53 8.53 0 0 1-.58 2.4 17.78 17.78 0 0 1-1.82 3.25q-1.56 2.21-2.14 2.86-.78.85-2.47 2.41a14.44 14.44 0 0 1-1.41 1.29 4.74 4.74 0 0 1-.52.29 1.83 1.83 0 0 0-.42.26 2.74 2.74 0 0 0-.26.32 2.67 2.67 0 0 0-.29.55 4.2 4.2 0 0 1-.36.68 1.7 1.7 0 0 0-.29.68 2 2 0 0 0 .19.65 2.5 2.5 0 0 0 1.82 1.1 7.89 7.89 0 0 0 4.94-1.1l2.4-1.3q.39-.26 1.14-.81t1.14-.81a10.87 10.87 0 0 0 2.14-1.36 3 3 0 0 0 .52-.78.85.85 0 0 1 0-.19.32.32 0 0 1 .13-.2 1.21 1.21 0 0 1 .46-.1 1.54 1.54 0 0 0 .49-.1 11.34 11.34 0 0 0 .72-1 5.75 5.75 0 0 0 .65-.84v-.06q-.33-.91.13-.72c0 .39 0 .61.13.65s.35-.09.52-.39 0-.41-.26-.46a.27.27 0 0 1 .16-.23 1 1 0 0 1 .39-.13c.15 0 .23-.05.23-.1a.73.73 0 0 0 .29-.16.48.48 0 0 0 .13-.23 1.24 1.24 0 0 1 .1-.26 1.89 1.89 0 0 1 .33-.52 6.36 6.36 0 0 0 .42-.58 1.08 1.08 0 0 0 .16-.58 1 1 0 0 1-.23-.29c0-.06 0-.14.16-.23s0 0 .13.06a.21.21 0 0 0 .26.06 1.9 1.9 0 0 0 .45-.52 1.77 1.77 0 0 0 .36-.65 3.16 3.16 0 0 1 .29-.65.4.4 0 0 1 .1-.2l.16-.23a.74.74 0 0 0 .1-.23.41.41 0 0 0 0-.23c0-.06-.1-.12-.23-.16a2.44 2.44 0 0 0 .84-1.27 5.77 5.77 0 0 1 .65-1.33l.36-.42c.2-.24.37-.43.52-.58a2.91 2.91 0 0 1 .42-.36 2.34 2.34 0 0 1 .55-.13h.49a1.78 1.78 0 0 0-.19.71.1.1 0 0 0 .06.1v.16a.39.39 0 0 1-.1.19.41.41 0 0 0-.1.2.37.37 0 0 0 .13.26c.09.09.13.15.13.19a.47.47 0 0 1-.07.39 1 1 0 0 0-.13.39c.17-.13.28-.17.33-.13a2 2 0 0 1-.07.32q-.19.65 0 .78a.26.26 0 0 1-.26-.13c-.13.26-.07.39.2.39a.38.38 0 0 0 .32-.19 1.37 1.37 0 0 1 0 .23 1.45 1.45 0 0 0 0 .29.3.3 0 0 0-.33.06.15.15 0 0 0 .13.16c.09 0 .13.05.13.1a1.47 1.47 0 0 1-.13.46.24.24 0 0 0 0 .39c-.09.35-.15.58-.19.71a2.21 2.21 0 0 1-.13.23 2.31 2.31 0 0 0-.16.33 1.74 1.74 0 0 1-.2.36c-.06.09-.12.11-.16.06a1.38 1.38 0 0 0 .1-.42v-.42c0-.08-.11.08-.2.23l-.29.49a2.23 2.23 0 0 1-.23.32.19.19 0 0 0-.07.13s0 .09-.13.13h-.26c-.13 0-.2.06-.2.23.17 0 .26 0 .26.06a.61.61 0 0 0-.39.33l.2-.06c.09 0 .11.15.06.32a2 2 0 0 1-.13.39l-.26.26c-.13.13-.2.22-.2.26q.26.13-.19.65c-.13.17-.09.24.13.2q-.13.13-.91 1.1a2.77 2.77 0 0 1-1.43 1.1.29.29 0 0 0 .16.16.3.3 0 0 0 .2 0 .5.5 0 0 1 .29 0 .41.41 0 0 1-.23.2.9.9 0 0 1-.49 0 1 1 0 0 0-.52.52l-.23.26a3.32 3.32 0 0 0-.23.29 1.35 1.35 0 0 0-.13.26.79.79 0 0 0-.07.29 1 1 0 0 1 .58-.07 2.44 2.44 0 0 0-.13.33c-.13-.09-.22-.12-.26-.1s-.07.12-.07.29q-.26-.13-.39 0a.11.11 0 0 0 .13.13 1 1 0 0 1-.52.71.24.24 0 0 1 0 .39.7.7 0 0 1-.52.19 1.58 1.58 0 0 1-.68 1.1 1.58 1.58 0 0 0-.68 1.1c-.17 0-.19 0-.06-.13l-.39.19-.84.78a.27.27 0 0 1 .07.19 1.42 1.42 0 0 0-.58.26q-.13.07 0 .46-.33-.19-.39.13a.49.49 0 0 0-.06.19c-.09-.3-.33-.24-.72.19.09 0 .12.14.1.29a.82.82 0 0 0 .1.49.34.34 0 0 0-.29.29.57.57 0 0 1-.1.29c-.09 0-.21.08-.36.36s-.21.47-.16.55a.53.53 0 0 1 .39-.13c0 .09-.07.17-.2.26s-.2.17-.2.26.07.14.2.16.2.08.2.16l-.65.06c-.13 0-.22 0-.26.07s-.13.17 0 .26a5.26 5.26 0 0 1-1.11.52q-1.75.85-2.27 1.17-.13.06-2.21.71a4.2 4.2 0 0 1-1.37.33h-.52a2.76 2.76 0 0 0-.58.1.92.92 0 0 0-.39.06q-.33.33-.46 0-2 .19-2.21.2a12.79 12.79 0 0 1-2.86-.65 9.18 9.18 0 0 1-2.47-1.56 3.68 3.68 0 0 1-.58-.58.39.39 0 0 0-.26-.26c-.22 0-.28-.13-.2-.39a3.51 3.51 0 0 1-.26-.33c-.13-.17-.33-.41-.58-.71 0-.13 0-.21-.07-.23a.4.4 0 0 1-.19-.1q-.07-.19-.65-1.3a15.29 15.29 0 0 1-1.17-2.6 9.23 9.23 0 0 1-.46-2.27 4.16 4.16 0 0 1 .1-.49 2.2 2.2 0 0 0 .06-.72c0-.19-.12-.29-.29-.29a1.87 1.87 0 0 0 0-.65q0-.45.16-.58c-.09.26 0 .39.13.39a.47.47 0 0 0-.39-.65l.13-.58c-.09-.09-.13-.15-.13-.19l.13-.13c.22-.26.33-.37.33-.33 0-.13 0-.19-.1-.19a.18.18 0 0 1-.13 0l-.13-.16-.16-.23a.4.4 0 0 1-.07-.23l.2-.2q-.13-.45-.39-.52c0-.17.18-.26.42-.26a.69.69 0 0 0 .49-.13 1.19 1.19 0 0 0-.32-.1.49.49 0 0 1-.26-.1A4.74 4.74 0 0 0 285 38a1.53 1.53 0 0 0 .84-.13 1.64 1.64 0 0 1-.26-.36 1.06 1.06 0 0 0-.33-.36.42.42 0 0 1 .2-.2q-.46-.39 0-.65c.28-.17.42-.35.42-.52a.64.64 0 0 0-.13-.33.43.43 0 0 1-.07-.39 1.6 1.6 0 0 1 .33-.58.44.44 0 0 0 .33-.13 1.73 1.73 0 0 1-.07-.39 1 1 0 0 1 .2-.26.38.38 0 0 0 .13-.26q.58-1.1.84-1.5a3.87 3.87 0 0 1 .65-.85c.3-.22.46-.37.46-.45l.2-.33.06-.13q.26.07.33-.13l.13-.39a5.64 5.64 0 0 1 .71-.55 2.08 2.08 0 0 0 .71-.75.74.74 0 0 0 .13-.29.8.8 0 0 1 .19-.36 2.09 2.09 0 0 1 .39-.13 1.8 1.8 0 0 1 .39-.06l1.27-.91a4.77 4.77 0 0 1 1.79-.91l1-.29a4.67 4.67 0 0 1 1.17-.23 8.21 8.21 0 0 1 1.43.19l1.23.26a8.17 8.17 0 0 1 1 .13 1.07 1.07 0 0 1 .13.16.33.33 0 0 1 .07.16 1.06 1.06 0 0 1 .52 0 9.09 9.09 0 0 1 1.5.91 6.74 6.74 0 0 1 .58.91.62.62 0 0 0 .2.45.5.5 0 0 0 .2-.06c.17.39.19.6.06.62a.33.33 0 0 0-.26.16 1.07 1.07 0 0 0-.33-.78 1.25 1.25 0 0 0 .07 1.17 1.52 1.52 0 0 0 .34-.33zM285.74 43q-.13.07 0 .2.13-.2 0-.2zm-.07-6.17q.13.19.33 0-.13-.22-.32-.03zm0 1.56a.15.15 0 0 0 .1.16c.07 0 .1 0 .1-.1a.26.26 0 0 1-.19-.09zm11-4.94a.71.71 0 0 1 .16-.36q.16-.23.39-.49l.29-.33a14 14 0 0 0 .78-1.82q.58-1.56.2-1.82-.2-.19-1.56.52a9.79 9.79 0 0 0-2.86 2.27 15 15 0 0 0-1.82 2.4 18.16 18.16 0 0 0-1.37 4.81.32.32 0 0 1-.06.16.31.31 0 0 0-.07.16v.13q.13.33-.13.46a2.75 2.75 0 0 0 .06.46 2.81 2.81 0 0 1 .07.46 1.07 1.07 0 0 1-.1.42 1 1 0 0 0-.1.32 1.55 1.55 0 0 0 .13.42q.45.52 1.17-.46a.52.52 0 0 0-.19-.06h-.07c.13 0 .17-.11.13-.2l-.19-.19-.07-.06q.78-.13.84-.58c0-.09-.06-.15-.19-.19a7.37 7.37 0 0 0 .78-.46 3 3 0 0 0-.39-.26q.33.19.39 0a.58.58 0 0 0-.26-.16.61.61 0 0 0-.33 0 1.22 1.22 0 0 1-.39.06.27.27 0 0 1 .2-.06q.52-.13.19-.46a.34.34 0 0 0 .29-.13 1.1 1.1 0 0 0 .16-.36c0-.15.09-.23.13-.23l.46-.72a1.21 1.21 0 0 1 .33-.71q.19-.13 1 .06a1.32 1.32 0 0 1 .13-.52.3.3 0 0 1 .36 0c.15.06.25.08.29 0s.33-.21.49-.49a2.64 2.64 0 0 1 .36-.55.75.75 0 0 1 .29-.13l.29-.06.13-.13.06-.33a1 1 0 0 0 .23-.62c-.04-.12-.25-.2-.64-.2zm5.53-5.33c.17-.13.19-.24.06-.33s-.26.13-.07.3zm.06.71a.31.31 0 0 0 .33.26c0-.17-.09-.33-.13-.46a.52.52 0 0 1-.13.1.11.11 0 0 0-.08.08zm.2-1.62c-.09.09-.07.17.06.26.04-.16.01-.25-.07-.29zm.46 1.5a.4.4 0 0 0 .13.52q.24-.29-.15-.55zm.91 4.16l-.13-.2a.28.28 0 0 0-.06.39zm4 19.17a.25.25 0 0 1-.26.19s0-.1.1-.16.17-.07.17-.07zm7.93-13.52h.32c.04 0 0-.13 0-.26zm1.3-2.47a2.17 2.17 0 0 1 .19.26.24.24 0 0 0 .2-.33 1.25 1.25 0 0 0-.38.02zm1.1-1.17a.44.44 0 0 0-.58.06q.21.06.6-.09zm.65-3.9c.09.09.15.06.2-.06l.06-.06c-.07-.08-.16-.04-.24.14zm.33 3.19c-.09-.13-.17-.13-.26 0 .12.1.19.1.27-.03z"/><path class="cls-1" d="M334.62 36a3.23 3.23 0 0 1 .13.91 3.38 3.38 0 0 0 .1.46 2.64 2.64 0 0 1 .1.58.77.77 0 0 0 0 .46 2.16 2.16 0 0 1 .06.52q0 .26.07 1 .13 4.29.2 4.68t.36 2q.29 1.63.36 2.54v.71a2.13 2.13 0 0 1 .13.42 4.77 4.77 0 0 0 .13.49.73.73 0 0 0 .07.23.83.83 0 0 1 .06.29q.13.46.13.49s-.09.05-.26.1a4 4 0 0 1-.39.32q.19.13 0 .39a1 1 0 0 1-.29.29 1.08 1.08 0 0 0-.33.36 1.26 1.26 0 0 1-.36.39.51.51 0 0 1-.19.06l-.13.2a.4.4 0 0 1-.19.1.42.42 0 0 0-.2.1.68.68 0 0 0-.13.23c0 .11-.09.16-.13.16s-.2 0-.46-.26q-.33.39-.46.39h-.2a.23.23 0 0 0-.26 0 .13.13 0 0 0-.06.19l.13.07h.1v.06a.69.69 0 0 1 .06.39.38.38 0 0 0-.32-.2.43.43 0 0 0-.2-.1h-.2a.57.57 0 0 0 .07.26h-.26a1.12 1.12 0 0 1-.33-.1v-.39q-.46.13-.13.58a.26.26 0 0 1-.26-.2.19.19 0 0 1-.06-.13.79.79 0 0 0-.2-.13.29.29 0 0 0-.13 0 .28.28 0 0 1-.13 0s-.15-.17-.33-.52a3.17 3.17 0 0 0-.23-.36 2.84 2.84 0 0 1-.23-.36.57.57 0 0 0 .26-.07s-.06-.1-.19-.16-.2-.08-.2 0 .17-.13.52-.13a2.44 2.44 0 0 1-.49-.49c-.06-.11-.08-.18 0-.23a.11.11 0 0 1 .07-.1.3.3 0 0 1 .13 0q.26-.06.06-.26a.31.31 0 0 1-.16-.07.33.33 0 0 0-.16-.06.19.19 0 0 0-.06-.13 1.1 1.1 0 0 0-.26-.07c-.13 0-.15 0-.07-.13v-.26a.26.26 0 0 1 .13-.26c0 .22.11.35.2.39s.06-.19-.07-.46h.39q-.19-.39 0-.58c.13.17.24.13.33-.13.17.26.28.3.32.13s.09-.22 0-.26a.42.42 0 0 0-.32 0 .49.49 0 0 0-.23.13.5.5 0 0 1-.23.13c-.17 0-.17-.11 0-.32a.38.38 0 0 0-.26-.07.37.37 0 0 1-.26-.06.08.08 0 0 1 0-.13c-.13 0-.2-.09-.2-.26a.19.19 0 0 0 .07-.13c0-.22 0-.35.13-.39s0-.08-.13-.1S329 49 329 49s0-.11.06-.19.13-.09.13-.13 0-.15-.07-.33-.11-.28-.07-.32a.82.82 0 0 1 .33.19.44.44 0 0 0 .13-.33.7.7 0 0 1-.13-.26 1.06 1.06 0 0 1-.06-.26c0-.09.09-.13.26-.13h.2l.06-.13.26-.2a.24.24 0 0 0-.19-.32 1.11 1.11 0 0 0-.26.06l-.13.13h-.19a.42.42 0 0 0-.2.2.76.76 0 0 1-.13.19.27.27 0 0 1-.2.06l-.19-.06a.93.93 0 0 1-.39-.13c0-.13 0-.2.2-.2h.16c.02 0 .05.1.1.1s.15 0 .07-.2 0-.26.13-.13a.45.45 0 0 0 0-.29.38.38 0 0 1 0-.23.22.22 0 0 1 .13-.1.4.4 0 0 0 .16-.1l-.26-.58-.19-.46a.77.77 0 0 1 0-.46s0-.08.1-.1.1-.05.1-.1 0-.22-.13-.26-.17 0-.39.06h-.23a.66.66 0 0 0-.29.06.51.51 0 0 0-.23.13.49.49 0 0 1-.29.13c-.17 0-.26 0-.26-.2s0-.19.13-.19h.26a.58.58 0 0 0 .26-.06l.46-.19c.09-.13.07-.22-.06-.26a.5.5 0 0 1-.2.06.62.62 0 0 1-.33-.13.69.69 0 0 0 .26-.13c0-.09-.14-.09-.29 0s-.27 0-.36-.13h.39l-.26-.26h-.2a.29.29 0 0 0 0-.13.28.28 0 0 1 0-.13c.13 0 .21 0 .23-.07a.31.31 0 0 0 0-.19 1 1 0 0 1 0-.26 1.09 1.09 0 0 0 .07-.26.88.88 0 0 0-.46-.06.54.54 0 0 0-.29.06.32.32 0 0 0-.13.19 1.32 1.32 0 0 1-.1.26 1 1 0 0 0-.26.39.57.57 0 0 0 .07.58.56.56 0 0 0-.16.29 1.37 1.37 0 0 0 0 .42 3.55 3.55 0 0 1 0 .39l-.07.13v.26l-.06.13-.2.46h-.2a.21.21 0 0 0-.19.13v.19a.5.5 0 0 1-.07.2.5.5 0 0 0-.07.19c0 .26-.09.48-.13.65v.13c0 .09-.06.15-.19.2a1.87 1.87 0 0 0 .13.39.41.41 0 0 0-.36 0 .22.22 0 0 0-.1.29.19.19 0 0 1 .13.06q.13.07.06.13s0 .07-.13.07l-.13.19v.39a.69.69 0 0 1-.26.13l-.07.32-.26.26a.24.24 0 0 1 .07.36 1.74 1.74 0 0 1-.26.36.79.79 0 0 1-.33.13.13.13 0 0 0 .06.2s.15 0 .33-.06l-.13.26c.22.09.33.15.33.2a.19.19 0 0 1-.07.13.19.19 0 0 0-.06.13.18.18 0 0 0 .06.13.19.19 0 0 1 .07.13l-.2.26-.1.19a.28.28 0 0 0 0 .13.19.19 0 0 1-.07.13c-.13 0-.17.11-.13.2l.39-.07h.08a3.8 3.8 0 0 1-.65.85.27.27 0 0 1-.1.16.27.27 0 0 0-.1.16.29.29 0 0 0-.13 0l-.13.06s-.09.12-.13.29a.65.65 0 0 1-.2.23c-.09.06-.13.12-.13.16l-.65.65a5.8 5.8 0 0 1-1.69 1.1 2.14 2.14 0 0 1-.84.26 1.3 1.3 0 0 0-.78.33v-.19a1.08 1.08 0 0 1-.33.06h-.39q-.13.06-.33-.23c-.13-.2-.26-.27-.39-.23V56c0 .17 0 .28.06.32a.7.7 0 0 1 .33.26l.13.39a1.15 1.15 0 0 1 1.17-.13 1.24 1.24 0 0 1-.23.16.56.56 0 0 1-.23.1l.26.2c0 .09-.09.13-.26.13a1.23 1.23 0 0 0-.39.06 1.08 1.08 0 0 1-.33.07 5.29 5.29 0 0 1-1.95-.26 4.31 4.31 0 0 1-.72-.39l-.71-.46a3 3 0 0 1-.58-.65l-.65-.65a1.61 1.61 0 0 1-.46-.58 2.61 2.61 0 0 1-.29-.36 3.09 3.09 0 0 0-.29-.36.64.64 0 0 0-.16-.26 1.37 1.37 0 0 1-.23-.36 8.51 8.51 0 0 0-.46-.81 3.24 3.24 0 0 0-.39-.78 1.71 1.71 0 0 1-.33-.78v-.32a1.17 1.17 0 0 0-.13-.33 4.45 4.45 0 0 0-.2-.58l-.16-.39s0-.17.1-.39v-.26a.57.57 0 0 0-.1-.23.55.55 0 0 1-.1-.23 1 1 0 0 1 0-.52 2 2 0 0 0 0-.26 1.84 1.84 0 0 1 0-.26c0-.13 0-.19.13-.19a.21.21 0 0 0 .19-.13.3.3 0 0 1-.32-.2v-.26a5.54 5.54 0 0 1 .13-.85c.17-.65.3-1.1.39-1.36a10.42 10.42 0 0 0 .45-1.1q.06-.19.65-1.49.19-.52.45-1.37a7.23 7.23 0 0 1 .59-1.36q.45-.78 1.63-2.54a6.74 6.74 0 0 1 1.88-2.08c.09-.09.25-.23.49-.42s.42-.34.55-.42a9.17 9.17 0 0 0 1.23-1 5.16 5.16 0 0 0 .55-.46l.49-.46a4.64 4.64 0 0 1 1-.85 4.5 4.5 0 0 1 1.3-.19 1.44 1.44 0 0 1 .36.06 1.36 1.36 0 0 0 .36.06q.19 0 .39-.45t.46-1.3c0-.13.12-.33.23-.62a3.81 3.81 0 0 0 .2-.62 4.07 4.07 0 0 1 .16-.58l.16-.49a1 1 0 0 0 0-.29.72.72 0 0 1 .06-.32.88.88 0 0 1 .2-.46.23.23 0 0 1 .2-.19V25a.77.77 0 0 0-.07-.23v-.23a.57.57 0 0 1 .1-.23.58.58 0 0 0 .1-.29.51.51 0 0 1 0-.16l.07-.23a1 1 0 0 0 0-.2v-.58a.52.52 0 0 1 0-.16.79.79 0 0 1 .1-.19.4.4 0 0 0 .06-.23 2 2 0 0 0 0-.26v-.26a1 1 0 0 1 .26-.46c.09-.13 0-.26-.2-.39s-.2-.17-.2-.26a4.9 4.9 0 0 1 .2-1.56v-.65a.76.76 0 0 1 .1-.33.77.77 0 0 0 .1-.32.37.37 0 0 0 0-.26.83.83 0 0 1 0-.19 2.56 2.56 0 0 1 0-.36 2.79 2.79 0 0 0 0-.29.25.25 0 0 1 0-.16l.1-.1.1-.1a1.07 1.07 0 0 0 0-.42 5.23 5.23 0 0 1 .13-1.43 1 1 0 0 1 .1-.36 1 1 0 0 0 .1-.36v-.88a.92.92 0 0 1 0-.23 1.07 1.07 0 0 0 0-.26.64.64 0 0 1 0-.29l.06-.1a.1.1 0 0 1 .1-.06 1.82 1.82 0 0 0-.07-.39 2 2 0 0 1-.06-.32 3.07 3.07 0 0 1 .2-.85 2.85 2.85 0 0 1 .19-.75q.19-.55.33-.88a2 2 0 0 1 .2-.71 5.16 5.16 0 0 0 .26-.71 2.75 2.75 0 0 1 .07-.52q.06-.32.1-.59a2.33 2.33 0 0 1 .1-.45 2.1 2.1 0 0 1 .65-.85 3.18 3.18 0 0 1 .52-.29q.45-.23.52-.49.32-1.17.71-1.3a2.31 2.31 0 0 1 .42.06.89.89 0 0 1 .36.13v.52c.13-.09.19-.15.19-.2v-.19a.19.19 0 0 1 .13.06l.07.06a1.58 1.58 0 0 0 .39.19h.52a2.74 2.74 0 0 1 .65.07.64.64 0 0 1 .39.26q.19.39.39.39a.8.8 0 0 0 .36-.13.8.8 0 0 1 .36-.13q.65-.19 1.3.65l.23.23a1.16 1.16 0 0 0 .29.23 1.17 1.17 0 0 1 .2.72s0 .26-.26.65a1.25 1.25 0 0 0-.1.39 3.3 3.3 0 0 0 0 .39 12 12 0 0 0-.52 4v.91a2.25 2.25 0 0 1-.1.55 2.8 2.8 0 0 0-.1.42 12 12 0 0 0-.26 2q-.19 3.51-.26 4.23a35.27 35.27 0 0 0-.07 3.9q0 .65.1 2t.1 2.08v2.27q0 .78.07 2.21a6.89 6.89 0 0 0 .16 1 3.8 3.8 0 0 1 .1 1.23 2.44 2.44 0 0 0 .2.84 5.33 5.33 0 0 1-.01 1.18zm-20 11.64c-.09 0-.06.24.07.71a3.81 3.81 0 0 0 .32.91 1.75 1.75 0 0 0 1 1q.59.19 1.5-.78a6.22 6.22 0 0 0 1.11-1.62 6.29 6.29 0 0 0 .42-.91q.23-.59.36-.85a3.76 3.76 0 0 0 .36-1 5.52 5.52 0 0 1 .23-.78 33.46 33.46 0 0 0 1-3.77l.39-2a5.53 5.53 0 0 0 .13-1 .92.92 0 0 0 0-.46.89.89 0 0 1 0-.45q.06-1.76.13-2.08s0-.22.06-.52l.1-.68a.4.4 0 0 0-.1-.36 2.33 2.33 0 0 0-.71.39 4.24 4.24 0 0 0-.84.58 5.37 5.37 0 0 0-1.17 1.43 17.07 17.07 0 0 0-.91 1.69 19.41 19.41 0 0 0-.84 1.76 20.17 20.17 0 0 0-.85 2.21 17.14 17.14 0 0 1-.84 2.15 15.92 15.92 0 0 0-.84 2.15 7.14 7.14 0 0 0-.03 2.3zm12.29-10c.09 0 .1-.13 0-.26a.77.77 0 0 1-.1-.33.87.87 0 0 1 0-.19 1 1 0 0 0 0-.16.61.61 0 0 0-.07-.16c-.09-.09-.15-.06-.19.07l-.07.13a.7.7 0 0 1-.23.13.71.71 0 0 0-.23.13 1 1 0 0 0 .29.16.55.55 0 0 1 .29.23v.13s0 .06.1.06.3.02.3.07zm-.46.33l.39-.06q.13-.13-.06-.19a.33.33 0 0 0-.39 0 .71.71 0 0 0-.13.26q-.06.26 0 .33c.17.17.33.22.46.13s.12-.34-.22-.44zm.33 1.63a.49.49 0 0 1-.1-.26c0-.13-.1-.17-.23-.13a1.88 1.88 0 0 1 .13.39.49.49 0 0 0-.06.19.43.43 0 0 0 .23.1.46.46 0 0 1 .23.1.48.48 0 0 0 .1-.36c.01-.11-.08-.12-.26-.03zm.2-.46c-.09-.3-.17-.46-.26-.46s-.05.2.28.46zm.52 1.69c-.17.09-.35 0-.52-.19q-.26.39.13.52a.16.16 0 0 0 .26 0 .44.44 0 0 0 .17-.33zm4.68-5.07c.22.13.37.15.46.06s0-.3-.13-.52a2.47 2.47 0 0 1-.29.46zm.52 2.34v.26a.8.8 0 0 0 .46-.72.27.27 0 0 0-.1-.16 2 2 0 0 1-.2-.23c-.06-.09-.12-.13-.16-.13l-.33.2v.71a.51.51 0 0 0 .37.07zm.33 1.17a.53.53 0 0 0-.07-.65c0-.09-.11-.09-.2 0s-.05.38.3.65zm3.05-32.63h.13l.07-.06zM342.55 47.53a.48.48 0 0 0 .06.19.4.4 0 0 0 .2-.1.39.39 0 0 1 .2-.1c.17-.09.28-.09.32 0s-.05.09-.16.13a.47.47 0 0 0-.23.16.27.27 0 0 0 0 .26.36.36 0 0 0 .33.2.65.65 0 0 1 .33.1.73.73 0 0 0 .13-.26.68.68 0 0 1 .13-.26.51.51 0 0 1 .06.2 12.57 12.57 0 0 0 .13 1.36.52.52 0 0 1 .1.26 2.09 2.09 0 0 1 0 .26l.32 1c.13.26.11.43-.06.52l-.07.06a2.2 2.2 0 0 0 .33.52c0 .13.15.17.33.13a1.24 1.24 0 0 1 .39-.07.4.4 0 0 0 .46-.33.59.59 0 0 1 .39-.45 1.73 1.73 0 0 1 .32-.46 3.89 3.89 0 0 1 .33-.39q.33 0 .33-.46s.11-.15.33-.32h.06a.19.19 0 0 0 .07-.13q0-.26.58-.84c.22-.26.39-.48.52-.65a6.63 6.63 0 0 0 .65-.78q.78-1 1.43-1.88l.58-.88q.45-.68.72-1a13.08 13.08 0 0 1 2.66-2.6 4.16 4.16 0 0 0 .46-.29 4.59 4.59 0 0 1 .46-.29 5.68 5.68 0 0 1 1.11-.32 4.26 4.26 0 0 1-.46.71A1.42 1.42 0 0 0 356 42a1 1 0 0 1-.2 1c-.09.13-.21.29-.36.49a3 3 0 0 0-.29.42s-.09 0-.13.13-.09.2-.13.2a.87.87 0 0 0-.23.16.85.85 0 0 0-.16.23.79.79 0 0 1-.13.2.1.1 0 0 0 0 .13.11.11 0 0 1 0 .13 1 1 0 0 1-.13.39.06.06 0 0 0-.07-.06v-.13h-.06a.72.72 0 0 0-.07.33v.26a.28.28 0 0 1-.13 0 .29.29 0 0 0-.13 0 11.63 11.63 0 0 1-.71 1 .8.8 0 0 1 .19.13l-.32.2c-.17.09-.22.19-.13.32l-.13.13h-.23v.32a2 2 0 0 1-.26.36 2 2 0 0 0-.26.36l-.06.19c0 .09-.09.13-.13.13a.18.18 0 0 0-.13.26s.09.09.26.13c-.09.09-.13.15-.13.19-.3-.13-.46 0-.46.26 0 .13-.11.3-.2.52l-.42.68a.83.83 0 0 1-.36.29.89.89 0 0 1 0 .19.85.85 0 0 0 0 .19l-.39 1a6.24 6.24 0 0 0-.52.71 1.6 1.6 0 0 0-.26.65.68.68 0 0 1-.13.26 3.09 3.09 0 0 1-.23.36 2.75 2.75 0 0 0-.23.36.77.77 0 0 1-.13.2.52.52 0 0 0-.26.52c0 .22-.15.39-.46.52l-.26-.07a1.07 1.07 0 0 1-.26.16l-.39.2-.32.16h-.65a.13.13 0 0 0-.1 0 .14.14 0 0 1-.1 0q-.19.06-.62.26l-.55.26h-.84a3.48 3.48 0 0 1-.78-.07A1.81 1.81 0 0 1 342 57a.82.82 0 0 1-.46-.39 2.14 2.14 0 0 0-.78-.65 3.42 3.42 0 0 1-.84-.65 2 2 0 0 0-.52-.46l-.19-.19a2.61 2.61 0 0 1-.26-.39 2.57 2.57 0 0 0-.33-.46.43.43 0 0 0-.19-.19.66.66 0 0 1-.46-.58.76.76 0 0 0-.1-.33.76.76 0 0 1-.1-.33q-.07-.13-.19-.46c-.09-.22-.15-.39-.2-.52a8.86 8.86 0 0 1-.26-1l.06-.39a.24.24 0 0 1 0-.39c.13-.17.11-.39-.06-.65a1.15 1.15 0 0 0-.1.29 1.2 1.2 0 0 1-.1.29 3.76 3.76 0 0 1-.13-.65 1.44 1.44 0 0 1 .19-.39v-.13a.68.68 0 0 1-.26-.13c.09-.09.13-.15.13-.19a1.84 1.84 0 0 1 .33-.39v-.13H337a2.94 2.94 0 0 1-.39.26 5.3 5.3 0 0 1 .06-1c0-.09.07-.15.2-.19a.25.25 0 0 0 .2-.26 1.42 1.42 0 0 1-.46-.07.49.49 0 0 1 .13-.23.2.2 0 0 0 0-.29.69.69 0 0 1-.26.13.36.36 0 0 1 .06-.36 5.51 5.51 0 0 1 .71-.62c-.26-.17-.48-.17-.65 0-.17-.17-.17-.33 0-.46h.19a1.25 1.25 0 0 1-.36-.36q0-.1.23-.49a1.31 1.31 0 0 0 .23-.39.17.17 0 0 0-.06-.2.54.54 0 0 0-.29-.06 2.86 2.86 0 0 0 .2-.52l.26-.06a.57.57 0 0 1-.07-.26v-.2h-.19a.92.92 0 0 1-.13-.16.31.31 0 0 1-.07-.16c0-.13.07-.3.33-.52l.33-.26.06-.19a.7.7 0 0 0-.39.13 1.82 1.82 0 0 0-.07-.39c.09-.09.15-.13.2-.13a6.14 6.14 0 0 1 .07-1.23q.13-.26-.07-.39a1.83 1.83 0 0 0 .39-.32l-.16-.33s0-.13.13-.26l.23-.26a.18.18 0 0 1-.13-.06.19.19 0 0 0-.13-.06l.06-.06v-.52c0-.09 0-.13.07-.13a.75.75 0 0 0 .13-.72l.33-.32v-.07a.51.51 0 0 0-.2.07l.2-.55a5.15 5.15 0 0 1 .2-.49H338a.19.19 0 0 0-.13.06 2 2 0 0 1 .13-.46q.26-.71.39-1.1V33l.39-.78a6 6 0 0 0 .39-.91c.17-.43.28-.69.32-.78q.59-.78.85-1.17a10.5 10.5 0 0 1 1-1 .87.87 0 0 1 .36-.29 2 2 0 0 0 .36-.23 1.37 1.37 0 0 0 .33-.26l.26-.26a7.32 7.32 0 0 1 1.56-.91 3 3 0 0 1 1.63.06s.09.06.13.19a1.53 1.53 0 0 1 .65.52l.2.19a5 5 0 0 1 .33.62 4.68 4.68 0 0 0 .33.62 1.24 1.24 0 0 1 .19 1 2.1 2.1 0 0 1-.19.58q-.33.78-.78 2.15t-.58 1.56l-.39 1.3a16.18 16.18 0 0 0-.59 1.95 9 9 0 0 0-.26 1q-.06.13-.46.78a.16.16 0 0 0 0 .26q.33.26 0 .52a.28.28 0 0 0-.06.39.76.76 0 0 1-.36.9 1.47 1.47 0 0 0-.2.32l.06.06.07-.06h.2l-.13 1a.12.12 0 0 1-.13.13.31.31 0 0 0-.36.13.62.62 0 0 0-.16.26.06.06 0 0 0-.07.06.13.13 0 0 0 0 .1l.1.13a.32.32 0 0 1 .07.16.42.42 0 0 1 0 .33.65.65 0 0 1-.39.16c-.17 0-.22.12-.13.29a.8.8 0 0 0 .32-.19c.17 0 .26 0 .26.13a2.07 2.07 0 0 1 0 .33 2 2 0 0 0 0 .33v.19c.17 0 .26 0 .26.19v1.24a1.12 1.12 0 0 1 .07.45 2.62 2.62 0 0 0 0 .49v.19a.44.44 0 0 1-.2 0 .56.56 0 0 1-.39-.2.84.84 0 0 0-.39-.19s-.11 0-.19.13l-.13.2zm5.65-30.75a3.66 3.66 0 0 1-.32 2.4.22.22 0 0 1-.16.06.19.19 0 0 0-.13 0s0 .06.07.13a.27.27 0 0 1 .1.16.44.44 0 0 1-.58.26q.45-.26.13-.39h-.39a.34.34 0 0 0-.29.29.55.55 0 0 1-.49.46 1.18 1.18 0 0 0-.32.1 1 1 0 0 0-.29.26 1 1 0 0 1-.29.26 1.34 1.34 0 0 1-.52.26.06.06 0 0 1-.06.06q-.2.07-.26 0a1.07 1.07 0 0 0-.13-.16 1.14 1.14 0 0 0-1.1-.2 4 4 0 0 1-.62.13 4.21 4.21 0 0 0-.62.13 4.49 4.49 0 0 0-.46.29.62.62 0 0 1-.58.13q-.26-.1-.84-1.33a5.33 5.33 0 0 1-.46-3.19 4.56 4.56 0 0 1 1.5-2.79 8.55 8.55 0 0 1 3.05-1.82 3.48 3.48 0 0 1 1.88-.13 3.16 3.16 0 0 1 .71.33 4.21 4.21 0 0 1 .52.33 1 1 0 0 1 .52.39.48.48 0 0 0 .13.23.51.51 0 0 1 .13.23 1 1 0 0 1-.2.65c-.26.39-.35.69-.26.91l.33.65a3.36 3.36 0 0 1 .31.91zm-7.47 28.67c-.3 0-.39.17-.26.39a1.53 1.53 0 0 0 .26-.39zm.07 1.1a.73.73 0 0 0-.26-.13 2.09 2.09 0 0 1 .26-.33h-.26l-.06.19v.2s0 .11.13.19a.76.76 0 0 1 .19-.12zm.26-1.92a1.05 1.05 0 0 1-.33-.16.55.55 0 0 0 .33.46l.13.06c.08-.17.04-.29-.13-.36zm.71 3.74v-.06a1 1 0 0 1-.78-.39c-.09 0-.14 0-.16.07a.28.28 0 0 0 0 .13v.13c0 .13 0 .19.13.19h.58a.57.57 0 0 0 .23-.07zm.2-2.79l-.85.19s-.09.11-.26.2a.06.06 0 0 1 .07.06l.32-.19a.68.68 0 0 1 .26.13c.17 0 .22.09.13.26v.2a.78.78 0 0 0 .19.39s0-.11.13-.19a1.37 1.37 0 0 1 0-.85zm-.85 1h.07v-.19l-.26-.13-.07.07a1.13 1.13 0 0 1 .13.16c.01.09.09.13.13.13zm.91.71l-.71.33v.06a1.06 1.06 0 0 0 .26.06.61.61 0 0 0 .46-.46zm-.03 1.93l.13-.52a.21.21 0 0 0-.07-.26s-.11 0-.2.06-.19.22-.06.39a.8.8 0 0 0 .2.33zm-.2-4.42H342.39c0-.13-.09-.22-.26-.26h-.2l.26-.13a.63.63 0 0 0 .13-.33c0-.09-.09-.15-.26-.19s-.15.06-.2.19-.05.37-.09.72zm.65 1.43h.71l.06-.13a4.46 4.46 0 0 0 .13-.52.28.28 0 0 0 0-.26.46.46 0 0 0-.19 0 1.54 1.54 0 0 0-.26.23h-.13a.08.08 0 0 0-.13 0q-.19.07 0 .39a.5.5 0 0 0-.19.06zm.39-1.69l-.07.13s0 .09.13.13a.19.19 0 0 0 .07-.13l-.07-.06a.06.06 0 0 0-.09-.07zm.2 2h-.1v.06c0 .06.09.06.13.19l.19-.06zm.19 2.67a1.37 1.37 0 0 1 0 .23 1.45 1.45 0 0 0 0 .29q.23-.45-.03-.51zm.52-2.6c0-.17-.09-.39-.13-.65q-.42.4.1.66zm0 2.21h-.07a3.09 3.09 0 0 0-.2.33h.4s-.08 0-.1-.1a.51.51 0 0 1-.06-.22zm2.14 3.38l.33-.19c-.22-.01-.35-.01-.35.19z"/><path class="cls-1" d="M375.31 25.43a3.93 3.93 0 0 1 1.72.39 5.88 5.88 0 0 1 1.27.78q.45.39 1.3 1.17a3.1 3.1 0 0 1 .45.58 4.45 4.45 0 0 1 .36.78 6.42 6.42 0 0 0 .29.71 4.1 4.1 0 0 0 .52 1 .42.42 0 0 0 .42 0 .32.32 0 0 0 .23-.29.6.6 0 0 1 .2.62 2 2 0 0 1-.26.75l-.65.58-.58.65a.38.38 0 0 0-.55 0 1 1 0 0 0-.36.62 11 11 0 0 0-.29 1.17c-.11.52-.19.87-.23 1l-.65 2.34a13.74 13.74 0 0 0-.58 2.21l-.07 1a9 9 0 0 0-.06 1.1 14.13 14.13 0 0 1-.07 2.27 20.29 20.29 0 0 0 .26 4.68 14.16 14.16 0 0 0 4.22-3.9q1.75-2.34 1.88-2.47a3.72 3.72 0 0 1 2.41-1c0 .09-.09.22-.26.39s-.24.3-.2.39a.26.26 0 0 0 .1.16c.06.06.08.12 0 .16a.63.63 0 0 1-.26.32c0 .09.05.11.16.07a.75.75 0 0 1 .23-.07h-.06c-.09.17-.15.29-.2.36s0 .16.07.29a.22.22 0 0 0 .19-.1 2.05 2.05 0 0 0 .13-.23c0-.09.09-.13.13-.13l.1-.1a.09.09 0 0 1 .07 0 .89.89 0 0 0 .23-.13.73.73 0 0 0 .13-.26.39.39 0 0 1 .26-.26q-.13.78-.06.78s.09 0 .13-.13.08 0 .1-.1a.63.63 0 0 1 .16-.23h.13a.18.18 0 0 0 .13-.26c.13 0 .29 0 .49-.2a.83.83 0 0 1 .49-.26 6.77 6.77 0 0 1-.78 1.82s.11 0 .2-.1a5.56 5.56 0 0 0 .39-.62 2.87 2.87 0 0 1 0 .36 2.4 2.4 0 0 1-.13.49 1.39 1.39 0 0 0-.1.33 12.09 12.09 0 0 1-.46 1.3 17.6 17.6 0 0 1-1.56 2.34 21.37 21.37 0 0 1-3.77 3.64 23.5 23.5 0 0 1-2.21 1.43 4.17 4.17 0 0 1-2.47.78l-.33-.13a1.07 1.07 0 0 0-.29-.06H377a1.76 1.76 0 0 1-1.24-.07 3.67 3.67 0 0 1-1.81-1.14 8.1 8.1 0 0 1-1.3-2.6l-.2-.75c-.09-.33-.15-.57-.2-.75a4.26 4.26 0 0 1-.26-1.43 3 3 0 0 0-1.11.45c-.09.17-.15.26-.19.26l-.2.16a.4.4 0 0 1-.2.1 2.57 2.57 0 0 0-.23.26l-.19.26-.16.2s-.3.24-.78.58c.13.09.13.19 0 .32s-.12 0-.23 0a.82.82 0 0 0-.29-.06 5.8 5.8 0 0 0-.39.58 1 1 0 0 1-.46.33 3.29 3.29 0 0 0-.52.49 1.51 1.51 0 0 0-.32.42q-.39.33-.33.39s.2.15.58.33q-.19.07-.91.39a5.19 5.19 0 0 0-1 .58q-.39.33-1 .94a6.28 6.28 0 0 1-.78.68 1 1 0 0 0-.71-.29 7.43 7.43 0 0 0-.88.16 1.87 1.87 0 0 1-.81.07v1.04c0 .13-.21 0-.23-.07a.54.54 0 0 1 0-.23.32.32 0 0 0-.07-.23c0-.22-.22-.33-.52-.33a5.4 5.4 0 0 0-1.69.13.42.42 0 0 0 .26.2.86.86 0 0 1-.85.06 1.8 1.8 0 0 1-.26-.2.08.08 0 0 1 0-.13 2.07 2.07 0 0 1 .26-.19.3.3 0 0 0-.23-.23.84.84 0 0 0-.39 0 1.43 1.43 0 0 1-.29.06s0-.07.1-.1.1-.05.1-.1 0-.2-.19-.33a3.12 3.12 0 0 1-.78-.58 1.54 1.54 0 0 1-.07-.49 1 1 0 0 0-.06-.42 2.28 2.28 0 0 0-.29-.52 4.73 4.73 0 0 0-.29-.39.72.72 0 0 1 .65.26.52.52 0 0 0 0 .16.21.21 0 0 0 .1.13.66.66 0 0 0 .26 0 1 1 0 0 0-.13.16.32.32 0 0 0-.06.16 3.74 3.74 0 0 0 1.3.2 5.67 5.67 0 0 0-.39-.71c-.09-.09-.37-.11-.85-.07 0-.17-.15-.37-.45-.58l-.33-.23a.37.37 0 0 0-.16 0 .22.22 0 0 1-.16-.06.69.69 0 0 1-.26-.29l-.2-.36a.4.4 0 0 1-.2-.1.79.79 0 0 1-.19-.19.39.39 0 0 1-.07-.23c-.13 0-.18.12-.16.23a.31.31 0 0 1-.1.29c-.13-.13-.2-.22-.2-.26a1 1 0 0 0-.06.26.48.48 0 0 1-.2-.52h-.33a2.88 2.88 0 0 0 .2-.52c-.39.09-.61.06-.65-.06a.27.27 0 0 1 .2.06 7.61 7.61 0 0 1-.39-.91 2.42 2.42 0 0 1-.1-.52v-.46a.35.35 0 0 1 .26.39 1 1 0 0 0 .49-.23l.13-.13v-.16l-.13-.26a.49.49 0 0 1-.07-.2l-.33-.65-.13-.19a.11.11 0 0 0-.13 0 .1.1 0 0 1-.13 0q-.13-.06 0-.2a.82.82 0 0 0 .06-.52 1.5 1.5 0 0 0-.06-.29.6.6 0 0 1 0-.32c0-.06.1-.1.23-.1a1.21 1.21 0 0 1-.07-.39c.13 0 .22.09.26.26a.46.46 0 0 0 .2.32.22.22 0 0 0 .29 0 .27.27 0 0 0 .16-.23.46.46 0 0 0-.33-.46.27.27 0 0 0-.2-.06h-.19a.18.18 0 0 1 0-.23A2 2 0 0 1 353 44c.09-.06.13-.12.13-.16a.43.43 0 0 0-.13-.42.65.65 0 0 1-.2-.36l.46-.85a1.42 1.42 0 0 0 .2-.39.33.33 0 0 0-.07-.16.32.32 0 0 1-.06-.16 1 1 0 0 1 .19-.33.69.69 0 0 0 0-.58c.26 0 .43-.28.52-.71a.85.85 0 0 1 0-.2l.07-.26a1.07 1.07 0 0 0 0-.26l.16-.16a.88.88 0 0 0 .16-.23 2.07 2.07 0 0 1 .13-.52 2.5 2.5 0 0 1 .26-.58 4.72 4.72 0 0 1 .71-1.3 51.28 51.28 0 0 1 3.71-4.81 26.71 26.71 0 0 1 2.08-1.95q1.69-1.37 2.21-1.76a15 15 0 0 1 5.13-2.15 14.37 14.37 0 0 1 3.38 0 9.82 9.82 0 0 0 1.69 0 3.52 3.52 0 0 0 .78-.13q.61-.08.8-.14zm-17.16 28a.77.77 0 0 0 .33-.1.79.79 0 0 1 .26-.1.25.25 0 0 0 .19-.26.53.53 0 0 0 0-.33c0-.13-.1-.17-.23-.13a.49.49 0 0 0-.1.26.33.33 0 0 1-.16.26h-.2c-.13 0-.2 0-.2.13a1.09 1.09 0 0 1 .07.26 8.42 8.42 0 0 0-1 .46 1.63 1.63 0 0 0 1.17-.13.26.26 0 0 1-.13-.31zm.52-2.34q-.13-.32-.39-.19a.56.56 0 0 0 .39.2zm-.33 3.18c.3.22.43.2.39-.06-.09-.09-.15-.12-.2-.1a1 1 0 0 0-.18.17zm1.66-4.53c0 .3.15.39.33.26-.03 0-.14-.13-.33-.26zm.46 2.15c0-.26-.09-.37-.39-.33-.07.08.1.19.36.32zm-.06.65a.53.53 0 0 0 .29.23c.15.07.23.12.23.16a.29.29 0 0 0 0-.29.4.4 0 0 0-.23-.2.27.27 0 0 0-.33.09zm.39.78a.38.38 0 0 0 .33.2s.11 0 .2-.13.15-.13.19-.13 0-.09.13-.13.09.13.13.13a.35.35 0 0 0-.39-.26 1.14 1.14 0 0 0-.63.31zm6.17-6.3a3.73 3.73 0 0 1 .42-.29 3.3 3.3 0 0 0 .46-.33 3.69 3.69 0 0 1 .42-.33 3.61 3.61 0 0 0 .45-.36l.36-.36a3 3 0 0 0 .36-.42l.26-.42a2 2 0 0 0 .2-.49l.13-.52v-.55-.68a6.82 6.82 0 0 0 .26-1.23q.13-1.75.26-2.67a12 12 0 0 1 .13-1.3q.13-1 .19-1.49a3.15 3.15 0 0 1 .1-.62c.07-.28.12-.49.16-.62q.13-.65-.39-.32a19.5 19.5 0 0 0-1.95 1.82q-.72.65-.72.33a3.6 3.6 0 0 1 .52-.55 2.48 2.48 0 0 0 .46-.49q-.59-.13-1.69 1.1l-1.56 1.95a5.81 5.81 0 0 0-.65.85q-.39.59-.58.85a.76.76 0 0 1-.13.19.41.41 0 0 0-.1.19.85.85 0 0 0 0 .2c-.09.17-.21.38-.36.62s-.25.4-.29.49a21.51 21.51 0 0 0-1.88 4.16 2.34 2.34 0 0 1-.1.39.36.36 0 0 1-.13.13l-.16.13s0 .19.06.45a1 1 0 0 1 0 .52.77.77 0 0 1-.1.26.79.79 0 0 0-.1.26.51.51 0 0 0 0 .16.54.54 0 0 1 0 .16.21.21 0 0 1-.13.19c0 .09 0 .17.13.26a1.26 1.26 0 0 0 1 .26 1.47 1.47 0 0 0 .55-.16 1.49 1.49 0 0 1 .55-.16h.32a.27.27 0 0 0 .2-.06l.16-.16.16-.16a1.11 1.11 0 0 1 .91 0 .55.55 0 0 1 .13-.36 1.15 1.15 0 0 1 .39-.29 3.68 3.68 0 0 1 .46-.2l.52-.16a2.25 2.25 0 0 1 .39-.1.79.79 0 0 0-.08-.09zm-5 6q.59-.26 0-.58a1 1 0 0 0-.58-.07 3.42 3.42 0 0 0 .23.36h.23a.27.27 0 0 1 .08.32zm-.33.26q-.33.07-.06.46c.13.13.24.15.33.06a.74.74 0 0 1-.3-.49zm.2-3.77a.65.65 0 0 0 .1-.45q0-.26-.29 0t-.1.29a.32.32 0 0 0 .25.19zm2 2.34q.84 0 1-.33a.21.21 0 0 1-.23 0 .32.32 0 0 0-.16-.06H363.59a3.24 3.24 0 0 0-1.37.91c.56.13.91.13 1 0a.38.38 0 0 0 .13-.26.26.26 0 0 0 .2.07.42.42 0 0 0 .19-.3zm-1.24-2.47c.09 0 .15-.06.2-.19a.18.18 0 0 0-.13-.26c-.13 0-.18.09-.16.13a2.13 2.13 0 0 1 .01.35zm3.64.26l-.07.06h.13q.45.07.39 0s-.07-.08-.2-.1-.29.03-.33.07zm.52 1.3s0 .13.2.26c.09-.13.12-.22.1-.26s-.21-.01-.38.06zm.2-1a.29.29 0 0 0 .23 0 .3.3 0 0 0 .16-.16.51.51 0 0 0 .07-.19c-.22-.07-.41.04-.55.34zm.26.71a.68.68 0 0 0 .58 0v-.19c0-.08-.14-.15-.29-.06a.71.71 0 0 0-.38.25zm.33-.65c.3-.13.46-.22.46-.26s-.17-.13-.52-.13a.85.85 0 0 0 0 .19 1 1 0 0 1-.03.2zm.52-.39a.27.27 0 0 0 .23-.16c.07-.11.08-.18 0-.23s-.15-.08-.2 0a1 1 0 0 0-.09.39zm.71-.26a.28.28 0 0 0 .07-.39q-.35.19-.16.39zm.58-.46c.09 0 .09-.09 0-.13a.59.59 0 0 0-.26-.06zm12.42.26a1.53 1.53 0 0 0-.65.19q.11.27.56-.19zm.2-.85l-.39.39c.13.09.23.08.29 0a.68.68 0 0 0 .01-.38zm-.06 3.9c0-.13-.13-.11-.26.07a1.06 1.06 0 0 0 .16-.07zm-.23-3.2q.33.26.46-.13a.77.77 0 0 0-.23.06.73.73 0 0 1-.23.07zm1-.39c-.09-.17-.22-.13-.39.13zm-.26-1c.13.09.24 0 .33-.13zm.91.39c-.09-.13-.21-.14-.36 0a1.13 1.13 0 0 0-.36.42.58.58 0 0 0 .29-.1c.11-.06.18 0 .23.1.09-.17.11-.28.07-.32a.19.19 0 0 0 .17-.1zm2.41-1.62a4.61 4.61 0 0 0-.78.71l-.65.71-.84.65a1.28 1.28 0 0 0-.58.59c-.09.22 0 .26.13.13a1 1 0 0 0 .26-.2c.09 0 .13-.09.13-.13l1-.78a2.19 2.19 0 0 0 .39-.29l.33-.29c.17-.13.26-.22.26-.26s.09 0 .13-.13.11-.17.2-.13-.09 0-.13-.13.41-.24 1-.84a1.62 1.62 0 0 0 .46-1.17s0 .11-.13.19-.13.15-.13.19a.7.7 0 0 1-.23.13.69.69 0 0 0-.23.13.67.67 0 0 0-.13.23.88.88 0 0 1-.2.29 1.1 1.1 0 0 1-.26.16c-.13.06-.2.12-.2.16a.49.49 0 0 0 .24.12zm-2.67 1.36s0-.09.1-.13.1-.09.1-.13a.19.19 0 0 1-.13-.06H383a1.89 1.89 0 0 0 .11.37zm.58-.19c0-.13-.11-.13-.2 0s-.09.13 0 .26c.05 0 .12-.09.25-.22zm.46-.26c.26-.26.35-.41.26-.46s-.22-.05-.26.1a.49.49 0 0 0 .04.4zm.13-1.1a.06.06 0 0 1 .06.06l.26-.26.26-.26a.38.38 0 0 0-.26.07l-.16.19zm.39.13c-.09 0-.1.1 0 .16a.31.31 0 0 0 .23.1c.01-.05-.06-.14-.19-.22zm0 3q.19.26.26-.06a1.06 1.06 0 0 1-.22.09zm.78-3.58c-.09 0-.2 0-.33.16a.68.68 0 0 0-.2.42q.38-.03.57-.55zm-.13-1.56a.79.79 0 0 0-.2-.13v.26a.74.74 0 0 1 .24-.1zm.78.06l-.2.19v.13l-.13.13q-.26.26-.2.39a1 1 0 0 0 .49-.32.37.37 0 0 0 .08-.48zm.19-.85l.33-.06s0 .09-.13.13-.15.06-.15-.03zm.58.91a.62.62 0 0 0-.39.52q.44-.02.44-.48zm.78-.58s0 .09-.13.13l-.13.06c.22.09.31.02.31-.15z"/></g></g></svg>